SplineFontDB: 3.2
FontName: MandoAF-Regular
FullName: Mando AF Regular
FamilyName: Mando AF
Weight: Regular
Copyright: CC0 - public domain
Version: 002
ItalicAngle: 0
UnderlinePosition: -100
UnderlineWidth: 50
Ascent: 800
Descent: 200
InvalidEm: 0
sfntRevision: 0x00010000
LayerCount: 2
Layer: 0 0 "Back" 1
Layer: 1 0 "Fore" 0
XUID: [1021 155 -1320856342 16124]
StyleMap: 0x0000
FSType: 0
OS2Version: 4
OS2_WeightWidthSlopeOnly: 0
OS2_UseTypoMetrics: 1
CreationTime: 1587621776
ModificationTime: 1673317973
PfmFamily: 17
TTFWeight: 400
TTFWidth: 5
LineGap: 90
VLineGap: 0
Panose: 2 0 5 9 0 0 0 0 0 0
OS2TypoAscent: 800
OS2TypoAOffset: 0
OS2TypoDescent: -200
OS2TypoDOffset: 0
OS2TypoLinegap: 90
OS2WinAscent: 802
OS2WinAOffset: 0
OS2WinDescent: 220
OS2WinDOffset: 0
HheadAscent: 802
HheadAOffset: 0
HheadDescent: -220
HheadDOffset: 0
OS2SubXSize: 650
OS2SubYSize: 699
OS2SubXOff: 0
OS2SubYOff: 140
OS2SupXSize: 650
OS2SupYSize: 699
OS2SupXOff: 0
OS2SupYOff: 479
OS2StrikeYSize: 49
OS2StrikeYPos: 258
OS2CapHeight: 796
OS2XHeight: 796
OS2Vendor: 'PfEd'
OS2CodePages: 00000001.00000000
OS2UnicodeRanges: 00000001.00000000.00000000.00000000
Lookup: 258 0 0 "'kern' Horizontal Kerning in Latin lookup 0" { "'kern' Horizontal Kerning in Latin lookup 0 subtable"  } ['kern' ('DFLT' <'dflt' > 'latn' <'dflt' > ) ]
MarkAttachClasses: 1
DEI: 91125
KernClass2: 37 38 "'kern' Horizontal Kerning in Latin lookup 0 subtable"
 6 exclam
 20 quotedbl quotesingle
 10 numbersign
 10 dollar W w
 9 ampersand
 5 comma
 6 hyphen
 6 period
 33 zero three seven nine E J N e j n
 11 one O P o p
 3 two
 4 four
 12 five six M m
 5 eight
 5 colon
 9 semicolon
 8 question
 6 at T t
 3 A a
 3 B b
 3 C c
 3 D d
 3 F f
 3 G g
 3 H h
 3 I i
 7 K Q k q
 3 L l
 3 R r
 3 S s
 3 U u
 3 V v
 3 X x
 3 Y y
 3 Z z
 10 underscore
 6 exclam
 20 quotedbl quotesingle
 14 numbersign S s
 6 dollar
 13 ampersand B b
 5 comma
 6 hyphen
 6 period
 4 zero
 9 one seven
 8 two nine
 5 three
 24 four six C H J Y c h j y
 4 five
 5 eight

StartChar: exclam
Encoding: 33 33 1
Width: 510
GlyphClass: 2
Flags: HMW
VStem: 188.237 132.251
LayerCount: 2
Fore
SplineSet
210.934570312 168.755859375 m 2
 200.075195312 146.74609375 190.247070312 130.8359375 188.237304688 132.021484375 c 0
 186.044921875 133.30078125 185 230.471679688 185 433.366210938 c 0
 185 453.880859375 185.010742188 475.4765625 185.032226562 498.163085938 c 0
 185.314453125 785.776367188 186.256835938 861.008789062 189.615234375 861.008789062 c 0
 191.849609375 861.008789062 201.94921875 857.173828125 228.33984375 848.533203125 c 1
 234.654296875 753.146484375 l 2
 238.116210938 700.680664062 241.595703125 655.818359375 242.38671875 653.456054688 c 0
 243.16796875 651.092773438 246.509765625 649.16015625 249.817382812 649.168945312 c 0
 253.125 649.168945312 268.975585938 657.055664062 285.041015625 666.685546875 c 0
 301.106445312 676.31640625 315.796875 684.426757812 317.6875 684.71875 c 0
 319.577148438 685.001953125 320.83984375 682.922851562 320.48828125 680.087890625 c 0
 320.135742188 677.252929688 299.645507812 569.778320312 230.075195312 207.579101562 c 1
 210.934570312 168.755859375 l 2
EndSplineSet
Validated: 524321
EndChar

StartChar: quotedbl
Encoding: 34 34 2
Width: 510
GlyphClass: 2
Flags: HMW
HStem: 773.114 290.484
VStem: 136 274.78
LayerCount: 2
Fore
SplineSet
195.495117188 1020.17285156 m 0
 223.08984375 1043.96191406 246.8359375 1063.50292969 248.263671875 1063.59863281 c 0
 249.690429688 1063.69335938 250.82421875 1062.60351562 250.780273438 1061.17578125 c 0
 250.737304688 1059.74902344 233.600585938 994.740234375 212.692382812 916.711914062 c 0
 191.79296875 838.684570312 173.920898438 774.065429688 172.977539062 773.114257812 c 0
 172.043945312 772.162109375 170.546875 772.162109375 169.647460938 773.114257812 c 0
 168.756835938 774.065429688 160.201171875 817.6640625 150.642578125 870 c 0
 140.02734375 928.098632812 136 950.944335938 136 961.336914062 c 0
 136 967.11328125 137.244140625 969.041992188 139.29296875 971.038085938 c 0
 142.60546875 974.2734375 167.900390625 996.383789062 195.495117188 1020.17285156 c 0
355.495117188 1020.17285156 m 0
 383.08984375 1043.96191406 406.8359375 1063.50292969 408.263671875 1063.59863281 c 0
 409.690429688 1063.69335938 410.82421875 1062.60351562 410.780273438 1061.17578125 c 0
 410.737304688 1059.74902344 393.600585938 994.740234375 372.692382812 916.711914062 c 0
 351.79296875 838.684570312 333.920898438 774.065429688 332.977539062 773.114257812 c 0
 332.043945312 772.162109375 330.546875 772.162109375 329.647460938 773.114257812 c 0
 328.756835938 774.065429688 320.201171875 817.6640625 310.642578125 870 c 0
 300.02734375 928.098632812 296 950.944335938 296 961.336914062 c 0
 296 967.11328125 297.244140625 969.041992188 299.29296875 971.038085938 c 0
 302.60546875 974.2734375 327.900390625 996.383789062 355.495117188 1020.17285156 c 0
EndSplineSet
Validated: 524289
EndChar

StartChar: numbersign
Encoding: 35 35 3
Width: 510
GlyphClass: 2
Flags: HMW
VStem: 118.463 108.895 127.592 78.7324 131.993 63.0615 282.596 108.895 303.63 84.6475 314.9 63.0612
LayerCount: 2
Fore
SplineSet
172.010742188 960.25390625 m 2x80
 201.456054688 979.00390625 226.84375 994.453125 228.427734375 994.5859375 c 0
 229.2734375 994.661132812 229.703125 986.266601562 229.703125 972.90234375 c 0
 229.703125 961.221679688 229.375 945.745117188 228.709960938 928.810546875 c 0
 227.836914062 906.590820312 227.358398438 891.719726562 227.358398438 882.026367188 c 0
 227.358398438 869.622070312 228.141601562 865.694335938 229.880859375 865.694335938 c 0
 230.249023438 865.694335938 230.659179688 865.870117188 231.114257812 866.178710938 c 0
 233.869140625 868.044921875 266.219726562 891.487304688 303.015625 918.264648438 c 0
 339.8203125 945.04296875 370.383789062 965.703125 370.955078125 964.171875 c 0
 371.010742188 964.021484375 370.94140625 963.676757812 370.94140625 963.109375 c 1
 372.596679688 964.060546875 373.729492188 964.584960938 374.194335938 964.584960938 c 0
 376.39453125 964.584960938 377.803710938 941.830078125 377.961914062 903.845703125 c 0x84
 378.09375 870.438476562 380.07421875 717.666015625 382.36328125 564.356445312 c 0
 384.643554688 411.037109375 387.310546875 324.911132812 388.278320312 324.065429688 c 0x08
 389.247070312 323.229492188 410.637695312 316.08984375 435.813476562 308.211914062 c 0
 479.431640625 294.567382812 482.045898438 293.211914062 500.955078125 265.1484375 c 1
 489.510742188 260.32421875 l 2
 483.216796875 257.666015625 457.609375 247.762695312 387.1171875 221.133789062 c 1
 391.4921875 73.2470703125 l 1
 337.944335938 39.162109375 l 2
 308.499023438 20.412109375 283.111328125 4.9638671875 281.52734375 4.8310546875 c 0
 280.681640625 4.755859375 280.251953125 13.150390625 280.251953125 26.5146484375 c 0
 280.251953125 38.1953125 280.580078125 53.671875 281.245117188 70.6064453125 c 0
 282.118164062 92.826171875 282.596679688 107.697265625 282.596679688 117.390625 c 0
 282.596679688 129.794921875 281.813476562 133.72265625 280.07421875 133.72265625 c 0
 279.706054688 133.72265625 279.295898438 133.546875 278.840820312 133.23828125 c 0
 276.0859375 131.372070312 243.735351562 107.9296875 206.939453125 81.15234375 c 0
 170.134765625 54.3740234375 139.571289062 33.7138671875 139 35.2451171875 c 0
 138.944335938 35.3955078125 139.013671875 35.740234375 139.013671875 36.306640625 c 1
 137.358398438 35.35546875 136.225585938 34.8310546875 135.760742188 34.8310546875 c 0
 133.560546875 34.8310546875 132.151367188 57.5859375 131.993164062 95.5703125 c 0x30
 131.861328125 128.977539062 129.880859375 281.75 127.591796875 435.059570312 c 0x40
 125.311523438 588.37890625 122.64453125 674.504882812 121.676757812 675.350585938 c 0
 120.708007812 676.186523438 99.3173828125 683.326171875 74.1416015625 691.204101562 c 0
 30.5234375 704.848632812 27.9091796875 706.204101562 9 734.267578125 c 1
 20.4443359375 739.091796875 l 2
 26.73828125 741.75 52.345703125 751.653320312 122.837890625 778.282226562 c 1
 118.462890625 926.168945312 l 1
 172.010742188 960.25390625 l 2x80
314.899414062 834.065429688 m 1
 287.829101562 802.930664062 l 2
 255.83984375 766.134765625 227.609375 733.65234375 225.091796875 730.747070312 c 0
 221.650390625 726.768554688 217.01953125 684.577148438 206.32421875 438.000976562 c 0x44
 201.690429688 331.228515625 197.58203125 233.180664062 195.0546875 165.352539062 c 1
 222.125 196.487304688 l 2
 254.114257812 233.283203125 282.344726562 265.765625 284.862304688 268.670898438 c 0
 288.303710938 272.649414062 292.934570312 314.840820312 303.629882812 561.416992188 c 0x28
 308.263671875 668.189453125 312.372070312 766.237304688 314.899414062 834.065429688 c 1
EndSplineSet
Validated: 524321
EndChar

StartChar: dollar
Encoding: 36 36 4
Width: 510
GlyphClass: 2
Flags: HMW
HStem: 0.21138 71.3904
VStem: 228.972 85.2227<607.999 607.999> 235.155 66.0938 351.854 113.974
LayerCount: 2
Fore
SplineSet
145.612304688 954.263671875 m 2x90
 156.471679688 976.2734375 166.299804688 992.18359375 168.309570312 990.998046875 c 0
 170.501953125 989.71875 171.546875 892.547851562 171.546875 689.653320312 c 0
 171.546875 669.138671875 171.536132812 647.54296875 171.514648438 624.856445312 c 0
 171.232421875 337.243164062 170.290039062 262.010742188 166.931640625 262.010742188 c 0
 164.697265625 262.010742188 154.59765625 265.845703125 128.20703125 274.486328125 c 1
 121.892578125 369.873046875 l 2
 118.430664062 422.338867188 114.951171875 467.201171875 114.16015625 469.563476562 c 0
 113.37890625 471.926757812 110.037109375 473.859375 106.729492188 473.850585938 c 0
 103.421875 473.850585938 87.5712890625 465.963867188 71.505859375 456.333984375 c 0
 55.4404296875 446.703125 40.75 438.592773438 38.859375 438.30078125 c 0
 36.9697265625 438.017578125 35.70703125 440.096679688 36.05859375 442.931640625 c 0
 36.4111328125 445.766601562 56.9013671875 553.241210938 126.471679688 915.440429688 c 1
 145.612304688 954.263671875 l 2x90
242.975585938 995.053710938 m 0
 243.874023438 996.548828125 246.623046875 996.548828125 249.087890625 995.053710938 c 0
 251.54296875 993.559570312 264.265625 984.333984375 277.352539062 974.546875 c 0
 300.493164062 957.243164062 301.151367188 956.30859375 301.249023438 940.739257812 c 0xb0
 301.302734375 931.931640625 304.229492188 853.461914062 314.194335938 607.999023438 c 1
 453.393554688 273.479492188 l 1
 459.265625 191.62890625 l 2
 462.516601562 146.30859375 465.828125 106.48828125 465.828125 102.002929688 c 0
 465.828125 96.138671875 452.155273438 83.7841796875 407.770507812 49.38671875 c 0
 375.475585938 24.3603515625 347.450195312 2.447265625 345.493164062 0.6943359375 c 0
 345.12890625 0.3681640625 343.37109375 0.2099609375 340.350585938 0.2099609375 c 0
 325.735351562 0.2099609375 281.560546875 3.908203125 222.708984375 10.1611328125 c 0
 157.138671875 17.1181640625 100.2890625 23.4970703125 96.3740234375 24.3427734375 c 0
 92.7607421875 25.11328125 90.98828125 25.546875 90.98828125 33.9033203125 c 0
 90.98828125 41.9443359375 92.62890625 57.3212890625 95.8486328125 87.3935546875 c 0
 99.478515625 121.237304688 103.08203125 149.32421875 103.856445312 149.813476562 c 0
 104.638671875 150.303710938 114.478515625 145.28515625 125.733398438 138.657226562 c 0
 146.053710938 126.700195312 146.240234375 126.43359375 152.877929688 100.401367188 c 0
 156.551757812 85.98828125 160.555664062 73.1240234375 161.774414062 71.8154296875 c 0
 161.909179688 71.6708984375 162.5546875 71.6005859375 163.666015625 71.6005859375 c 0
 172.590820312 71.6005859375 211.543945312 76.107421875 257.068359375 82.4921875 c 0
 308.259765625 89.671875 350.911132812 96.34375 351.854492188 97.3232421875 c 0
 352.7890625 98.3017578125 356.631835938 139.137695312 367.201171875 277.038085938 c 1
 228.971679688 607.999023438 l 1xd0
 235.155273438 800.169921875 l 2xb0
 238.553710938 905.86328125 242.068359375 993.559570312 242.975585938 995.053710938 c 0
EndSplineSet
Validated: 524321
EndChar

StartChar: ampersand
Encoding: 38 38 5
Width: 510
GlyphClass: 2
Flags: HMW
HStem: 798.912 82.0693
VStem: 108.378 89.2363 110.551 74.7829 280.158 111.004 289.7 82.8965 294.807 59.9447
LayerCount: 2
Fore
SplineSet
334.13671875 846.587890625 m 2x90
 363.819335938 865.393554688 390.512695312 880.981445312 393.461914062 880.981445312 c 0
 396.622070312 880.981445312 421.834960938 872.5 449.744140625 862.0546875 c 0
 477.825195312 851.53515625 501.223632812 841.596679688 501.743164062 839.9765625 c 0
 502.252929688 838.357421875 496.708007812 831.340820312 489.418945312 824.38671875 c 0
 476.831054688 812.388671875 473.978515625 811.4296875 433.899414062 805.627929688 c 0
 410.66015625 802.274414062 391.42578125 799.24609375 391.162109375 798.912109375 c 0x90
 390.897460938 798.568359375 382.543945312 567.362304688 372.596679688 334 c 0x88
 362.73046875 102.52734375 354.751953125 54.14453125 354.751953125 45.8154296875 c 0
 354.751953125 32.0009765625 354.102539062 30.8623046875 328.423828125 11.2880859375 c 0
 313.811523438 0.1533203125 300.263671875 -8.9580078125 298.327148438 -8.9580078125 c 0
 296.206054688 -8.9580078125 294.806640625 6.0068359375 294.806640625 28.89453125 c 0x84
 294.806640625 49.712890625 292.508789062 72.0283203125 289.700195312 261.81640625 c 0x88
 286.892578125 451.60546875 283.600585938 684.123046875 280.158203125 812.379882812 c 1
 334.13671875 846.587890625 l 2x90
158.991210938 953.114257812 m 1
 213.595703125 986.782226562 l 1
 265.306640625 967.581054688 l 2
 293.745117188 957.028320312 318.595703125 947.001953125 320.525390625 945.317382812 c 0
 322.75390625 943.37890625 319.306640625 937.440429688 311.095703125 929.098632812 c 0
 298.657226562 916.458007812 296.560546875 915.703125 256.709960938 909.694335938 c 0
 233.911132812 906.247070312 214.47265625 902.563476562 213.5078125 901.493164062 c 0
 212.54296875 900.431640625 209.885742188 857.458007812 207.595703125 806.001953125 c 0
 205.315429688 754.545898438 203.315429688 707.703125 203.157226562 701.9140625 c 2
 199.47265625 601.9140625 l 1
 197.61328125 565.94921875 l 2xc0
 196.586914062 546.16796875 191.060546875 419.063476562 185.333007812 283.493164062 c 0
 179.604492188 147.922851562 174.911132812 34.6328125 174.911132812 31.73828125 c 0
 174.911132812 28.84375 162.280273438 17.001953125 146.841796875 5.4228515625 c 0
 131.673828125 -5.953125 121.834960938 -11.9384765625 118.392578125 -11.9384765625 c 0
 117.717773438 -11.9384765625 117.2890625 -11.708984375 117.11328125 -11.2451171875 c 0
 116.209960938 -8.8330078125 91.736328125 88.2724609375 62.7275390625 204.544921875 c 0
 33.7275390625 320.81640625 9.9990234375 416.737304688 9.9990234375 417.702148438 c 0
 9.9990234375 418.666992188 11.578125 419.45703125 13.5078125 419.45703125 c 0
 15.4375 419.45703125 37.54296875 402.877929688 62.630859375 382.615234375 c 0
 87.71875 362.3515625 109.078125 346.166992188 110.095703125 346.649414062 c 0
 110.404296875 346.793945312 110.55078125 356.619140625 110.55078125 373.853515625 c 0xa0
 110.55078125 413.991210938 109.758789062 494.314453125 108.377929688 586.123046875 c 0xc0
 106.412109375 717.350585938 104.7109375 846.03515625 104.38671875 919.456054688 c 1
 158.991210938 953.114257812 l 1
EndSplineSet
Validated: 524321
EndChar

StartChar: quotesingle
Encoding: 39 39 6
Width: 510
GlyphClass: 2
Flags: HMW
HStem: 773.114 290.484
VStem: 198 114.78
LayerCount: 2
Fore
SplineSet
257.495117188 1020.17285156 m 0
 285.08984375 1043.96191406 308.8359375 1063.50292969 310.263671875 1063.59863281 c 0
 311.690429688 1063.69335938 312.82421875 1062.60351562 312.780273438 1061.17578125 c 0
 312.737304688 1059.74902344 295.600585938 994.740234375 274.692382812 916.711914062 c 0
 253.79296875 838.684570312 235.920898438 774.065429688 234.977539062 773.114257812 c 0
 234.043945312 772.162109375 232.546875 772.162109375 231.647460938 773.114257812 c 0
 230.756835938 774.065429688 222.201171875 817.6640625 212.642578125 870 c 0
 202.02734375 928.098632812 198 950.944335938 198 961.336914062 c 0
 198 967.11328125 199.244140625 969.041992188 201.29296875 971.038085938 c 0
 204.60546875 974.2734375 229.900390625 996.383789062 257.495117188 1020.17285156 c 0
EndSplineSet
Validated: 524289
EndChar

StartChar: comma
Encoding: 44 44 7
Width: 510
GlyphClass: 2
Flags: HMW
HStem: 0.391602 261.061
VStem: 174.355 161.419
LayerCount: 2
Fore
SplineSet
330.774414062 193.366210938 m 0
 333.486328125 156.76171875 335.774414062 123.57421875 335.774414062 118.60546875 c 0
 335.774414062 110.793945312 331.020507812 107.094726562 256.301757812 55.4619140625 c 0
 212.536132812 25.2138671875 175.657226562 0.4345703125 174.35546875 0.3916015625 c 0
 173.045898438 0.3544921875 171.987304688 1.4130859375 172 2.7470703125 c 0
 172.005859375 4.0859375 205.061523438 62.416015625 245.45703125 132.368164062 c 0
 285.846679688 202.327148438 319.697265625 260.412109375 320.67578125 261.452148438 c 0
 321.654296875 262.4921875 323.2265625 262.4609375 324.168945312 261.385742188 c 0
 325.110351562 260.30859375 328.083984375 229.69921875 330.774414062 193.366210938 c 0
EndSplineSet
Validated: 524289
EndChar

StartChar: hyphen
Encoding: 45 45 8
Width: 510
GlyphClass: 2
Flags: HMW
HStem: 562.725 76.21
LayerCount: 2
Fore
SplineSet
381.088867188 638.934570312 m 1
 391.844726562 632.337890625 411.485351562 620.127929688 424.737304688 611.799804688 c 0
 445.798828125 598.555664062 449.541992188 594.627929688 454.504882812 580.547851562 c 0
 457.625976562 571.692382812 458.7421875 563.22265625 456.630859375 562.723632812 c 0
 409.358398438 551.524414062 211.075195312 491.313476562 151.583007812 470.216796875 c 0
 101.091796875 450.892578125 58.7099609375 436.233398438 53.5556640625 436.233398438 c 0
 53.255859375 436.233398438 53.08203125 436.283203125 53.0400390625 436.384765625 c 0
 52.2685546875 438.217773438 62.3271484375 457.454101562 99.1484375 518.549804688 c 1
 157.544921875 562.921875 245.274414062 608.711914062 381.088867188 638.934570312 c 1
EndSplineSet
Validated: 524321
EndChar

StartChar: period
Encoding: 46 46 9
Width: 510
GlyphClass: 2
Flags: HMW
HStem: 2.25977 258.639
VStem: 173 163.773
LayerCount: 2
Fore
SplineSet
177.999023438 192.87890625 m 0
 180.690429688 229.212890625 183.663085938 259.821289062 184.60546875 260.8984375 c 0
 185.546875 261.974609375 187.120117188 262.004882812 188.098632812 260.96484375 c 0
 189.076171875 259.92578125 222.927734375 201.83984375 263.317382812 131.880859375 c 0
 303.712890625 61.9296875 336.767578125 3.599609375 336.7734375 2.259765625 c 0
 336.787109375 0.92578125 335.728515625 -0.1328125 334.418945312 -0.0947265625 c 0
 333.116210938 -0.052734375 296.23828125 24.7265625 252.471679688 54.974609375 c 0
 177.75390625 106.607421875 173 110.306640625 173 118.118164062 c 0
 173 123.08984375 175.287109375 156.270507812 177.999023438 192.87890625 c 0
EndSplineSet
Validated: 524289
EndChar

StartChar: zero
Encoding: 48 48 10
Width: 510
GlyphClass: 2
Flags: HMW
VStem: 112.786 60.7627 241.571 109.848
LayerCount: 2
Fore
SplineSet
129.680664062 321.012695312 m 2
 101.698242188 303.223632812 77.048828125 288.530273438 74.8916015625 288.372070312 c 0
 72.2158203125 288.170898438 71.4267578125 296.670898438 72.400390625 315.276367188 c 0
 77.8154296875 419.065429688 105.234375 782.483398438 112.786132812 937.732421875 c 1
 139.040039062 957.030273438 l 2
 153.479492188 967.64453125 166.356445312 976.329101562 167.663085938 976.329101562 c 0
 168.970703125 976.329101562 170.830078125 945.407226562 173.548828125 838.907226562 c 0
 175.387695312 641.026367188 180.56640625 575.357421875 180.56640625 353.36328125 c 1
 129.680664062 321.012695312 l 2
297.655273438 958.473632812 m 1
 353.716796875 992.104492188 l 1
 407.19921875 971.18359375 l 2
 436.611328125 959.68359375 461.471679688 949.622070312 462.436523438 948.833007812 c 0
 463.401367188 948.051757812 457.875 941.078125 450.155273438 933.341796875 c 0
 436.26953125 919.4296875 435.681640625 919.227539062 394.014648438 913.797851562 c 0
 370.857421875 910.780273438 351.690429688 908.086914062 351.418945312 907.806640625 c 0
 351.155273438 907.525390625 339.690429688 718.61328125 325.9453125 488 c 0
 312.208007812 257.385742188 300.190429688 60.412109375 299.243164062 50.2802734375 c 0
 297.532226562 31.9912109375 297.331054688 31.71875 271.208007812 12.560546875 c 0
 256.734375 1.947265625 244.102539062 -6.7373046875 243.137695312 -6.7373046875 c 0
 242.263671875 -6.7373046875 241.5703125 165.127929688 241.5703125 733.649414062 c 0
 241.5703125 792.975585938 241.578125 856.62109375 241.59375 924.841796875 c 1
 297.655273438 958.473632812 l 1
EndSplineSet
Validated: 524289
EndChar

StartChar: one
Encoding: 49 49 11
Width: 510
GlyphClass: 2
Flags: HMW
VStem: 116.964 108.541 287.348 57.791
LayerCount: 2
Fore
SplineSet
452.375976562 16.2451171875 m 2
 401.682617188 -4.03515625 l 1
 387.463867188 4.1484375 l 2
 379.638671875 8.6484375 353.928710938 23.7626953125 287.419921875 63.1572265625 c 1
 287.349609375 528.947265625 l 2
 287.348632812 536.06640625 287.34765625 543.150390625 287.34765625 550.194335938 c 0
 287.34765625 796.619140625 288.086914062 994.736328125 289.025390625 994.736328125 c 0
 289.990234375 994.736328125 302.62109375 986.051757812 317.094726562 975.438476562 c 0
 343.217773438 956.280273438 343.419921875 955.999023438 345.138671875 937.71875 c 0
 346.0859375 927.586914062 358.112304688 730.61328125 371.849609375 499.999023438 c 0
 385.5859375 269.385742188 397.051757812 80.4736328125 397.314453125 80.1923828125 c 0
 397.577148438 79.912109375 416.744140625 77.21875 482.0078125 68.71875 c 1
 496.04296875 54.1396484375 l 2
 503.76171875 46.1220703125 508.499023438 38.876953125 506.569335938 38.04296875 c 0
 504.638671875 37.2099609375 480.252929688 27.39453125 452.375976562 16.2451171875 c 2
169.419921875 29.525390625 m 1
 113.358398438 -4.10546875 l 1
 59.8759765625 16.8154296875 l 2
 30.4638671875 28.3154296875 5.603515625 38.376953125 4.638671875 39.166015625 c 0
 3.673828125 39.947265625 9.2001953125 46.859375 16.919921875 54.525390625 c 0
 30.7001953125 68.2099609375 31.7265625 68.5693359375 73.9814453125 74.578125 c 0
 110.360351562 79.7587890625 116.963867188 81.6474609375 116.963867188 86.8544921875 c 0
 116.963867188 90.666015625 127.961914062 277.59375 141.419921875 502.630859375 c 0
 154.90234375 727.938476562 166.744140625 922.1484375 169.551757812 956.139648438 c 1
 195.8671875 975.438476562 l 2
 210.340820312 986.051757812 222.97265625 994.736328125 223.9375 994.736328125 c 0
 224.811523438 994.736328125 225.504882812 822.87109375 225.504882812 254.349609375 c 0
 225.504882812 195.0234375 225.497070312 131.377929688 225.481445312 63.1572265625 c 1
 169.419921875 29.525390625 l 1
EndSplineSet
Validated: 524289
EndChar

StartChar: two
Encoding: 50 50 12
Width: 510
GlyphClass: 2
Flags: HMW
VStem: 120 105.618 127.405 84.6572 138.584 59.0508 281.455 108.166 284.314 91.8945 287.174 62.0615
LayerCount: 2
Fore
SplineSet
332.340820312 942.684570312 m 2x10
 360.323242188 960.473632812 384.97265625 975.166992188 387.129882812 975.325195312 c 0
 389.805664062 975.526367188 390.594726562 967.026367188 389.62109375 948.420898438 c 0x10
 388.840820312 933.46484375 382.805664062 810.17578125 376.208984375 650 c 2x08
 356.077148438 320.526367188 l 2
 354.65625 300.263671875 352.541992188 263.947265625 349.235351562 195.96484375 c 1
 322.981445312 176.666992188 l 2
 308.541992188 166.052734375 295.665039062 157.368164062 294.358398438 157.368164062 c 0
 293.05078125 157.368164062 291.19140625 188.290039062 288.47265625 294.790039062 c 2
 287.173828125 434.561523438 l 1x04
 284.314453125 490.3515625 l 1x08
 282.744140625 609.03515625 281.455078125 736.587890625 281.455078125 910.333984375 c 1
 332.340820312 942.684570312 l 2x10
138.583984375 993.708984375 m 0x20
 138.689453125 994.08203125 138.98046875 994.290039062 139.513671875 994.290039062 c 0
 142.975585938 994.290039062 156.676757812 985.47265625 196.623046875 955.318359375 c 1
 197.634765625 899.3828125 l 2x20
 198.198242188 868.609375 204.686523438 675.162109375 212.0625 469.490234375 c 0x40
 219.4375 263.819335938 225.534179688 92.3955078125 225.618164062 88.55078125 c 0
 225.743164062 82.3447265625 230.376953125 80.87890625 266.98828125 75.51171875 c 0
 305.23046875 69.9111328125 309.1953125 68.58984375 321.704101562 57.232421875 c 0
 329.122070312 50.5087890625 335.146484375 43.4267578125 335.091796875 41.5029296875 c 0
 335.0390625 39.5791015625 310.755859375 29.3193359375 227.26171875 -0.595703125 c 1
 176.88671875 30.453125 l 2
 149.180664062 47.533203125 124.479492188 63.232421875 122.00390625 65.33984375 c 0
 120.702148438 66.4462890625 119.999023438 78.615234375 119.999023438 110.772460938 c 0x80
 119.999023438 168.530273438 122.266601562 290.771484375 127.405273438 529.211914062 c 0x40
 132.859375 782.23046875 137.891601562 991.2578125 138.583984375 993.708984375 c 0x20
EndSplineSet
Validated: 524289
EndChar

StartChar: three
Encoding: 51 51 13
Width: 510
GlyphClass: 2
Flags: HMW
VStem: 165.861 57.7909 285.495 108.541
LayerCount: 2
Fore
SplineSet
58.6240234375 974.385742188 m 2
 109.317382812 994.666015625 l 1
 123.536132812 986.482421875 l 2
 131.361328125 981.982421875 157.071289062 966.868164062 223.580078125 927.473632812 c 1
 223.650390625 461.68359375 l 2
 223.651367188 454.564453125 223.65234375 447.48046875 223.65234375 440.436523438 c 0
 223.65234375 194.01171875 222.913085938 -4.10546875 221.974609375 -4.10546875 c 0
 221.009765625 -4.10546875 208.37890625 4.5791015625 193.905273438 15.1923828125 c 0
 167.782226562 34.3505859375 167.580078125 34.6318359375 165.861328125 52.912109375 c 0
 164.9140625 63.0439453125 152.887695312 260.017578125 139.150390625 490.631835938 c 0
 125.4140625 721.245117188 113.948242188 910.157226562 113.685546875 910.438476562 c 0
 113.422851562 910.71875 94.255859375 913.412109375 28.9921875 921.912109375 c 1
 14.95703125 936.491210938 l 2
 7.23828125 944.508789062 2.5009765625 951.75390625 4.4306640625 952.587890625 c 0
 6.361328125 953.420898438 30.7470703125 963.236328125 58.6240234375 974.385742188 c 2
341.580078125 961.10546875 m 1
 397.642578125 994.735351562 l 1
 451.125 973.814453125 l 2
 480.537109375 962.314453125 505.397460938 952.252929688 506.362304688 951.463867188 c 0
 507.327148438 950.682617188 501.80078125 943.770507812 494.081054688 936.104492188 c 0
 480.30078125 922.419921875 479.274414062 922.060546875 437.01953125 916.051757812 c 0
 400.640625 910.87109375 394.037109375 908.983398438 394.037109375 903.776367188 c 0
 394.037109375 899.96484375 383.038085938 713.037109375 369.580078125 488 c 0
 356.09765625 262.692382812 344.255859375 68.482421875 341.448242188 34.4912109375 c 1
 315.1328125 15.1923828125 l 2
 300.659179688 4.5791015625 288.02734375 -4.10546875 287.0625 -4.10546875 c 0
 286.188476562 -4.10546875 285.495117188 167.759765625 285.495117188 736.28125 c 0
 285.495117188 795.607421875 285.502929688 859.252929688 285.518554688 927.473632812 c 1
 341.580078125 961.10546875 l 1
EndSplineSet
Validated: 524289
EndChar

StartChar: four
Encoding: 52 52 14
Width: 510
GlyphClass: 2
Flags: HMW
VStem: 120 105.618 127.405 84.6572 138.584 58.0391 281.455 108.166 284.314 91.8945 287.174 62.0615
LayerCount: 2
Fore
SplineSet
332.340820312 51.0126953125 m 2x10
 281.455078125 83.36328125 l 1x10
 281.455078125 257.109375 282.744140625 384.662109375 284.314453125 503.345703125 c 1x08
 287.173828125 559.135742188 l 1
 288.47265625 698.907226562 l 2
 291.19140625 805.407226562 293.05078125 836.329101562 294.358398438 836.329101562 c 0
 295.665039062 836.329101562 308.541992188 827.64453125 322.981445312 817.030273438 c 2
 349.235351562 797.732421875 l 1x04
 352.541992188 729.75 354.65625 693.43359375 356.077148438 673.170898438 c 2
 376.208984375 343.697265625 l 2x08
 382.805664062 183.521484375 388.840820312 60.232421875 389.62109375 45.2763671875 c 0
 390.594726562 26.6708984375 389.805664062 18.1708984375 387.129882812 18.3720703125 c 0
 384.97265625 18.5302734375 360.323242188 33.2236328125 332.340820312 51.0126953125 c 2x10
138.583984375 -0.01171875 m 0x20
 137.891601562 2.439453125 132.858398438 211.46484375 127.404296875 464.483398438 c 0x40
 122.265625 702.923828125 119.998046875 825.165039062 119.998046875 882.922851562 c 0x80
 119.998046875 915.080078125 120.701171875 927.249023438 122.002929688 928.35546875 c 0
 124.478515625 930.462890625 149.1796875 946.162109375 176.885742188 963.2421875 c 2
 227.260742188 994.291015625 l 1
 310.754882812 964.375976562 335.038085938 954.116210938 335.090820312 952.192382812 c 0
 335.145507812 950.268554688 329.12109375 943.186523438 321.703125 936.462890625 c 0
 309.194335938 925.10546875 305.229492188 923.784179688 266.987304688 918.18359375 c 0
 230.375976562 912.81640625 225.7421875 911.350585938 225.6171875 905.14453125 c 0
 225.533203125 901.299804688 219.436523438 729.875976562 212.061523438 524.205078125 c 0x40
 204.685546875 318.533203125 198.197265625 125.0859375 197.633789062 94.3125 c 2
 196.622070312 38.376953125 l 1
 156.67578125 8.22265625 142.974609375 -0.5947265625 139.512695312 -0.5947265625 c 0
 138.979492188 -0.5947265625 138.689453125 -0.384765625 138.583984375 -0.01171875 c 0x20
EndSplineSet
Validated: 524289
EndChar

StartChar: five
Encoding: 53 53 15
Width: 510
GlyphClass: 2
Flags: HMW
HStem: -0.254883 80.538
VStem: 140.017 83.916 157.482 59.5186 271.024 89.2115 285.104 57.6924
LayerCount: 2
Fore
SplineSet
66.5732421875 976.763671875 m 0xc0
 94.4580078125 987.358398438 118.879882812 995.688476562 120.846679688 995.278320312 c 0
 122.822265625 994.858398438 148.442382812 979.569335938 231.169921875 928.083984375 c 1
 230.977539062 908.853515625 l 2
 230.873046875 898.276367188 227.69921875 704.745117188 223.931640625 478.783203125 c 0xc0
 220.15625 252.821289062 217.043945312 67.55078125 217 67.0693359375 c 0
 216.95703125 66.5888671875 195.680664062 51.248046875 169.71875 32.978515625 c 0
 143.756835938 14.7099609375 121.3359375 -0.2470703125 119.893554688 -0.2548828125 c 0
 118.451171875 -0.2724609375 95.2431640625 7.734375 68.3203125 17.5244140625 c 0
 41.3974609375 27.3232421875 17.5595703125 36.37890625 15.357421875 37.6552734375 c 0
 14.8515625 37.9462890625 14.5546875 38.3955078125 14.5546875 39.1025390625 c 0
 14.5546875 42.0712890625 19.80078125 49.5771484375 36.8525390625 68.9228515625 c 1
 78.810546875 74.9716796875 l 2
 99.439453125 77.94921875 123.315429688 80.283203125 148.47265625 80.283203125 c 0
 151.458984375 80.283203125 154.462890625 80.25 157.482421875 80.181640625 c 1xa0
 157.420898438 96.7900390625 l 2
 157.385742188 105.924804688 149.553710938 292.76953125 140.016601562 512 c 0
 130.48046875 731.23046875 121.458984375 911.553710938 119.973632812 912.708007812 c 0
 118.487304688 913.870117188 99.177734375 917.3671875 77.0625 920.469726562 c 0
 38.2421875 925.93359375 36.3984375 926.580078125 23.75 939.342773438 c 0
 16.5380859375 946.615234375 11.8173828125 953.669921875 13.259765625 955.033203125 c 0
 14.693359375 956.387695312 38.6884765625 966.169921875 66.5732421875 976.763671875 c 0xc0
324.83203125 963.6171875 m 0
 352.979492188 981.239257812 376.797851562 995.802734375 377.759765625 995.986328125 c 0
 378.721679688 996.161132812 403.896484375 987.384765625 433.704101562 976.475585938 c 0
 463.51171875 965.56640625 488.686523438 956.064453125 489.647460938 955.356445312 c 0
 490.609375 954.6484375 485.102539062 947.76953125 477.41015625 940.059570312 c 0
 463.73046875 926.361328125 462.549804688 925.93359375 423.21484375 920.435546875 c 0
 401.098632812 917.349609375 381.78125 913.870117188 380.294921875 912.708007812 c 0
 378.799804688 911.553710938 369.779296875 731.23046875 360.233398438 512 c 0x90
 350.697265625 292.76953125 342.873046875 105.924804688 342.794921875 80.181640625 c 1
 359.403320312 80.767578125 l 2
 359.913085938 80.78515625 360.478515625 80.7939453125 361.096679688 80.7939453125 c 0
 371.556640625 80.7939453125 397.020507812 78.26171875 419.717773438 74.9111328125 c 0
 463.336914062 68.4775390625 463.450195312 68.43359375 489.516601562 39.9716796875 c 1
 436.255859375 19.849609375 l 2
 406.97265625 8.7744140625 381.82421875 -0.2724609375 380.381835938 -0.2548828125 c 0
 378.939453125 -0.2470703125 356.912109375 14.5693359375 285.102539062 65.583984375 c 1x88
 282.454101562 143.686523438 l 2
 281.002929688 186.641601562 277.436523438 380.706054688 274.534179688 574.936523438 c 0
 272.349609375 721.59375 271.022460938 848.565429688 271.022460938 902.380859375 c 0x90
 271.022460938 919.837890625 271.162109375 929.596679688 271.458007812 929.83203125 c 0
 272.673828125 930.793945312 296.685546875 945.995117188 324.83203125 963.6171875 c 0
EndSplineSet
Validated: 524321
EndChar

StartChar: six
Encoding: 54 54 16
Width: 510
GlyphClass: 2
Flags: HMW
HStem: -0.254883 80.4365
VStem: 153.843 82.0195 158.93 59.4932
LayerCount: 2
Fore
SplineSet
197.8203125 961.860351562 m 2xc0
 227.41796875 980.444335938 252.426757812 995.802734375 253.387695312 996.002929688 c 0
 254.349609375 996.204101562 278.737304688 987.611328125 307.583984375 976.912109375 c 0
 336.4296875 966.221679688 361.211914062 956.361328125 362.645507812 955.015625 c 0
 364.087890625 953.661132812 359.3671875 946.615234375 352.155273438 939.342773438 c 0
 339.506835938 926.580078125 337.662109375 925.93359375 298.842773438 920.469726562 c 0
 276.727539062 917.3671875 257.409179688 913.870117188 255.922851562 912.708007812 c 0
 254.428710938 911.553710938 245.407226562 731.23046875 235.862304688 512 c 0xc0
 226.325195312 292.76953125 218.501953125 105.924804688 218.422851562 80.181640625 c 1
 235.03125 80.767578125 l 2
 235.541015625 80.78515625 236.106445312 80.7939453125 236.724609375 80.7939453125 c 0
 247.184570312 80.7939453125 272.6484375 78.26171875 295.345703125 74.9111328125 c 0
 338.96484375 68.4775390625 339.079101562 68.43359375 365.145507812 39.9716796875 c 1
 311.884765625 19.849609375 l 2
 282.6015625 8.7744140625 257.453125 -0.2724609375 256.010742188 -0.2548828125 c 0
 254.568359375 -0.2470703125 232.146484375 14.7099609375 206.185546875 32.978515625 c 0
 180.223632812 51.248046875 158.956054688 66.5888671875 158.9296875 67.0693359375 c 0xa0
 158.904296875 67.55078125 156.61328125 204.044921875 153.842773438 370.391601562 c 0
 151.071289062 536.737304688 147.723632812 730.26953125 144 928.083984375 c 1
 197.8203125 961.860351562 l 2xc0
EndSplineSet
Validated: 524321
EndChar

StartChar: seven
Encoding: 55 55 17
Width: 510
GlyphClass: 2
Flags: HMW
VStem: 115.115 108.729<82.4912 86.0801> 285.423 55.3154 285.633 108.456
LayerCount: 2
Fore
SplineSet
341.694335938 962.052734375 m 1xa0
 397.755859375 995.68359375 l 1
 451.23828125 974.762695312 l 2
 480.650390625 963.262695312 505.510742188 953.201171875 506.475585938 952.412109375 c 0
 507.440429688 951.630859375 501.9140625 944.71875 494.194335938 937.052734375 c 0
 480.4140625 923.368164062 479.387695312 923.008789062 437.1328125 917 c 0
 398.501953125 911.5 394.106445312 910.157226562 394.088867188 903.859375 c 0xa0
 394.080078125 900 382.282226562 712.89453125 367.870117188 488.0703125 c 0
 353.458007812 263.245117188 341.255859375 79.1572265625 340.73828125 78.9912109375 c 0
 340.229492188 78.82421875 327.571289062 69.7451171875 285.422851562 38.947265625 c 1xc0
 285.6328125 928.420898438 l 1
 341.694335938 962.052734375 l 1xa0
195.01953125 920.359375 m 2
 209.905273438 931.359375 222.484375 940.438476562 222.966796875 940.53515625 c 0
 223.44921875 940.622070312 223.84375 743.333007812 223.84375 63.5087890625 c 1
 111.5625 -3.158203125 l 1
 59.80859375 16.595703125 l 2
 31.34375 27.4560546875 6.4755859375 37.71875 4.544921875 39.4033203125 c 0
 4.1982421875 39.7060546875 4 40.11328125 4 40.6708984375 c 0
 4 43.681640625 9.7744140625 51.0791015625 29.1064453125 70.1220703125 c 1
 72.115234375 74.7099609375 l 2
 105.985351562 78.3251953125 115.115234375 80.41796875 115.115234375 84.564453125 c 0
 115.115234375 87.595703125 126.111328125 262.802734375 139.5625 474.03515625 c 0
 153.01953125 685.350585938 164.905273438 867.71875 167.94921875 900.350585938 c 1
 195.01953125 920.359375 l 2
EndSplineSet
Validated: 524321
EndChar

StartChar: eight
Encoding: 56 56 18
Width: 510
GlyphClass: 2
Flags: HMW
VStem: 144 109.123<48.333 62.3682> 155.053 82.333
LayerCount: 2
Fore
SplineSet
164.412109375 926.385742188 m 0x40
 165.98046875 961.133789062 167.84375 977.624023438 170.21875 977.624023438 c 0
 172.124023438 977.624023438 184.27734375 967.688476562 195.333007812 959.4296875 c 0
 206.912109375 950.771484375 217.552734375 942.762695312 218.982421875 941.623046875 c 0
 220.412109375 940.491210938 228.693359375 748.508789062 237.385742188 515 c 0x40
 246.087890625 281.491210938 253.184570312 84.123046875 253.123046875 62.3681640625 c 1
 297.25390625 55.3505859375 l 2
 339.736328125 48.5966796875 341.868164062 47.841796875 354.32421875 35.236328125 c 0
 361.438476562 28.03515625 366.473632812 21.359375 365.508789062 20.4033203125 c 0
 364.543945312 19.447265625 340.46484375 9.9384765625 312 -0.7109375 c 0
 283.53515625 -11.3681640625 258.666992188 -20.087890625 256.736328125 -20.087890625 c 0
 254.806640625 -20.087890625 228.649414062 -4.693359375 144 48.3330078125 c 1x80
 146.052734375 100.96484375 l 2
 147.184570312 129.912109375 151.236328125 315.438476562 155.052734375 513.245117188 c 0
 158.868164062 711.052734375 163.079101562 896.96484375 164.412109375 926.385742188 c 0x40
EndSplineSet
Validated: 524321
EndChar

StartChar: nine
Encoding: 57 57 19
Width: 510
GlyphClass: 2
Flags: HMW
HStem: 1.01367 82.168<172.741 177.304> 919.694 75.6659
VStem: 64 108.741<69.1963 83.1816> 75.0137 82.0635 228.23 109.65 240.644 82.4033
LayerCount: 2
Fore
SplineSet
84.3408203125 944.178710938 m 0xd0
 85.9033203125 978.805664062 87.759765625 995.237304688 90.126953125 995.237304688 c 0
 92.025390625 995.237304688 104.135742188 985.336914062 115.154296875 977.106445312 c 0
 126.692382812 968.479492188 137.303710938 960.498046875 138.737304688 959.362304688 c 0
 140.170898438 958.234375 148.422851562 766.922851562 157.077148438 534.23046875 c 0xd0
 165.721679688 301.538085938 172.793945312 104.860351562 172.741210938 83.181640625 c 1
 216.71875 76.1884765625 l 2
 259.052734375 69.4580078125 261.176757812 68.7060546875 273.588867188 56.1455078125 c 0
 280.678710938 48.96875 285.6953125 42.31640625 284.734375 41.36328125 c 0
 283.772460938 40.4111328125 259.778320312 30.935546875 231.412109375 20.3232421875 c 0
 203.046875 9.703125 178.265625 1.013671875 176.342773438 1.013671875 c 0
 174.419921875 1.013671875 148.353515625 16.35546875 64 69.1962890625 c 1xe0
 66.0458984375 121.643554688 l 2
 67.1728515625 150.489257812 71.2119140625 335.3671875 75.013671875 532.482421875 c 0
 78.81640625 729.59765625 83.01171875 914.860351562 84.3408203125 944.178710938 c 0xd0
283.299804688 962.369140625 m 2
 313.522460938 981.454101562 338.817382812 995.360351562 343.220703125 995.360351562 c 0
 346.260742188 995.360351562 370.2421875 985.62109375 396.061523438 976.163085938 c 0
 422.0234375 966.65234375 444.444335938 957.736328125 445.877929688 956.346679688 c 0
 447.3203125 954.947265625 442.111328125 947.517578125 434.295898438 939.825195312 c 0
 420.502929688 926.241210938 418.928710938 925.6640625 379.235351562 919.694335938 c 0
 356.760742188 916.311523438 338.151367188 913.1640625 337.879882812 912.701171875 c 0xc8
 337.600585938 912.23828125 330.930664062 703.26953125 323.045898438 485 c 0
 315.161132812 266.73046875 307.521484375 250.201171875 303.404296875 188.3828125 c 1
 277.180664062 168.094726562 l 2
 262.7578125 156.940429688 250.51953125 148.138671875 249.995117188 148.540039062 c 0
 249.461914062 148.942382812 245.2578125 148.63671875 240.642578125 367.8671875 c 0xc4
 236.036132812 587.09765625 231.350585938 825.970703125 228.229492188 927.587890625 c 1xc8
 283.299804688 962.369140625 l 2
EndSplineSet
Validated: 524321
EndChar

StartChar: colon
Encoding: 58 58 20
Width: 510
GlyphClass: 2
Flags: HMW
VStem: 170.355 171.419
LayerCount: 2
Fore
SplineSet
336.774414062 731.366210938 m 0
 339.486328125 694.76171875 341.774414062 661.57421875 341.774414062 656.60546875 c 0
 341.774414062 648.793945312 337.020507812 645.094726562 262.301757812 593.461914062 c 0
 218.536132812 563.213867188 181.657226562 538.434570312 180.35546875 538.391601562 c 0
 179.045898438 538.354492188 177.987304688 539.413085938 178 540.747070312 c 0
 178.005859375 542.0859375 211.061523438 600.416015625 251.45703125 670.368164062 c 0
 291.846679688 740.327148438 325.697265625 798.412109375 326.67578125 799.452148438 c 0
 327.654296875 800.4921875 329.2265625 800.4609375 330.168945312 799.385742188 c 0
 331.110351562 798.30859375 334.083984375 767.69921875 336.774414062 731.366210938 c 0
326.774414062 471.365234375 m 0
 329.486328125 434.760742188 331.774414062 401.573242188 331.774414062 396.604492188 c 0
 331.774414062 388.79296875 327.020507812 385.09375 252.301757812 333.4609375 c 0
 208.536132812 303.212890625 171.657226562 278.43359375 170.35546875 278.390625 c 0
 169.045898438 278.353515625 167.987304688 279.412109375 168 280.74609375 c 0
 168.005859375 282.084960938 201.061523438 340.415039062 241.45703125 410.3671875 c 0
 281.846679688 480.326171875 315.697265625 538.411132812 316.67578125 539.451171875 c 0
 317.654296875 540.491210938 319.2265625 540.459960938 320.168945312 539.384765625 c 0
 321.110351562 538.307617188 324.083984375 507.698242188 326.774414062 471.365234375 c 0
EndSplineSet
Validated: 524289
EndChar

StartChar: semicolon
Encoding: 59 59 21
Width: 510
GlyphClass: 2
Flags: HMW
VStem: 165.355 181.419
LayerCount: 2
Fore
SplineSet
321.774414062 211.366210938 m 0
 324.486328125 174.76171875 326.774414062 141.57421875 326.774414062 136.60546875 c 0
 326.774414062 128.793945312 322.020507812 125.094726562 247.301757812 73.4619140625 c 0
 203.536132812 43.2138671875 166.657226562 18.4345703125 165.35546875 18.3916015625 c 0
 164.045898438 18.3544921875 162.987304688 19.4130859375 163 20.7470703125 c 0
 163.005859375 22.0859375 196.061523438 80.416015625 236.45703125 150.368164062 c 0
 276.846679688 220.327148438 310.697265625 278.412109375 311.67578125 279.452148438 c 0
 312.654296875 280.4921875 314.2265625 280.4609375 315.168945312 279.385742188 c 0
 316.110351562 278.30859375 319.083984375 247.69921875 321.774414062 211.366210938 c 0
341.774414062 731.365234375 m 0
 344.486328125 694.760742188 346.774414062 661.573242188 346.774414062 656.604492188 c 0
 346.774414062 648.79296875 342.020507812 645.09375 267.301757812 593.4609375 c 0
 223.536132812 563.212890625 186.657226562 538.43359375 185.35546875 538.390625 c 0
 184.045898438 538.353515625 182.987304688 539.412109375 183 540.74609375 c 0
 183.005859375 542.084960938 216.061523438 600.415039062 256.45703125 670.3671875 c 0
 296.846679688 740.326171875 330.697265625 798.411132812 331.67578125 799.451171875 c 0
 332.654296875 800.491210938 334.2265625 800.459960938 335.168945312 799.384765625 c 0
 336.110351562 798.307617188 339.083984375 767.698242188 341.774414062 731.365234375 c 0
331.774414062 471.364257812 m 0
 334.486328125 434.759765625 336.774414062 401.572265625 336.774414062 396.603515625 c 0
 336.774414062 388.791992188 332.020507812 385.092773438 257.301757812 333.459960938 c 0
 213.536132812 303.211914062 176.657226562 278.432617188 175.35546875 278.389648438 c 0
 174.045898438 278.352539062 172.987304688 279.411132812 173 280.745117188 c 0
 173.005859375 282.083984375 206.061523438 340.4140625 246.45703125 410.366210938 c 0
 286.846679688 480.325195312 320.697265625 538.41015625 321.67578125 539.450195312 c 0
 322.654296875 540.490234375 324.2265625 540.458984375 325.168945312 539.383789062 c 0
 326.110351562 538.306640625 329.083984375 507.697265625 331.774414062 471.364257812 c 0
EndSplineSet
Validated: 524289
EndChar

StartChar: question
Encoding: 63 63 22
Width: 510
GlyphClass: 2
Flags: HMW
HStem: 924.786 71.3904
VStem: 212.167 66.0938 212.167 79.0391 328.866 113.974
LayerCount: 2
Fore
SplineSet
219.987304688 1.3330078125 m 0xd0
 219.080078125 2.8271484375 215.56640625 90.5234375 212.16796875 196.216796875 c 2
 205.984375 388.387695312 l 1
 344.213867188 719.348632812 l 1
 333.64453125 857.249023438 329.801757812 898.084960938 328.8671875 899.063476562 c 0
 327.923828125 900.04296875 285.272460938 906.71484375 234.081054688 913.89453125 c 0
 188.556640625 920.279296875 149.603515625 924.786132812 140.678710938 924.786132812 c 0
 139.567382812 924.786132812 138.921875 924.715820312 138.787109375 924.571289062 c 0
 137.568359375 923.262695312 133.564453125 910.3984375 129.890625 895.985351562 c 0
 123.252929688 869.953125 123.06640625 869.686523438 102.74609375 857.729492188 c 0
 91.4912109375 851.1015625 81.6513671875 846.083007812 80.869140625 846.573242188 c 0
 80.0947265625 847.0625 76.4912109375 875.149414062 72.861328125 908.993164062 c 0
 69.6416015625 939.065429688 68.0009765625 954.442382812 68.0009765625 962.483398438 c 0
 68.0009765625 970.83984375 69.7734375 971.2734375 73.38671875 972.043945312 c 0
 77.3017578125 972.889648438 134.151367188 979.268554688 199.721679688 986.225585938 c 0
 258.573242188 992.478515625 302.748046875 996.176757812 317.36328125 996.176757812 c 0
 320.383789062 996.176757812 322.141601562 996.018554688 322.505859375 995.692382812 c 0
 324.462890625 993.939453125 352.48828125 972.026367188 384.783203125 947 c 0
 429.16796875 912.602539062 442.840820312 900.248046875 442.840820312 894.383789062 c 0
 442.840820312 889.895507812 439.529296875 850.08203125 436.27734375 804.7578125 c 2
 430.405273438 722.907226562 l 1
 291.206054688 388.387695312 l 1xb0
 281.241210938 142.924804688 278.314453125 64.455078125 278.260742188 55.6474609375 c 0
 278.163085938 40.078125 277.504882812 39.1435546875 254.364257812 21.83984375 c 0
 241.27734375 12.052734375 228.5546875 2.8271484375 226.099609375 1.3330078125 c 0
 223.634765625 -0.162109375 220.885742188 -0.162109375 219.987304688 1.3330078125 c 0xd0
EndSplineSet
Validated: 524289
EndChar

StartChar: at
Encoding: 64 64 23
Width: 510
GlyphClass: 2
Flags: HMW
VStem: 233.372 72.9507 247.507 55.8652
LayerCount: 2
Fore
SplineSet
273.73046875 975.96484375 m 2x40
 288.154296875 990.772460938 301.493164062 1002.08105469 303.372070312 1001.10253906 c 0x40
 305.229492188 1000.140625 306.323242188 933.92578125 306.323242188 660.869140625 c 0
 306.323242188 611.333984375 306.287109375 554.9921875 306.212890625 490.998046875 c 1
 253.58203125 312.67578125 l 2
 224.630859375 214.598632812 199.61328125 130.420898438 197.970703125 125.61328125 c 0
 196.08203125 120.053710938 196.440429688 114.739257812 198.966796875 110.998046875 c 0
 202.026367188 106.469726562 223.3203125 101.950195312 292.096679688 91.2158203125 c 0
 336.215820312 84.3349609375 373.91796875 79.4208984375 381.903320312 79.4208984375 c 0
 382.793945312 79.4208984375 383.314453125 79.482421875 383.43359375 79.6083984375 c 0
 384.630859375 80.8759765625 388.564453125 93.4990234375 392.174804688 107.659179688 c 0
 398.696289062 133.236328125 398.887695312 133.499023438 418.853515625 145.247070312 c 0
 429.911132812 151.758789062 439.579101562 156.689453125 440.338867188 156.208007812 c 0
 441.090820312 155.727539062 444.630859375 128.131835938 448.206054688 94.888671875 c 0
 451.375 65.3349609375 452.989257812 50.23046875 452.989257812 42.3330078125 c 0
 452.989257812 34.130859375 451.248046875 33.701171875 447.69921875 32.9306640625 c 0
 443.853515625 32.099609375 387.99609375 25.7890625 206.431640625 6.435546875 c 1
 97 116.873046875 l 1
 149.916015625 274.252929688 l 1
 149.680664062 274.330078125 149.444335938 274.407226562 149.20703125 274.485351562 c 2
 142.892578125 369.872070312 l 2
 139.430664062 422.337890625 135.951171875 467.200195312 135.16015625 469.5625 c 0
 134.37890625 471.92578125 131.037109375 473.858398438 127.729492188 473.849609375 c 0
 124.421875 473.849609375 108.571289062 465.962890625 92.505859375 456.333007812 c 0
 76.4404296875 446.702148438 61.75 438.591796875 59.859375 438.299804688 c 0
 57.9697265625 438.016601562 56.70703125 440.095703125 57.05859375 442.930664062 c 0
 57.4111328125 445.765625 77.9013671875 553.240234375 147.471679688 915.439453125 c 1
 166.612304688 954.262695312 l 2
 177.471679688 976.272460938 187.299804688 992.18359375 189.309570312 990.998046875 c 0
 191.501953125 989.71875 192.546875 892.547851562 192.546875 689.653320312 c 0
 192.546875 669.138671875 192.536132812 647.54296875 192.514648438 624.856445312 c 0
 192.418945312 526.732421875 192.245117188 453.328125 191.92578125 399.198242188 c 1
 233.372070312 522.467773438 l 1x80
 247.506835938 949.041015625 l 1
 273.73046875 975.96484375 l 2x40
EndSplineSet
Validated: 524321
EndChar

StartChar: A
Encoding: 65 65 24
Width: 510
GlyphClass: 2
Flags: HMW
VStem: 302.257 105.188<2.11914 59.7705> 307.841 82.3535 314.988 56.2637
LayerCount: 2
Fore
SplineSet
211.612304688 954.263671875 m 2x00
 222.471679688 976.2734375 232.299804688 992.184570312 234.309570312 990.999023438 c 0
 236.501953125 989.719726562 237.546875 892.548828125 237.546875 689.654296875 c 0
 237.546875 669.138671875 237.536132812 647.54296875 237.514648438 624.856445312 c 0
 237.232421875 337.243164062 236.290039062 262.010742188 232.931640625 262.010742188 c 0
 230.697265625 262.010742188 220.59765625 265.845703125 194.20703125 274.486328125 c 1
 187.892578125 369.873046875 l 2
 184.430664062 422.338867188 180.951171875 467.201171875 180.16015625 469.563476562 c 0
 179.37890625 471.926757812 176.037109375 473.859375 172.729492188 473.850585938 c 0
 169.421875 473.850585938 153.571289062 465.963867188 137.505859375 456.333984375 c 0
 121.440429688 446.703125 106.75 438.592773438 104.859375 438.30078125 c 0
 102.969726562 438.017578125 101.70703125 440.096679688 102.05859375 442.931640625 c 0
 102.411132812 445.766601562 122.901367188 553.241210938 192.471679688 915.440429688 c 1
 211.612304688 954.263671875 l 2x00
314.98828125 968.03515625 m 0x20
 315.924804688 970.741210938 318.287109375 971.419921875 320.951171875 969.752929688 c 0
 323.381835938 968.232421875 335.701171875 959.254882812 348.34765625 949.8046875 c 0
 367.09765625 935.78515625 371.251953125 930.893554688 371.251953125 923.137695312 c 0x20
 371.251953125 917.141601562 379.760742188 714.899414062 390.194335938 473 c 0x40
 399.80859375 250.131835938 407.4453125 57.2138671875 407.4453125 4.431640625 c 0
 407.4453125 -0.193359375 407.38671875 -3.7421875 407.265625 -6.140625 c 1
 302.256835938 59.7705078125 l 1x80
 302.248046875 95.8525390625 l 2
 302.239257812 115.698242188 304.756835938 319.048828125 307.840820312 547.7421875 c 0x40
 310.924804688 776.436523438 314.137695312 965.569335938 314.98828125 968.03515625 c 0x20
EndSplineSet
EndChar

StartChar: B
Encoding: 66 66 25
Width: 510
GlyphClass: 2
Flags: HMW
VStem: 195.378 94.7485 197.097 89.377 197.551 74.7829
LayerCount: 2
Fore
SplineSet
245.991210938 965.114257812 m 1x80
 300.595703125 998.782226562 l 1
 352.306640625 979.581054688 l 2
 380.745117188 969.028320312 405.595703125 959.001953125 407.525390625 957.317382812 c 0
 409.75390625 955.37890625 406.306640625 949.440429688 398.095703125 941.098632812 c 0
 385.657226562 928.458007812 383.560546875 927.703125 343.709960938 921.694335938 c 0
 320.911132812 918.247070312 301.47265625 914.563476562 300.5078125 913.493164062 c 0
 299.54296875 912.431640625 296.885742188 869.458007812 294.595703125 818.001953125 c 0
 292.233398438 764.696289062 290.125 720.166992188 290.125 712.151367188 c 0x80
 290.125 703.361328125 293.780273438 701.91796875 348.701171875 681.317382812 c 0
 381.051757812 669.176757812 409.419921875 658.125 411.727539062 656.755859375 c 0
 414.736328125 654.966796875 413.245117188 650.1328125 406.463867188 639.659179688 c 0
 398.955078125 628.072265625 393.376953125 623.905273438 379.455078125 619.528320312 c 0
 368.104492188 615.958007812 348.604492188 613.993164062 286.47265625 613.9140625 c 1x40
 284.61328125 577.94921875 l 2
 283.586914062 558.16796875 278.060546875 431.063476562 272.333007812 295.493164062 c 0x20
 266.604492188 159.922851562 261.911132812 46.6328125 261.911132812 43.73828125 c 0
 261.911132812 40.84375 249.280273438 29.001953125 233.841796875 17.4228515625 c 0
 218.673828125 6.046875 208.834960938 0.0615234375 205.392578125 0.0615234375 c 0
 204.717773438 0.0615234375 204.2890625 0.291015625 204.11328125 0.7548828125 c 0
 203.209960938 3.1669921875 178.736328125 100.272460938 149.727539062 216.544921875 c 0
 120.727539062 332.81640625 96.9990234375 428.737304688 96.9990234375 429.702148438 c 0
 96.9990234375 430.666992188 98.578125 431.45703125 100.5078125 431.45703125 c 0
 102.4375 431.45703125 124.54296875 414.877929688 149.630859375 394.615234375 c 0
 174.71875 374.3515625 196.078125 358.166992188 197.095703125 358.649414062 c 0x40
 197.404296875 358.793945312 197.55078125 368.619140625 197.55078125 385.853515625 c 0x20
 197.55078125 425.991210938 196.758789062 506.314453125 195.377929688 598.123046875 c 0
 193.412109375 729.350585938 191.7109375 858.03515625 191.38671875 931.456054688 c 1
 245.991210938 965.114257812 l 1x80
EndSplineSet
Validated: 524321
EndChar

StartChar: C
Encoding: 67 67 26
Width: 510
GlyphClass: 2
Flags: HMW
VStem: 107.613 82.8389 112.979 63.3475 354.538 53.5537
LayerCount: 2
Fore
SplineSet
154.372070312 963.935546875 m 1xa0
 208.745117188 997.357421875 l 1
 260.086914062 978.298828125 l 2
 288.327148438 967.819335938 312.99609375 957.87109375 314.912109375 956.19921875 c 0
 317.125 954.274414062 313.702148438 948.376953125 305.548828125 940.092773438 c 0
 293.196289062 927.540039062 291.114257812 926.791015625 251.541015625 920.82421875 c 0
 228.90234375 917.401367188 209.598632812 913.734375 208.640625 912.6796875 c 0
 207.682617188 911.6171875 199.502929688 728.612304688 190.452148438 505.999023438 c 0xa0
 182.25 304.033203125 176.326171875 134.58203125 176.326171875 103.99609375 c 0
 176.326171875 94.30078125 209.315429688 92.4921875 255.678710938 85.73828125 c 0
 297.838867188 79.5888671875 335.078125 73.900390625 338.431640625 73.0986328125 c 0
 343.048828125 71.9931640625 345.322265625 74.8154296875 347.778320312 84.7021484375 c 0
 349.572265625 91.888671875 352.604492188 104.040039062 354.538085938 111.705078125 c 0
 357.395507812 123.08984375 361.584960938 128.038085938 377.420898438 138.708984375 c 0
 388.075195312 145.895507812 397.969726562 151.783203125 399.408203125 151.783203125 c 0
 400.846679688 151.783203125 404.756835938 124.740234375 408.091796875 91.6787109375 c 0
 410.596679688 66.92578125 412.10546875 45.009765625 412.10546875 35.08203125 c 0
 412.10546875 31.751953125 411.935546875 29.7705078125 411.576171875 29.484375 c 0
 410.15625 28.3427734375 361.166992188 22.349609375 302.717773438 16.173828125 c 0
 244.267578125 9.9892578125 190.173828125 4.109375 168.571289062 1.2353515625 c 1
 141.541015625 35.564453125 l 2
 117.551757812 66.025390625 114.337890625 71.853515625 112.978515625 87.3154296875 c 0x60
 112.133789062 96.896484375 109.720703125 225.46875 107.61328125 373.029296875 c 0
 105.504882812 520.58984375 102.935546875 706.391601562 100 930.520507812 c 1
 154.372070312 963.935546875 l 1xa0
EndSplineSet
Validated: 524289
EndChar

StartChar: D
Encoding: 68 68 27
Width: 510
GlyphClass: 2
Flags: HMW
VStem: 69 106.64 83.958 80.9746<507 507> 101.984 54.2158 227.413 105.666 232.045 82.9307 237.967 59.6035 354.062 59.2764
LayerCount: 2
Fore
SplineSet
281.958007812 953.62109375 m 2x12
 333.596679688 986.026367188 l 1
 349.200195312 980.12109375 l 2
 357.786132812 976.87109375 381.096679688 968.310546875 401.018554688 961.0859375 c 0
 420.932617188 953.87109375 438.518554688 947.069335938 440.096679688 945.982421875 c 0
 441.682617188 944.887695312 436.251953125 937.569335938 428.02734375 929.715820312 c 0
 413.415039062 915.75 412.200195312 915.310546875 373.423828125 909.776367188 c 0
 351.61328125 906.6640625 333.458007812 903.776367188 333.079101562 903.37109375 c 0x12
 332.700195312 902.95703125 324.553710938 718.741210938 314.975585938 494 c 0x0a
 305.40625 269.258789062 297.5703125 83.439453125 297.5703125 81.0693359375 c 0
 297.561523438 78.3447265625 306.1484375 75.62890625 320.837890625 73.689453125 c 0
 333.639648438 72 345.079101562 71.6123046875 346.259765625 72.828125 c 0
 347.44140625 74.04296875 350.950195312 85.896484375 354.061523438 99.1728515625 c 0
 359.700195312 123.25 359.768554688 123.344726562 382.087890625 137.965820312 c 0
 394.3984375 146.026367188 406.018554688 152.62109375 407.915039062 152.62109375 c 0
 409.85546875 152.62109375 412.225585938 137.215820312 413.337890625 117.276367188 c 0
 413.899414062 107.321289062 414.274414062 95.037109375 414.274414062 79.677734375 c 0
 414.274414062 65.044921875 413.93359375 47.62109375 413.087890625 26.7587890625 c 1
 144.11328125 -12.2587890625 l 1
 107.90625 20.6982421875 l 2
 85.2421875 41.3232421875 69 51.830078125 69 60.7041015625 c 0x86
 69 93.3447265625 75.294921875 282.274414062 83.9580078125 507.79296875 c 0x42
 93.466796875 755.29296875 101.579101562 958.25 101.984375 958.801757812 c 0
 102.3984375 959.362304688 114.759765625 950.439453125 129.458007812 938.974609375 c 0
 144.15625 927.517578125 156.19140625 917.75 156.200195312 917.276367188 c 0x22
 156.216796875 916.801757812 160.139648438 732.534179688 164.932617188 507.79296875 c 0x42
 169.716796875 283.051757812 174.536132812 98.396484375 175.639648438 97.4482421875 c 0
 176.743164062 96.5 191.053710938 93.7841796875 207.432617188 91.4228515625 c 0
 223.811523438 89.0517578125 237.553710938 87.5 237.966796875 87.974609375 c 0x86
 238.372070312 88.439453125 235.708007812 275.034179688 232.044921875 502.62109375 c 0x0a
 229.189453125 679.997070312 227.413085938 832.892578125 227.413085938 892.3515625 c 0
 227.413085938 909.182617188 227.555664062 918.526367188 227.85546875 918.819335938 c 0
 229.208007812 920.137695312 253.553710938 935.801757812 281.958007812 953.62109375 c 2x12
EndSplineSet
Validated: 524321
EndChar

StartChar: E
Encoding: 69 69 28
Width: 510
GlyphClass: 2
Flags: HMW
HStem: 913.201 82
VStem: 206.505 108.882 215.563 81.1875 220.897 57.6396
LayerCount: 2
Fore
SplineSet
259.322265625 961.5546875 m 0xc0
 288.349609375 979.876953125 314.5390625 995.201171875 317.51171875 995.201171875 c 0
 320.817382812 995.201171875 345.950195312 986.787109375 373.767578125 976.37890625 c 0
 401.848632812 965.859375 425.24609375 955.920898438 425.756835938 954.30078125 c 0
 426.276367188 952.681640625 420.73046875 945.5859375 413.432617188 938.543945312 c 0
 400.756835938 926.30859375 398.30078125 925.471679688 357.913085938 919.758789062 c 0
 334.673828125 916.466796875 315.537109375 913.517578125 315.38671875 913.201171875 c 0xc0
 315.237304688 912.883789062 306.848632812 716.140625 296.750976562 476 c 0xa0
 286.69921875 237.135742188 278.537109375 40.294921875 278.537109375 36.779296875 c 0
 278.537109375 35.2333984375 266.096679688 24.6552734375 250.518554688 12.9716796875 c 0
 235.568359375 1.7607421875 225.426757812 -4.4033203125 222.060546875 -4.4033203125 c 0
 221.43359375 -4.4033203125 221.041015625 -4.189453125 220.897460938 -3.75390625 c 0x90
 220.10546875 -1.3330078125 217.702148438 136.915039062 215.563476562 303.46484375 c 0xa0
 213.423828125 470.013671875 210.509765625 656.58984375 206.504882812 829.890625 c 1
 174.814453125 829.846679688 l 2
 152.19140625 829.8203125 137.077148438 831.853515625 121.998046875 836.951171875 c 0
 105.6953125 842.4609375 99.0576171875 846.888671875 92.9482421875 856.352539062 c 0
 88.59375 863.08203125 85 869.796875 85 871.247070312 c 0
 85 872.706054688 112.686523438 884.190429688 146.540039062 896.774414062 c 0
 183.11328125 910.366210938 207.321289062 921.161132812 207.321289062 923.85546875 c 0
 207.321289062 926.465820312 229.911132812 942.981445312 259.322265625 961.5546875 c 0xc0
EndSplineSet
Validated: 524321
EndChar

StartChar: F
Encoding: 70 70 29
Width: 510
GlyphClass: 2
Flags: HMW
HStem: 913.317 88.6611
VStem: 117.009 111.462 145.661 57.4199
LayerCount: 2
Fore
SplineSet
157.318359375 965.631835938 m 2xc0
 179.490234375 985.578125 198.826171875 1001.93457031 200.288085938 1001.97851562 c 0
 201.750976562 1002.01464844 259.99609375 993.247070312 329.73046875 982.493164062 c 0
 399.455078125 971.73046875 461.290039062 961.952148438 477.779296875 958.57421875 c 1
 474.916015625 896.092773438 l 2
 473.337890625 861.73046875 470.944335938 832.404296875 469.596679688 830.923828125 c 0
 469.469726562 830.786132812 469.24609375 830.711914062 468.915039062 830.711914062 c 0
 465.708007812 830.711914062 452.362304688 837.583984375 417.49609375 859.612304688 c 1
 411.290039062 886.508789062 l 2
 406.450195312 907.466796875 403.7109375 913.379882812 398.87890625 913.317382812 c 0
 395.465820312 913.2734375 355.970703125 907.6796875 311.104492188 900.888671875 c 0
 266.24609375 894.09765625 229.065429688 888.149414062 228.470703125 887.669921875 c 0xc0
 227.876953125 887.19140625 221.955078125 703.291015625 215.306640625 479 c 0
 208.657226562 254.708984375 203.161132812 65.21484375 203.081054688 57.900390625 c 0
 202.95703125 45.560546875 200.970703125 43.078125 175.465820312 23.3525390625 c 0
 158.911132812 10.546875 152.26171875 5.5888671875 149.049804688 5.5888671875 c 0
 147.181640625 5.5888671875 146.4765625 7.2666015625 145.661132812 10.0546875 c 0xa0
 144.384765625 14.42578125 141.538085938 92.208984375 135.315429688 347.794921875 c 1
 83.568359375 555.241210938 l 2
 55.8505859375 666.337890625 34 760.413085938 34 768.43359375 c 0
 34 769.627929688 34.861328125 770.358398438 35.93359375 770.358398438 c 0
 40.9619140625 770.358398438 58.333984375 757.255859375 126.11328125 702.404296875 c 1
 123.887695312 720.134765625 l 2
 122.655273438 729.88671875 120.616210938 780.950195312 117.008789062 929.354492188 c 1
 157.318359375 965.631835938 l 2xc0
EndSplineSet
Validated: 524321
EndChar

StartChar: G
Encoding: 71 71 30
Width: 510
GlyphClass: 2
Flags: HMW
HStem: 5.34375 95.7441
VStem: 239.562 70.3506<481.895 524> 239.729 57.6572
LayerCount: 2
Fore
SplineSet
239.728515625 742.543945312 m 2xa0
 239.875976562 971.588867188 240.234375 1000.12597656 244.87890625 1000.12597656 c 0
 245.178710938 1000.12597656 245.49609375 1000.00683594 245.833007812 999.815429688 c 0
 249.10546875 997.956054688 262.03515625 986 297.385742188 950.079101562 c 1xa0
 309.912109375 524 l 1
 446.359375 113.473632812 l 1
 396.623046875 62.5966796875 l 2
 369.272460938 34.6142578125 345.228515625 9.6669921875 343.193359375 7.158203125 c 0
 342.244140625 5.9873046875 339.254882812 5.34375 332.469726562 5.34375 c 0
 317.743164062 5.34375 285.134765625 8.376953125 216.684570312 15.6494140625 c 0
 149.140625 22.82421875 92.8251953125 29.6142578125 91.53515625 30.736328125 c 0
 90.24609375 31.8505859375 92.1669921875 59.6142578125 95.7900390625 92.4208984375 c 0
 99.412109375 125.227539062 103.228515625 152.46484375 104.272460938 152.947265625 c 0
 105.307617188 153.4296875 115.149414062 147.903320312 126.131835938 140.666992188 c 0
 145.728515625 127.762695312 146.237304688 127.008789062 152.728515625 101.193359375 c 0
 156.359375 86.71875 159.614257812 74.587890625 159.938476562 74.236328125 c 0
 160.272460938 73.876953125 200.017578125 79.75390625 248.263671875 87.2890625 c 0
 296.508789062 94.82421875 337.17578125 101.03515625 338.623046875 101.087890625 c 0
 339.686523438 101.1328125 345.12109375 105.760742188 345.12109375 110.419921875 c 0
 345.12109375 122.396484375 328.515625 181.84375 239.561523438 481.89453125 c 1xc0
 239.728515625 742.543945312 l 2xa0
65.8076171875 494.17578125 m 0
 66.7724609375 494.17578125 94.5703125 473.25390625 127.587890625 447.684570312 c 0
 178.287109375 408.416015625 186.197265625 401.872070312 186.197265625 393.934570312 c 0
 186.197265625 392.895507812 186.061523438 391.831054688 185.868164062 390.666992188 c 0
 184.903320312 384.876953125 178.81640625 340.262695312 172.333007812 291.517578125 c 0
 165.850585938 242.780273438 159.140625 203.306640625 157.420898438 203.797851562 c 0
 155.702148438 204.297851562 133.973632812 268.649414062 109.123046875 346.806640625 c 0
 84.2978515625 424.9140625 64 490.01171875 64 491.541015625 c 0
 64 492.989257812 64.8603515625 494.17578125 65.8076171875 494.17578125 c 0
EndSplineSet
Validated: 524321
EndChar

StartChar: H
Encoding: 72 72 31
Width: 510
GlyphClass: 2
Flags: HMW
HStem: 913.778 82.0264
VStem: 76 108.803 83.333 82.8604 90.375 57.6842 352.32 69.6836 352.417 82.1396 365.164 43.1338
LayerCount: 2
Fore
SplineSet
128.817382812 962.483398438 m 2xc0
 157.846679688 980.650390625 184.03125 995.805664062 186.995117188 995.805664062 c 0
 190.259765625 995.805664062 215.416015625 987.375976562 243.252929688 976.95703125 c 0
 271.333984375 966.4375 294.740234375 956.499023438 295.250976562 954.87890625 c 0
 295.770507812 953.259765625 290.224609375 946.1640625 282.926757812 939.122070312 c 0
 270.250976562 926.88671875 267.794921875 926.049804688 227.407226562 920.336914062 c 0
 204.16796875 917.044921875 184.995117188 914.095703125 184.801757812 913.779296875 c 0xc0
 184.599609375 913.461914062 176.227539062 719.095703125 166.192382812 481.859375 c 0xa0
 156.186523438 245.513671875 148.05859375 48.4404296875 148.05859375 42.6572265625 c 0
 148.05859375 36.6767578125 140.946289062 29.2470703125 120.013671875 13.5498046875 c 0
 105.0390625 2.318359375 94.9208984375 -3.8310546875 91.5478515625 -3.8310546875 c 0
 90.916015625 -3.8310546875 90.5205078125 -3.615234375 90.375 -3.1767578125 c 0x90
 89.5654296875 -0.755859375 86.396484375 186.612304688 83.3330078125 413.197265625 c 0xa0
 80.26953125 639.78125 77.373046875 848.627929688 76 929.438476562 c 1
 128.817382812 962.483398438 l 2xc0
202.743164062 711.939453125 m 0
 201.607421875 716.12890625 202.619140625 717.994140625 205.59375 717.219726562 c 0
 208.12890625 716.559570312 235.805664062 696.20703125 267.099609375 672 c 0
 306.306640625 641.665039062 324.142578125 625.8125 324.142578125 620.85546875 c 0
 324.142578125 616.44140625 318.662109375 572.34765625 311.879882812 522.352539062 c 0
 305.057617188 472.000976562 298.702148438 430.01171875 297.76953125 429.04296875 c 0
 296.8359375 428.07421875 294.890625 428.6640625 293.438476562 430.354492188 c 0
 291.986328125 432.044921875 271.37890625 494.6328125 247.646484375 569.439453125 c 0
 223.922851562 644.245117188 203.7109375 708.374023438 202.743164062 711.939453125 c 0
365.163085938 703.689453125 m 0x82
 365.366210938 704.359375 365.743164062 704.76171875 366.428710938 704.76171875 c 0
 369.568359375 704.76171875 379.185546875 696.334960938 408.296875 666.717773438 c 1x82
 422.002929688 339.252929688 l 2x88
 429.538085938 159.147460938 435.189453125 10.599609375 434.555664062 9.1474609375 c 0
 433.921875 7.6953125 415.180664062 21.5595703125 352.416015625 73.408203125 c 1x84
 352.319335938 109.5 l 2x88
 352.275390625 129.349609375 354.784179688 269.974609375 357.900390625 422 c 0
 361.016601562 574.024414062 364.291015625 700.78515625 365.163085938 703.689453125 c 0x82
EndSplineSet
Validated: 524321
EndChar

StartChar: I
Encoding: 73 73 32
Width: 510
GlyphClass: 2
Flags: HMW
VStem: 239.763 108.166 242.622 91.8945 246.78 60.7627
LayerCount: 2
Fore
SplineSet
290.6484375 962.684570312 m 2x80
 318.630859375 980.473632812 343.280273438 995.166992188 345.4375 995.325195312 c 0
 348.11328125 995.526367188 348.90234375 987.026367188 347.928710938 968.420898438 c 0x80
 347.1484375 953.46484375 341.11328125 810.17578125 334.516601562 650 c 0x40
 327.928710938 489.825195312 321.6484375 346.140625 318.604492188 302.631835938 c 1
 340.586914062 296.114257812 l 2
 352.68359375 292.526367188 374.815429688 285.81640625 389.771484375 281.202148438 c 0
 413.54296875 273.860351562 418.174804688 271.03515625 426.61328125 258.719726562 c 0
 431.919921875 250.973632812 434.919921875 243.473632812 433.280273438 242.052734375 c 0
 431.639648438 240.631835938 404.797851562 230 316.963867188 197.368164062 c 1
 314.384765625 160.526367188 l 2
 312.963867188 140.263671875 310.849609375 103.947265625 307.54296875 35.96484375 c 1
 281.2890625 16.6669921875 l 2
 266.849609375 6.052734375 253.97265625 -2.6318359375 252.666015625 -2.6318359375 c 0
 251.358398438 -2.6318359375 249.499023438 28.2900390625 246.780273438 134.790039062 c 1x20
 162.569335938 73.74609375 l 2
 117.5859375 41.1318359375 79.6005859375 15.494140625 76.337890625 15.494140625 c 0
 74.4912109375 15.494140625 79.947265625 39.3203125 99.4111328125 106.860351562 c 1
 245.481445312 274.561523438 l 1
 242.622070312 490.3515625 l 2x40
 241.051757812 609.03515625 239.762695312 756.587890625 239.762695312 930.333984375 c 1
 290.6484375 962.684570312 l 2x80
EndSplineSet
Validated: 524321
EndChar

StartChar: J
Encoding: 74 74 33
Width: 510
GlyphClass: 2
Flags: HMW
HStem: 917.912 82.0693
VStem: 193 111.004 202.542 82.8965 207.648 59.9447
LayerCount: 2
Fore
SplineSet
246.978515625 965.587890625 m 2xc0
 276.661132812 984.393554688 303.354492188 999.981445312 306.303710938 999.981445312 c 0
 309.463867188 999.981445312 334.676757812 991.5 362.5859375 981.0546875 c 0
 390.666992188 970.53515625 414.065429688 960.596679688 414.584960938 958.9765625 c 0
 415.094726562 957.357421875 409.549804688 950.340820312 402.260742188 943.38671875 c 0
 389.672851562 931.388671875 386.8203125 930.4296875 346.741210938 924.627929688 c 0
 323.501953125 921.274414062 304.267578125 918.24609375 304.00390625 917.912109375 c 0xc0
 303.739257812 917.568359375 295.385742188 726.362304688 285.438476562 493 c 0xa0
 275.572265625 261.52734375 267.59375 65.5654296875 267.59375 54.8447265625 c 0
 267.59375 40.9921875 266.958984375 39.873046875 241.265625 20.2880859375 c 0
 226.653320312 9.1533203125 213.10546875 0.0419921875 211.168945312 0.0419921875 c 0
 209.047851562 0.0419921875 207.6484375 15.0068359375 207.6484375 37.89453125 c 0x90
 207.6484375 58.712890625 205.350585938 231.028320312 202.541992188 420.81640625 c 0xa0
 199.734375 610.60546875 196.442382812 803.123046875 193 931.379882812 c 1
 246.978515625 965.587890625 l 2xc0
EndSplineSet
EndChar

StartChar: K
Encoding: 75 75 34
Width: 510
GlyphClass: 2
Flags: HMW
HStem: 774.689 20G 920.236 81.9917
VStem: 213.447 110.079 219.935 91.9717
LayerCount: 2
Fore
SplineSet
266.87109375 969.047851562 m 2xe0
 296.225585938 987.116210938 322.686523438 1002.23046875 325.658203125 1002.23046875 c 0
 328.96484375 1002.23046875 354.09765625 993.82421875 381.905273438 983.416015625 c 0
 409.986328125 972.896484375 433.384765625 962.958007812 433.904296875 961.337890625 c 0
 434.422851562 959.71875 428.877929688 952.623046875 421.580078125 945.581054688 c 0
 408.904296875 933.345703125 406.439453125 932.508789062 366.060546875 926.795898438 c 0
 342.821289062 923.50390625 323.674804688 920.5546875 323.525390625 920.23828125 c 0xe0
 323.3671875 919.920898438 318.137695312 796.065429688 311.905273438 645.008789062 c 0
 305.6640625 493.952148438 301.04296875 370.026367188 301.624023438 369.622070312 c 0
 302.205078125 369.216796875 324.86328125 387.006835938 351.9765625 409.155273438 c 0
 379.088867188 431.311523438 402.459960938 449.462890625 403.913085938 449.506835938 c 0
 405.365234375 449.55078125 406.553710938 448.001953125 406.553710938 446.065429688 c 0
 406.553710938 444.12890625 380.330078125 355 348.288085938 248.001953125 c 0
 316.236328125 141.00390625 289.299804688 50.6865234375 288.428710938 47.2978515625 c 0
 287.547851562 43.908203125 274.159179688 31.62890625 258.666015625 20.0087890625 c 0
 243.333007812 8.51171875 233.569335938 2.5673828125 230.080078125 2.5673828125 c 0
 229.3828125 2.5673828125 228.936523438 2.8046875 228.74609375 3.2822265625 c 0
 227.787109375 5.703125 226.598632812 52.0498046875 225.216796875 204.8671875 c 1
 174.151367188 206.944335938 l 2
 144.344726562 208.159179688 117.399414062 211.090820312 109.397460938 213.987304688 c 0
 100.638671875 217.165039062 92.14453125 224.03125 76 247.12109375 c 1
 140.040039062 271.196289062 l 2
 175.26953125 284.435546875 208.482421875 296.319335938 223.614257812 299.9375 c 1
 223.456054688 368.599609375 l 1
 182.07421875 368.564453125 l 1
 181.564453125 368.564453125 l 2
 150.069335938 368.564453125 135.547851562 370.1953125 118.693359375 375.606445312 c 0
 100.612304688 381.424804688 94.9609375 385.209960938 87.00390625 396.821289062 c 0
 81.677734375 404.594726562 78.1123046875 411.63671875 79.0810546875 412.47265625 c 0
 80.048828125 413.299804688 105.401367188 423.397460938 135.418945312 434.911132812 c 0
 165.436523438 446.416015625 196.73046875 457.595703125 219.934570312 463.669921875 c 1xd0
 219.802734375 567.54296875 l 1
 105.489257812 699.198242188 l 1
 92.2236328125 746.046875 l 2
 85.09765625 771.205078125 79.4619140625 794.690429688 80.7490234375 794.690429688 c 0
 82.9091796875 794.690429688 110.936523438 775.225585938 144.125 750.641601562 c 0
 178.12109375 725.465820312 208.684570312 702.95703125 212.056640625 700.615234375 c 0
 212.616210938 700.225585938 213.124023438 699.932617188 213.580078125 699.932617188 c 0
 215.66015625 699.932617188 216.666015625 706.032226562 216.666015625 736.909179688 c 0
 216.666015625 769.173828125 215.567382812 828.493164062 213.447265625 936.177734375 c 1
 266.87109375 969.047851562 l 2xe0
EndSplineSet
Validated: 524321
EndChar

StartChar: L
Encoding: 76 76 35
Width: 510
GlyphClass: 2
Flags: HMW
VStem: 193.823 111.023<8.42578 64.8076> 210.76 87.7627<418.693 447.316> 219.398 74.1416<677.372 725.711>
LayerCount: 2
Fore
SplineSet
250.934570312 31.3603515625 m 2x80
 221.286132812 12.96484375 195.85546875 -0.96484375 194.434570312 0.412109375 c 0
 194.05078125 0.78125 193.823242188 4.3837890625 193.823242188 12.4677734375 c 0x80
 193.823242188 34.33203125 195.48828125 88.982421875 200.233398438 201.149414062 c 1
 161.63671875 201.193359375 l 2
 134.750976562 201.228515625 117.259765625 203.087890625 103.987304688 207.333984375 c 0
 89.20703125 212.061523438 82.6982421875 216.5703125 74.943359375 227.46484375 c 0
 69.443359375 235.184570312 64.978515625 242.290039062 65.0224609375 243.254882812 c 0
 65.06640625 244.219726562 94.7158203125 255.860351562 130.908203125 269.114257812 c 0
 167.110351562 282.377929688 198.698242188 293.825195312 201.110351562 294.552734375 c 0
 204.145507812 295.473632812 205.49609375 304.552734375 205.49609375 352.026367188 c 1
 162.513671875 352.298828125 l 2
 131.127929688 352.5 114.803710938 354.228515625 101.987304688 358.728515625 c 0
 89.0927734375 363.24609375 81.654296875 368.737304688 73.9169921875 379.447265625 c 0
 68.1279296875 387.46484375 64.1806640625 394.561523438 65.1455078125 395.228515625 c 0
 66.1103515625 395.88671875 92.9521484375 406.061523438 124.794921875 417.842773438 c 0
 156.63671875 429.614257812 189.004882812 441.061523438 210.759765625 447.31640625 c 1x40
 215.680664062 567.219726562 l 2
 217.922851562 621.959960938 219.3984375 669.530273438 219.3984375 685.213867188 c 0
 219.3984375 688.421875 219.336914062 690.294921875 219.20703125 690.623046875 c 0
 218.443359375 692.552734375 195.180664062 702.81640625 167.522460938 713.4296875 c 0
 119.689453125 731.78125 116.759765625 733.46484375 107.846679688 747.74609375 c 0
 102.698242188 756.008789062 99.2685546875 763.46484375 100.233398438 764.31640625 c 0
 101.198242188 765.158203125 127.250976562 773.123046875 158.127929688 782.008789062 c 0
 189.004882812 790.89453125 216.864257812 800.026367188 220.03125 802.290039062 c 0
 224.829101562 805.728515625 226.416992188 818.869140625 229.619140625 881.8515625 c 0
 232.952148438 947.491210938 234.250976562 957.81640625 239.645507812 961.369140625 c 0
 243.057617188 963.60546875 255.329101562 972.587890625 287.9609375 997.184570312 c 1
 290.6015625 928.114257812 l 2
 292.057617188 890.123046875 293.63671875 858.623046875 294.110351562 858.114257812 c 0
 294.583984375 857.596679688 333.663085938 881.114257812 380.943359375 910.377929688 c 0
 428.224609375 939.631835938 468.881835938 964.131835938 471.294921875 964.81640625 c 0
 473.70703125 965.5 475.680664062 964.482421875 475.680664062 962.552734375 c 0
 475.680664062 960.623046875 468.627929688 939.702148438 444.337890625 873.079101562 c 1
 293.540039062 725.7109375 l 1x20
 298.522460938 418.693359375 l 2x40
 301.259765625 249.833984375 303.803710938 101.131835938 304.846679688 64.8076171875 c 1
 250.934570312 31.3603515625 l 2x80
EndSplineSet
EndChar

StartChar: M
Encoding: 77 77 36
Width: 510
GlyphClass: 2
Flags: HMW
HStem: 0.805664 80.5889<287.711 308.413> 916.745 81.6338
VStem: 199.082 107.517 204.012 84.1748 213.607 56.9307
LayerCount: 2
Fore
SplineSet
254.642578125 967.973632812 m 0xe0
 292.545898438 991.694335938 304.4453125 998.37890625 311.8046875 998.37890625 c 0
 313.353515625 998.37890625 314.700195312 998.083007812 316.046875 997.587890625 c 0
 320.923828125 995.797851562 343.862304688 987.236328125 367.020507812 978.5703125 c 0
 390.177734375 969.903320312 411.107421875 961.75390625 413.529296875 960.46484375 c 0
 416.555664062 958.859375 413.248046875 953.561523438 403.002929688 943.614257812 c 0
 388.388671875 929.412109375 387.212890625 928.973632812 347.721679688 923.2890625 c 0
 325.529296875 920.087890625 307.020507812 917.140625 306.598632812 916.745117188 c 0xe0
 306.168945312 916.341796875 297.888671875 732.859375 288.186523438 509 c 0xd0
 278.485351562 285.140625 270.546875 96.8505859375 270.538085938 90.5791015625 c 0
 270.529296875 79.39453125 270.774414062 79.2109375 283.686523438 81.1318359375 c 0
 284.880859375 81.3095703125 286.618164062 81.39453125 288.8046875 81.39453125 c 0
 299.875976562 81.39453125 322.45703125 79.21875 344.212890625 75.9296875 c 0
 390.51171875 68.9208984375 391.879882812 68.46484375 404.739257812 55.5439453125 c 0
 411.967773438 48.2802734375 416.704101562 41.2197265625 415.265625 39.8505859375 c 0
 413.818359375 38.4912109375 389.344726562 28.623046875 360.879882812 17.9208984375 c 0
 334.635742188 8.0615234375 311.11328125 0.8056640625 305.711914062 0.8056640625 c 0
 305.254882812 0.8056640625 304.927734375 0.8583984375 304.739257812 0.96484375 c 0
 302.327148438 2.341796875 281.40625 16.7890625 258.248046875 33.0791015625 c 0
 235.08984375 49.3681640625 215.002929688 63.640625 213.607421875 64.7978515625 c 0xc8
 212.212890625 65.947265625 207.897460938 261.10546875 204.01171875 498.473632812 c 0xd0
 200.977539062 684.198242188 199.08203125 844.1953125 199.08203125 905.6875 c 0
 199.08203125 922.786132812 199.228515625 932.268554688 199.538085938 932.5703125 c 0
 200.950195312 933.956054688 225.748046875 949.885742188 254.642578125 967.973632812 c 0xe0
41.248046875 719.903320312 m 0
 43.8359375 718.727539062 70.677734375 698.4296875 100.888671875 674.7890625 c 0
 131.08984375 651.149414062 156.318359375 630.227539062 156.932617188 628.297851562 c 0
 156.965820312 628.1953125 156.982421875 627.974609375 156.982421875 627.637695312 c 0
 156.982421875 621.62109375 151.797851562 578.916992188 144.994140625 529.043945312 c 0
 137.809570312 476.376953125 130.353515625 433.271484375 128.423828125 433.245117188 c 0
 126.494140625 433.219726562 104.791992188 496.833007812 80.1953125 574.60546875 c 0
 55.7763671875 651.825195312 36 716.430664062 36 718.98046875 c 0
 36 720.7421875 38.81640625 720.99609375 41.248046875 719.903320312 c 0
EndSplineSet
EndChar

StartChar: N
Encoding: 78 78 37
Width: 510
GlyphClass: 2
Flags: HMW
HStem: 917.673 82.0693
VStem: 224.954 110.484 234.021 82.8516 241.02 57.7988
LayerCount: 2
Fore
SplineSet
278.651367188 966.228515625 m 2xc0
 308.17578125 984.55078125 334.737304688 999.7421875 337.686523438 999.7421875 c 0
 340.845703125 999.7421875 366.059570312 991.260742188 393.96875 980.815429688 c 0
 422.049804688 970.295898438 445.447265625 960.357421875 445.966796875 958.737304688 c 0
 446.486328125 957.118164062 440.940429688 950.1015625 433.642578125 943.147460938 c 0
 421.063476562 931.149414062 418.202148438 930.190429688 378.123046875 924.388671875 c 0
 354.883789062 921.03515625 335.67578125 918.006835938 335.438476562 917.672851562 c 0xc0
 335.192382812 917.329101562 326.837890625 725.331054688 316.873046875 491 c 0xa0
 306.926757812 257.299804688 298.818359375 60.06640625 298.818359375 51.8017578125 c 0
 298.818359375 39.2646484375 297.311523438 37.3515625 270.728515625 17.408203125 c 0
 255.6640625 6.1083984375 245.6328125 0.0146484375 242.23046875 0.0146484375 c 0
 241.583007812 0.0146484375 241.17578125 0.2353515625 241.01953125 0.6826171875 c 0x90
 240.174804688 3.103515625 237.0234375 192.056640625 234.021484375 420.577148438 c 0xa0
 231.010742188 649.098632812 227.736328125 857.857421875 224.954101562 932.901367188 c 1
 278.651367188 966.228515625 l 2xc0
63 720.75390625 m 0
 62.9912109375 721.237304688 64.55859375 721.633789062 66.4951171875 721.633789062 c 0
 68.431640625 721.633789062 95.7646484375 701.58984375 127.243164062 677.100585938 c 0
 158.712890625 652.610351562 185.25390625 631.90625 186.221679688 631.096679688 c 0
 187.190429688 630.287109375 182.745117188 590.506835938 176.353515625 542.708007812 c 0
 169.954101562 494.899414062 163.616210938 450.594726562 162.260742188 444.248046875 c 0
 160.9140625 437.901367188 158.475585938 433.147460938 156.85546875 433.684570312 c 0
 155.227539062 434.221679688 133.44921875 498.833984375 108.458007812 577.267578125 c 0
 83.466796875 655.700195312 63.0087890625 720.26953125 63 720.75390625 c 0
EndSplineSet
Validated: 524321
EndChar

StartChar: O
Encoding: 79 79 38
Width: 510
GlyphClass: 2
Flags: HMW
VStem: 134.674 43.7109<966.671 981.227> 253.731 107.093 259.657 87.7959 274.831 58.4756<908.056 948.875>
LayerCount: 2
Fore
SplineSet
274.831054688 948.875 m 2x90
 277.287109375 996.670898438 l 1
 331.3984375 953.352539062 l 1
 333.306640625 908.055664062 l 2x90
 334.360351562 883.143554688 340.728515625 688.717773438 347.453125 476 c 0xa0
 354.186523438 263.282226562 360.197265625 87.6728515625 360.82421875 85.7568359375 c 0
 361.451171875 83.83984375 380.59765625 79.4326171875 403.3671875 75.95703125 c 0
 442.810546875 69.9462890625 445.40625 69.03125 457.90625 56.79296875 c 0
 465.118164062 49.728515625 471.041992188 43.16015625 471.068359375 42.2021484375 c 0
 471.09375 41.244140625 446.373046875 31.3486328125 361.155273438 -0.044921875 c 1
 310.6328125 32.0107421875 l 2
 282.844726562 49.650390625 258.280273438 65.8173828125 256.05078125 67.951171875 c 0
 254.504882812 69.423828125 253.731445312 78.958984375 253.731445312 101.775390625 c 0xc0
 253.731445312 124.590820312 254.504882812 160.686523438 256.05078125 215.27734375 c 0
 257.478515625 265.799804688 258.259765625 310.811523438 258.259765625 336.9453125 c 0
 258.259765625 351.625976562 258.013671875 360.349609375 257.49609375 360.748046875 c 0
 256.059570312 361.853515625 247.435546875 360.390625 238.333007812 357.490234375 c 0
 229.344726562 354.633789062 212.416992188 352.305664062 179.498046875 352.305664062 c 0
 179.078125 352.305664062 178.654296875 352.305664062 178.228515625 352.306640625 c 1
 178.228515625 296.557617188 l 2
 178.228515625 261.71484375 176.921875 240.80859375 174.744140625 240.80859375 c 0
 172.827148438 240.80859375 162.827148438 257.6640625 133.802734375 315.721679688 c 1
 87.9150390625 552.655273438 l 2
 62.6796875 682.96875 41.3115234375 792.333007812 40.4404296875 795.686523438 c 0
 39.5791015625 799.002929688 40.009765625 801.90625 41.4755859375 801.90625 c 0
 43.009765625 801.90625 59.033203125 793.32421875 77.173828125 782.77734375 c 0
 95.388671875 772.193359375 112.244140625 763.517578125 114.639648438 763.491210938 c 0
 117.03515625 763.474609375 119.700195312 766.984375 120.571289062 771.296875 c 0
 121.43359375 775.608398438 124.961914062 821.331054688 134.673828125 966.670898438 c 1
 145.998046875 971.33984375 l 2
 152.2265625 973.901367188 162.060546875 977.176757812 178.384765625 981.2265625 c 1
 178.02734375 437.672851562 l 1
 218.219726562 421.993164062 l 2
 240.327148438 413.370117188 258.96875 407.09765625 259.657226562 408.055664062 c 0xa0
 260.3359375 409.014648438 263.48046875 520.337890625 266.633789062 655.442382812 c 0
 269.787109375 790.547851562 273.48046875 922.594726562 274.831054688 948.875 c 2x90
EndSplineSet
Validated: 524321
EndChar

StartChar: P
Encoding: 80 80 39
Width: 510
GlyphClass: 2
Flags: HMW
HStem: 1.41113 72.8623
VStem: 51 134.305<384.276 388.458> 142.771 41.4111 250.706 83.5625 259.513 57.1865<931.669 984.091>
LayerCount: 2
Fore
SplineSet
259.512695312 984.090820312 m 2x88
 259.84375 995.571289062 l 1
 315.017578125 953.446289062 l 1
 316.69921875 931.668945312 l 2x88
 317.622070312 919.69140625 325.532226562 724.090820312 334.268554688 497 c 0
 343.014648438 269.909179688 351.272460938 83.158203125 352.622070312 82.0087890625 c 0
 353.981445312 80.8505859375 373.119140625 77.3662109375 395.157226562 74.2734375 c 0
 433.841796875 68.8291015625 435.6796875 68.1845703125 448.29296875 55.466796875 c 0
 455.479492188 48.2197265625 460.18359375 41.189453125 458.74609375 39.8310546875 c 0
 457.30859375 38.48046875 433.005859375 28.681640625 404.739257812 18.0537109375 c 0
 372.086914062 5.78125 358.948242188 1.4111328125 351.603515625 1.4111328125 c 0
 349.068359375 1.4111328125 347.224609375 1.931640625 345.505859375 2.8271484375 c 0
 341.194335938 5.0751953125 316.499023438 20.2314453125 290.627929688 36.5205078125 c 0
 264.756835938 52.810546875 243.284179688 66.259765625 242.91015625 66.4072265625 c 0
 242.53515625 66.564453125 246.045898438 270.51953125 250.706054688 519.6484375 c 0x90
 255.357421875 768.77734375 259.321289062 977.775390625 259.512695312 984.090820312 c 2x88
162.770507812 908.149414062 m 1
 184.35546875 951.704101562 l 1
 185.139648438 578.881835938 l 2
 185.251953125 524.939453125 185.3046875 473.5234375 185.3046875 427.01953125 c 0xc0
 185.3046875 296.74609375 184.887695312 205.0234375 184.181640625 204.317382812 c 0
 183.223632812 203.359375 173.868164062 205.7109375 163.397460938 209.543945312 c 0
 148.372070312 215.040039062 144.016601562 218.350585938 142.770507812 225.22265625 c 0xa0
 141.908203125 230.013671875 138.36328125 275.884765625 134.896484375 327.157226562 c 0
 129.651367188 404.8515625 127.740234375 420.327148438 123.3984375 420.327148438 c 0
 120.51171875 420.327148438 103.645507812 411.657226562 85.923828125 401.146484375 c 0
 70.76171875 392.146484375 54.962890625 384.014648438 51.63671875 384.014648438 c 0
 51.220703125 384.014648438 51 384.141601562 51 384.41015625 c 0xc0
 51 392.506835938 71.7080078125 505.908203125 141.185546875 864.595703125 c 1
 162.770507812 908.149414062 l 1
EndSplineSet
Validated: 524321
EndChar

StartChar: Q
Encoding: 81 81 40
Width: 510
GlyphClass: 2
Flags: HMW
HStem: 913.947 82.1133
VStem: 210.148 108.769 211.029 96.0566
LayerCount: 2
Fore
SplineSet
262.965820312 962.65234375 m 2xc0
 292.004882812 980.921875 318.169921875 996.060546875 321.120117188 996.060546875 c 0
 324.279296875 996.060546875 349.493164062 987.5703125 377.40234375 977.125 c 0
 405.483398438 966.60546875 428.889648438 956.666992188 429.400390625 955.046875 c 0
 429.919921875 953.427734375 424.374023438 946.33203125 417.077148438 939.290039062 c 0
 404.400390625 927.0546875 401.944335938 926.217773438 361.557617188 920.504882812 c 0
 338.318359375 917.212890625 319.127929688 914.263671875 318.916992188 913.947265625 c 0xc0
 318.705078125 913.629882812 313.379882812 792.151367188 307.0859375 644 c 0xa0
 301.219726562 505.939453125 296.836914062 388.922851562 296.836914062 370.952148438 c 0
 296.836914062 368.692382812 296.655273438 367.462890625 298.3984375 367.462890625 c 0
 302.650390625 367.462890625 316.306640625 377.459960938 347.47265625 402.952148438 c 0
 374.5859375 425.134765625 397.95703125 443.286132812 399.409179688 443.286132812 c 0
 400.842773438 443.294921875 402.094726562 442.107421875 402.094726562 440.653320312 c 0
 402.094726562 439.142578125 374.749023438 346.935546875 280.571289062 33.6650390625 c 1
 253.282226562 13.1279296875 l 2
 238.801757812 2.228515625 229.05859375 -3.685546875 225.716796875 -3.685546875 c 0
 225.06640625 -3.685546875 224.659179688 -3.4619140625 224.505859375 -3.0078125 c 0
 223.678710938 -0.5869140625 222.0859375 75.8662109375 220.958984375 166.88671875 c 0
 219.823242188 257.908203125 217.930664062 383.875976562 214.603515625 561.252929688 c 1
 99.470703125 695.055664062 l 1
 86.8212890625 740.831054688 l 2
 79.9521484375 765.697265625 74.9453125 787.493164062 76.1904296875 787.493164062 c 0
 77.90234375 787.493164062 107.825195312 766.678710938 143.247070312 740.831054688 c 0
 179.075195312 714.686523438 209.180664062 693.294921875 210.1484375 693.294921875 c 0xc0
 210.672851562 693.294921875 211.029296875 708.876953125 211.029296875 752.234375 c 0xa0
 211.029296875 788.93359375 210.7734375 845.53125 210.1484375 929.421875 c 1
 262.965820312 962.65234375 l 2xc0
EndSplineSet
Validated: 524321
EndChar

StartChar: R
Encoding: 82 82 41
Width: 510
GlyphClass: 2
Flags: HMW
HStem: 368.294 90.9092<280.996 288.951>
VStem: 200.795 96.6953 203.703 82.4854
LayerCount: 2
Fore
SplineSet
255.2265625 968.119140625 m 2xc0
 305.891601562 999.762695312 l 1
 360.750976562 979.439453125 l 2
 390.92578125 968.258789062 415.978515625 958.740234375 416.416015625 958.28515625 c 0
 416.861328125 957.831054688 410.567382812 950.951171875 402.4296875 942.997070312 c 0
 387.9453125 928.827148438 386.817382812 928.416015625 347.4296875 922.743164062 c 0
 325.314453125 919.552734375 306.826171875 916.615234375 306.336914062 916.22265625 c 0
 305.856445312 915.8203125 303.268554688 868.293945312 300.59375 810.6015625 c 0
 298.641601562 768.48828125 297.490234375 731.466796875 297.490234375 714.09765625 c 0xc0
 297.490234375 707.671875 297.647460938 703.935546875 297.98046875 703.625976562 c 0
 299.221679688 702.481445312 324.615234375 692.506835938 354.422851562 681.466796875 c 0
 384.23046875 670.426757812 410.515625 660.348632812 412.83203125 659.072265625 c 0
 415.830078125 657.419921875 414.326171875 652.5859375 407.586914062 642.201171875 c 0
 400.095703125 630.663085938 394.500976562 626.493164062 380.646484375 622.140625 c 0
 369.5625 618.65234375 350.060546875 616.624023438 291.485351562 616.545898438 c 1
 289.684570312 557.979492188 l 2
 288.688476562 525.767578125 287.115234375 490.365234375 286.188476562 479.307617188 c 0
 285.157226562 467.10546875 285.865234375 459.203125 287.989257812 459.203125 c 0
 289.912109375 459.203125 319.4140625 448.862304688 353.548828125 436.22265625 c 0
 387.68359375 423.590820312 416.013671875 412.577148438 416.494140625 411.747070312 c 0
 416.974609375 410.924804688 413.504882812 404.3515625 408.79296875 397.140625 c 0
 401.712890625 386.318359375 396.075195312 382.665039062 376.450195312 376.196289062 c 0
 358.120117188 370.165039062 344.466796875 368.364257812 280.99609375 368.293945312 c 1
 280.9609375 346.440429688 l 2
 280.934570312 334.421875 279.754882812 318.783203125 278.338867188 311.685546875 c 0
 275.8828125 299.421875 276.266601562 298.661132812 286.241210938 296.3359375 c 0
 292.009765625 294.990234375 321.905273438 284.53515625 352.674804688 273.1015625 c 0
 383.443359375 261.66796875 410.515625 251.265625 412.83203125 249.990234375 c 0
 415.838867188 248.329101562 414.334960938 243.495117188 407.586914062 233.110351562 c 0
 400.095703125 221.572265625 394.500976562 217.40234375 380.646484375 213.048828125 c 0
 368.609375 209.264648438 349.283203125 207.533203125 274.002929688 207.455078125 c 1
 272.166992188 152.384765625 l 2
 271.162109375 122.096679688 269.422851562 84.7275390625 266.258789062 41.37109375 c 1
 212.814453125 1.650390625 l 1
 210.62890625 26.755859375 l 2
 209.090820312 44.4736328125 191.100585938 109.75390625 149.440429688 248.713867188 c 0
 116.983398438 356.982421875 91.6171875 446.274414062 93.05859375 447.140625 c 0
 94.5009765625 448.005859375 119.67578125 429.010742188 202.325195312 361.134765625 c 1
 203.522460938 377.831054688 l 2
 203.64453125 379.5234375 203.703125 385.250976562 203.703125 394.391601562 c 0xa0
 203.703125 434.8203125 202.563476562 542.010742188 200.794921875 662 c 0
 199.349609375 760.204101562 198.627929688 827.62109375 198.627929688 870.657226562 c 0
 198.627929688 912.973632812 199.325195312 931.717773438 200.716796875 932.979492188 c 0
 202.83203125 934.90234375 227.368164062 950.71484375 255.2265625 968.119140625 c 2xc0
EndSplineSet
Validated: 524321
EndChar

StartChar: S
Encoding: 83 83 42
Width: 510
GlyphClass: 2
Flags: HMW
VStem: 193.463 108.895 202.592 78.7324 206.993 60.4316
LayerCount: 2
Fore
SplineSet
247.010742188 960.25390625 m 2x80
 276.456054688 979.00390625 301.842773438 994.452148438 303.426757812 994.584960938 c 0
 304.272460938 994.66015625 304.702148438 986.265625 304.702148438 972.901367188 c 0
 304.702148438 961.220703125 304.374023438 945.744140625 303.708984375 928.809570312 c 0
 302.8359375 906.58984375 302.357421875 891.71875 302.357421875 882.025390625 c 0x80
 302.357421875 869.62109375 303.140625 865.693359375 304.879882812 865.693359375 c 0
 305.248046875 865.693359375 305.658203125 865.869140625 306.11328125 866.177734375 c 0
 308.868164062 868.043945312 341.21875 891.486328125 378.014648438 918.263671875 c 0
 414.819335938 945.041992188 445.3828125 965.702148438 445.954101562 964.170898438 c 0
 446.517578125 962.638671875 441.139648438 940.782226562 420.998046875 869.831054688 c 1
 362.829101562 802.9296875 l 2
 330.83984375 766.133789062 302.609375 733.651367188 300.091796875 730.74609375 c 0
 296.650390625 726.767578125 292.01953125 644.576171875 281.32421875 398 c 0x40
 273.5078125 217.89453125 267.186523438 62.6123046875 267.424804688 35.32421875 c 1
 240.848632812 15.0771484375 l 2
 226.236328125 3.9423828125 212.697265625 -5.1689453125 210.760742188 -5.1689453125 c 0
 208.560546875 -5.1689453125 207.151367188 17.5859375 206.993164062 55.5703125 c 0x20
 206.861328125 88.9775390625 204.880859375 241.75 202.591796875 395.059570312 c 0x40
 200.311523438 548.37890625 197.64453125 674.504882812 196.676757812 675.350585938 c 0
 195.708007812 676.186523438 174.317382812 683.326171875 149.141601562 691.204101562 c 0
 105.5234375 704.848632812 102.909179688 706.204101562 84 734.267578125 c 1
 95.4443359375 739.091796875 l 2
 101.73828125 741.75 127.345703125 751.653320312 197.837890625 778.282226562 c 1
 193.462890625 926.168945312 l 1
 247.010742188 960.25390625 l 2x80
EndSplineSet
EndChar

StartChar: T
Encoding: 84 84 43
Width: 510
GlyphClass: 2
Flags: HMW
VStem: 213.372 72.9507 227.507 55.8652
LayerCount: 2
Fore
SplineSet
253.73046875 975.96484375 m 2x40
 268.154296875 990.772460938 281.493164062 1002.08203125 283.372070312 1001.10351562 c 0x40
 285.229492188 1000.14160156 286.323242188 933.926757812 286.323242188 660.870117188 c 0
 286.323242188 611.334960938 286.287109375 554.993164062 286.212890625 490.999023438 c 1
 233.58203125 312.676757812 l 2
 204.630859375 214.599609375 179.61328125 130.421875 177.970703125 125.614257812 c 0
 176.08203125 120.0546875 176.440429688 114.740234375 178.966796875 110.999023438 c 0
 182.026367188 106.470703125 203.3203125 101.951171875 272.096679688 91.216796875 c 0
 316.215820312 84.3359375 353.91796875 79.421875 361.903320312 79.421875 c 0
 362.793945312 79.421875 363.314453125 79.4833984375 363.43359375 79.609375 c 0
 364.630859375 80.876953125 368.564453125 93.5 372.174804688 107.66015625 c 0
 378.696289062 133.237304688 378.887695312 133.5 398.853515625 145.248046875 c 0
 409.911132812 151.759765625 419.579101562 156.690429688 420.338867188 156.208984375 c 0
 421.090820312 155.728515625 424.630859375 128.1328125 428.206054688 94.8896484375 c 0
 431.375 65.3359375 432.989257812 50.2314453125 432.989257812 42.333984375 c 0
 432.989257812 34.1318359375 431.248046875 33.7021484375 427.69921875 32.931640625 c 0
 423.853515625 32.1005859375 367.99609375 25.7900390625 186.431640625 6.4365234375 c 1
 77 116.874023438 l 1
 213.372070312 522.467773438 l 1x80
 227.506835938 949.041015625 l 1
 253.73046875 975.96484375 l 2x40
EndSplineSet
Validated: 524321
EndChar

StartChar: U
Encoding: 85 85 44
Width: 510
GlyphClass: 2
Flags: HMW
VStem: 164.415 96.46 169.939 83.0977<397.916 474.498> 175.49 62.3252<65.748 93.7207>
LayerCount: 2
Fore
SplineSet
220.166992188 964.620117188 m 2x80
 270.673828125 996.369140625 l 1
 293.592773438 987.836914062 l 2
 306.20703125 983.15234375 330.682617188 974.139648438 347.990234375 967.811523438 c 0
 365.297851562 961.482421875 379.877929688 954.970703125 380.384765625 953.3359375 c 0
 380.901367188 951.701171875 375.393554688 944.690429688 368.147460938 937.758789062 c 0
 355.594726562 925.739257812 353.025390625 924.874023438 313.016601562 919.279296875 c 0
 289.939453125 916.053710938 270.8046875 913.073242188 270.490234375 912.662109375 c 0
 270.17578125 912.243164062 265.848632812 811.595703125 260.875 689 c 0x80
 256.337890625 577.158203125 253.037109375 482.884765625 253.037109375 466.111328125 c 0x40
 253.037109375 460.83203125 259.548828125 459.450195312 269.73828125 456.657226562 c 0
 278.15625 454.349609375 310.21875 442.907226562 340.997070312 431.228515625 c 0
 371.766601562 419.55078125 397.727539062 409.262695312 398.689453125 408.37890625 c 0
 399.651367188 407.487304688 396.110351562 400.442382812 390.822265625 392.723632812 c 0
 382.919921875 381.194335938 377.299804688 377.435546875 359.353515625 371.657226562 c 0
 342.426757812 366.217773438 328.5234375 364.698242188 252.337890625 364.698242188 c 0
 251.021484375 364.698242188 249.685546875 364.698242188 248.331054688 364.69921875 c 2
 246.696289062 346.342773438 l 2
 245.795898438 336.24609375 243.41796875 284.716796875 241.42578125 231.83203125 c 0
 239.423828125 178.947265625 237.797851562 126.237304688 237.815429688 93.720703125 c 1
 315.629882812 82.0947265625 l 2
 358.426757812 75.7041015625 396.591796875 69.7080078125 400.4375 68.7724609375 c 0
 401.266601562 68.5693359375 402.013671875 68.447265625 402.697265625 68.447265625 c 0
 407.106445312 68.447265625 408.946289062 73.4990234375 413.864257812 94.3759765625 c 0
 420.2890625 121.657226562 420.32421875 121.709960938 441.05859375 135.678710938 c 0
 452.474609375 143.370117188 462.508789062 148.877929688 463.357421875 147.916015625 c 0
 464.196289062 146.954101562 467.692382812 118.96484375 471.127929688 85.712890625 c 0
 474.137695312 56.5087890625 475.685546875 41.41015625 475.685546875 33.43359375 c 0
 475.685546875 24.98046875 473.947265625 24.5244140625 470.3671875 23.7548828125 c 0
 466.521484375 22.9248046875 410.665039062 16.666015625 346.2421875 9.8388671875 c 0
 281.809570312 3.0205078125 228.96875 -2.1455078125 228.802734375 -1.6298828125 c 0
 228.645507812 -1.1044921875 216.583007812 14.2626953125 175.490234375 65.748046875 c 1x20
 169.939453125 397.916015625 l 2x40
 166.888671875 580.608398438 164.397460938 752.504882812 164.415039062 829.734375 c 1
 131.198242188 829.734375 l 2
 110.140625 829.734375 90.0615234375 831.971679688 76.3466796875 835.853515625 c 0
 58.26953125 840.966796875 53.068359375 844.279296875 44.7734375 855.958007812 c 0
 39.3095703125 863.650390625 34.9130859375 870.73046875 35.0009765625 871.692382812 c 0
 35.087890625 872.654296875 59.9130859375 882.6796875 90.17578125 893.982421875 c 0
 120.428710938 905.276367188 150.69140625 918.650390625 157.421875 923.694335938 c 0
 164.15234375 928.74609375 192.38671875 947.155273438 220.166992188 964.620117188 c 2x80
EndSplineSet
Validated: 524321
EndChar

StartChar: V
Encoding: 86 86 45
Width: 510
GlyphClass: 2
Flags: MW
VStem: 220.834 111.023 227.158 82.8418 232.141 74.1418
LayerCount: 2
Fore
SplineSet
274.74609375 966.236328125 m 2x80
 304.39453125 984.631835938 329.825195312 998.560546875 331.24609375 997.18359375 c 0
 331.629882812 996.814453125 331.857421875 993.212890625 331.857421875 985.12890625 c 0x80
 331.857421875 963.264648438 330.192382812 908.614257812 325.447265625 796.447265625 c 1
 364.043945312 796.403320312 l 2
 390.9296875 796.368164062 408.420898438 794.508789062 421.693359375 790.262695312 c 0
 436.473632812 785.53515625 442.982421875 781.026367188 450.737304688 770.131835938 c 0
 456.237304688 762.412109375 460.702148438 755.306640625 460.658203125 754.341796875 c 0
 460.614257812 753.376953125 430.96484375 741.736328125 394.772460938 728.482421875 c 0
 358.5703125 715.21875 326.982421875 703.771484375 324.5703125 703.043945312 c 0
 321.53515625 702.123046875 320.184570312 693.043945312 320.184570312 645.5703125 c 1
 363.166992188 645.297851562 l 2
 394.552734375 645.096679688 410.876953125 643.368164062 423.693359375 638.868164062 c 0
 436.587890625 634.350585938 444.026367188 628.859375 451.763671875 618.149414062 c 0
 457.552734375 610.131835938 461.5 603.03515625 460.53515625 602.368164062 c 0
 459.5703125 601.709960938 432.728515625 591.53515625 400.885742188 579.75390625 c 0
 369.043945312 567.982421875 336.67578125 556.53515625 314.920898438 550.280273438 c 1
 310 430.376953125 l 2x40
 307.7578125 375.63671875 306.282226562 328.06640625 306.282226562 312.383789062 c 0
 306.282226562 309.17578125 306.34375 307.301757812 306.473632812 306.973632812 c 0
 307.237304688 305.043945312 330.5 294.780273438 358.158203125 284.166992188 c 0
 405.991210938 265.815429688 408.920898438 264.131835938 417.833984375 249.850585938 c 0
 422.982421875 241.587890625 426.412109375 234.131835938 425.447265625 233.280273438 c 0
 424.482421875 232.438476562 398.4296875 224.473632812 367.552734375 215.587890625 c 0
 336.67578125 206.702148438 308.81640625 197.5703125 305.649414062 195.306640625 c 0
 300.8515625 191.868164062 299.263671875 178.727539062 296.061523438 115.745117188 c 0
 292.728515625 50.10546875 291.4296875 39.7802734375 286.03515625 36.2275390625 c 0
 282.623046875 33.9912109375 270.3515625 25.0087890625 237.719726562 0.412109375 c 1
 235.079101562 69.482421875 l 2
 233.623046875 107.473632812 232.043945312 138.973632812 231.5703125 139.482421875 c 0
 231.096679688 140 192.017578125 116.482421875 144.737304688 87.21875 c 0
 97.4560546875 57.96484375 56.798828125 33.46484375 54.3857421875 32.7802734375 c 0
 51.9736328125 32.0966796875 50 33.1142578125 50 35.0439453125 c 0
 50 36.9736328125 57.052734375 57.89453125 81.3427734375 124.517578125 c 1
 232.140625 271.885742188 l 1x20
 227.158203125 578.903320312 l 2x40
 224.420898438 747.762695312 221.876953125 896.46484375 220.833984375 932.7890625 c 1
 274.74609375 966.236328125 l 2x80
EndSplineSet
Validated: 524321
EndChar

StartChar: W
Encoding: 87 87 46
Width: 510
GlyphClass: 2
Flags: HMW
HStem: 0.210938 71.3906
VStem: 205.983 85.2227<608 608> 212.167 66.0938 328.866 113.974
LayerCount: 2
Fore
SplineSet
219.987304688 995.0546875 m 0xb0
 220.885742188 996.549804688 223.634765625 996.549804688 226.099609375 995.0546875 c 0
 228.5546875 993.560546875 241.27734375 984.334960938 254.364257812 974.547851562 c 0
 277.504882812 957.244140625 278.163085938 956.309570312 278.260742188 940.740234375 c 0xb0
 278.314453125 931.932617188 281.241210938 853.462890625 291.206054688 608 c 1
 430.405273438 273.48046875 l 1
 436.27734375 191.629882812 l 2
 439.528320312 146.309570312 442.83984375 106.490234375 442.83984375 102.00390625 c 0
 442.83984375 96.1396484375 429.166992188 83.78515625 384.782226562 49.3876953125 c 0
 352.487304688 24.361328125 324.461914062 2.4482421875 322.504882812 0.6953125 c 0
 322.140625 0.369140625 320.3828125 0.2109375 317.362304688 0.2109375 c 0
 302.747070312 0.2109375 258.572265625 3.9091796875 199.720703125 10.162109375 c 0
 134.150390625 17.119140625 77.30078125 23.498046875 73.3857421875 24.34375 c 0
 69.7724609375 25.1142578125 68 25.5478515625 68 33.904296875 c 0
 68 41.9453125 69.640625 57.322265625 72.8603515625 87.39453125 c 0
 76.490234375 121.23828125 80.09375 149.325195312 80.8681640625 149.814453125 c 0
 81.650390625 150.3046875 91.490234375 145.286132812 102.745117188 138.658203125 c 0
 123.065429688 126.701171875 123.251953125 126.434570312 129.889648438 100.40234375 c 0
 133.563476562 85.9892578125 137.567382812 73.125 138.786132812 71.81640625 c 0
 138.920898438 71.671875 139.56640625 71.6015625 140.677734375 71.6015625 c 0
 149.602539062 71.6015625 188.555664062 76.1083984375 234.080078125 82.4931640625 c 0
 285.271484375 89.6728515625 327.922851562 96.3447265625 328.866210938 97.32421875 c 0
 329.80078125 98.302734375 333.643554688 139.138671875 344.212890625 277.0390625 c 1
 205.983398438 608 l 1xd0
 212.166992188 800.170898438 l 2
 215.565429688 905.864257812 219.080078125 993.560546875 219.987304688 995.0546875 c 0xb0
EndSplineSet
Validated: 524289
EndChar

StartChar: X
Encoding: 88 88 47
Width: 510
GlyphClass: 2
Flags: HMW
VStem: 52.0127 53.5537 269.652 82.8389 283.778 63.3477
LayerCount: 2
Fore
SplineSet
302.372070312 963.935546875 m 1xc0
 356.745117188 997.358398438 l 1
 408.086914062 978.299804688 l 2
 436.327148438 967.8203125 460.99609375 957.872070312 462.912109375 956.200195312 c 0
 465.125 954.275390625 461.702148438 948.377929688 453.548828125 940.09375 c 0
 441.196289062 927.541015625 439.114257812 926.791992188 399.541015625 920.825195312 c 0
 381.98046875 918.169921875 366.42578125 915.368164062 359.884765625 913.751953125 c 1
 357.041015625 697.108398438 354.546875 516.89453125 352.491210938 373.029296875 c 0xc0
 350.383789062 225.46875 347.970703125 96.896484375 347.125976562 87.3154296875 c 0
 345.766601562 71.853515625 342.552734375 66.025390625 318.563476562 35.564453125 c 2
 291.533203125 1.2353515625 l 1
 269.930664062 4.109375 215.836914062 9.9892578125 157.38671875 16.173828125 c 0
 98.9375 22.349609375 49.9482421875 28.3427734375 48.5283203125 29.484375 c 0
 48.1689453125 29.7705078125 48 31.751953125 48 35.0830078125 c 0
 48 45.009765625 49.5078125 66.92578125 52.0126953125 91.6787109375 c 0
 55.34765625 124.739257812 59.2587890625 151.783203125 60.6962890625 151.783203125 c 0
 62.134765625 151.783203125 72.029296875 145.895507812 82.68359375 138.708984375 c 0
 98.51953125 128.038085938 102.708984375 123.08984375 105.56640625 111.705078125 c 0
 107.5 104.040039062 110.532226562 91.888671875 112.326171875 84.7021484375 c 0
 114.782226562 74.8154296875 117.055664062 71.9931640625 121.672851562 73.0986328125 c 0
 125.026367188 73.900390625 162.265625 79.5888671875 204.42578125 85.73828125 c 0
 250.7890625 92.4921875 283.778320312 94.30078125 283.778320312 103.99609375 c 0xa0
 283.778320312 134.58203125 277.854492188 304.034179688 269.65234375 506 c 0
 260.6015625 728.61328125 249.421875 929.618164062 248.463867188 930.680664062 c 1
 302.372070312 963.935546875 l 1xc0
EndSplineSet
Validated: 524289
EndChar

StartChar: Y
Encoding: 89 89 48
Width: 510
GlyphClass: 2
Flags: HMW
HStem: 372.381 89.7655
VStem: 155.025 72.5517 159.81 50.8623 159.896 58.7578
LayerCount: 2
Fore
SplineSet
202.111328125 961.810546875 m 1xc0
 256.223632812 995.740234375 l 1
 307.29296875 976.740234375 l 2
 335.370117188 966.291992188 359.904296875 956.377929688 361.801757812 954.723632812 c 0
 363.991210938 952.818359375 360.602539062 946.981445312 352.54296875 938.783203125 c 0
 340.154296875 926.188476562 338.689453125 925.688476562 294.37890625 918.96484375 c 0
 269.37890625 915.171875 247.698242188 911.291992188 246.198242188 910.34375 c 0
 244.698242188 909.395507812 239.448242188 814.740234375 234.516601562 699.999023438 c 0
 229.596679688 585.506835938 227.577148438 485.21875 227.577148438 476.77734375 c 0xc0
 227.577148438 467.265625 229.107421875 462.146484375 231.918945312 462.146484375 c 0
 234.388671875 462.146484375 261.439453125 451.982421875 294.559570312 439.526367188 c 0
 327.75 427.034179688 355.29296875 416.137695312 355.766601562 415.301757812 c 0
 356.241210938 414.474609375 352.361328125 407.526367188 347.146484375 399.862304688 c 0
 339.456054688 388.577148438 333.741210938 384.646484375 316.973632812 379.146484375 c 0
 301.6171875 374.1015625 286.993164062 372.37890625 259.610351562 372.37890625 c 0
 258.118164062 372.37890625 256.618164062 372.380859375 255.235351562 372.380859375 c 0
 223.76953125 372.380859375 227.029296875 371.838867188 225.645507812 364.655273438 c 0
 224.817382812 360.387695312 221.6796875 291.724609375 218.653320312 212.069335938 c 0x90
 215.63671875 132.4140625 212.041992188 52.103515625 210.670898438 33.5947265625 c 0
 209.301757812 15.0966796875 207.018554688 -0.025390625 205.587890625 -0.025390625 c 0
 204.16796875 -0.025390625 189.405273438 5.82421875 159.809570312 25.8623046875 c 1xa0
 159.896484375 81.0341796875 l 2x90
 159.939453125 111.37890625 157.75 278.965820312 155.025390625 453.448242188 c 0
 152.29296875 627.930664062 149.602539062 806.060546875 148 927.87890625 c 1
 202.111328125 961.810546875 l 1xc0
EndSplineSet
Validated: 524321
EndChar

StartChar: Z
Encoding: 90 90 49
Width: 510
GlyphClass: 2
Flags: HMW
VStem: 196.148 93.6504 215.796 66.5382 228.787 44.7061
LayerCount: 2
Fore
SplineSet
128.36328125 980.46875 m 0x80
 154.3046875 989.999023438 177.875976562 997.182617188 182.986328125 997.182617188 c 0
 183.3125 997.182617188 183.563476562 997.153320312 183.735351562 997.09375 c 0
 186.58984375 996.098632812 212.108398438 981.021484375 291.987304688 931.877929688 c 1
 289.798828125 838.452148438 l 2x80
 288.596679688 787.067382812 285.231445312 603.331054688 282.333984375 430.147460938 c 0x40
 279.426757812 256.963867188 276.251953125 95.0263671875 273.493164062 25.302734375 c 1
 249.565429688 12.3271484375 l 2
 239.150390625 5.1904296875 229.798828125 -0.2587890625 228.787109375 0.216796875 c 0x20
 227.766601562 0.6923828125 224.798828125 50.1298828125 222.186523438 110.078125 c 0
 219.583007812 170.026367188 217.298828125 219.463867188 217.1171875 219.939453125 c 0
 216.94140625 220.400390625 201.443359375 220.762695312 176.725585938 220.762695312 c 0
 175.897460938 220.762695312 175.059570312 220.762695312 174.2109375 220.76171875 c 2
 173.275390625 220.76171875 l 2
 138.41015625 220.76171875 122.1328125 222.236328125 109.33203125 226.549804688 c 0
 99.81640625 229.75 90.2060546875 234.828125 87.96484375 237.830078125 c 0
 85.724609375 240.840820312 81.4423828125 247.579101562 73 262.328125 c 1
 134.41796875 284.724609375 l 2
 168.198242188 297.04296875 200.327148438 308.33203125 205.811523438 309.810546875 c 0
 211.295898438 311.290039062 214.58984375 314.05859375 215.576171875 315.961914062 c 0
 215.721679688 316.241210938 215.795898438 319.392578125 215.795898438 325.083984375 c 0x40
 215.795898438 358.203125 213.294921875 477.333984375 207.913085938 617 c 0
 201.615234375 780.666992188 196.321289062 914.975585938 196.1484375 915.459960938 c 0
 195.984375 915.944335938 174.038085938 919.568359375 147.39453125 923.513671875 c 0
 102.15234375 930.208984375 98.20703125 931.411132812 87.583984375 941.662109375 c 0
 81.330078125 947.700195312 76.6591796875 954.75 77.2041015625 957.336914062 c 0
 77.7490234375 959.923828125 100.767578125 970.330078125 128.36328125 980.46875 c 0x80
380.965820312 267.171875 m 0
 408.560546875 290.9609375 432.306640625 310.501953125 433.734375 310.59765625 c 0
 435.161132812 310.692382812 436.294921875 309.602539062 436.250976562 308.174804688 c 0
 436.208007812 306.748046875 419.071289062 241.739257812 398.163085938 163.7109375 c 0
 377.263671875 85.68359375 359.391601562 21.064453125 358.448242188 20.11328125 c 0
 357.514648438 19.1611328125 356.017578125 19.1611328125 355.118164062 20.11328125 c 0
 354.227539062 21.064453125 345.671875 64.6630859375 336.11328125 116.999023438 c 0
 325.498046875 175.09765625 321.470703125 197.943359375 321.470703125 208.3359375 c 0
 321.470703125 214.112304688 322.71484375 216.041015625 324.763671875 218.037109375 c 0
 328.076171875 221.272460938 353.37109375 243.3828125 380.965820312 267.171875 c 0
EndSplineSet
Validated: 524289
EndChar

StartChar: underscore
Encoding: 95 95 50
Width: 510
GlyphClass: 2
Flags: HMW
HStem: 6 86<68 135>
LayerCount: 2
Fore
SplineSet
374 104 m 2
 375.294921875 104.044921875 378.565429688 103.500976562 382.17578125 117.661132812 c 0
 388.697265625 143.23828125 388.888671875 143.500976562 408.854492188 155.249023438 c 0
 419.912109375 161.760742188 429.580078125 166.69140625 430.33984375 166.209960938 c 0
 431.091796875 165.729492188 434.631835938 138.133789062 438.20703125 104.890625 c 0
 441.375976562 75.3359375 442.990234375 57.8232421875 442.990234375 47.47265625 c 0
 442.990234375 36.724609375 441.249023438 33.69921875 437.69921875 32.931640625 c 0
 433.853515625 32.1005859375 249.564453125 25.353515625 68 6 c 1
 135 92 l 1
 189 101 374 104 374 104 c 2
EndSplineSet
Validated: 524289
EndChar

StartChar: a
Encoding: 97 97 51
Width: 510
GlyphClass: 2
Flags: HMW
VStem: 302.812 105.188 308.396 82.3535 315.543 56.2637
LayerCount: 2
Fore
SplineSet
212.166992188 954.263671875 m 2x00
 223.026367188 976.2734375 232.854492188 992.184570312 234.864257812 990.999023438 c 0
 237.056640625 989.719726562 238.1015625 892.548828125 238.1015625 689.654296875 c 0
 238.1015625 669.138671875 238.090820312 647.54296875 238.069335938 624.856445312 c 0
 237.787109375 337.243164062 236.844726562 262.010742188 233.486328125 262.010742188 c 0
 231.251953125 262.010742188 221.15234375 265.845703125 194.76171875 274.486328125 c 1
 188.447265625 369.873046875 l 2
 184.985351562 422.338867188 181.505859375 467.201171875 180.71484375 469.563476562 c 0
 179.93359375 471.926757812 176.591796875 473.859375 173.284179688 473.850585938 c 0
 169.9765625 473.850585938 154.125976562 465.963867188 138.060546875 456.333984375 c 0
 121.995117188 446.703125 107.3046875 438.592773438 105.4140625 438.30078125 c 0
 103.524414062 438.017578125 102.26171875 440.096679688 102.61328125 442.931640625 c 0
 102.965820312 445.766601562 123.456054688 553.241210938 193.026367188 915.440429688 c 1
 212.166992188 954.263671875 l 2x00
315.54296875 968.03515625 m 0
 316.479492188 970.741210938 318.841796875 971.419921875 321.505859375 969.752929688 c 0
 323.936523438 968.232421875 336.255859375 959.254882812 348.90234375 949.8046875 c 0
 367.65234375 935.78515625 371.806640625 930.893554688 371.806640625 923.137695312 c 0
 371.806640625 917.141601562 380.315429688 714.899414062 390.749023438 473 c 0
 400.36328125 250.131835938 408 57.2138671875 408 4.431640625 c 0
 408 -0.193359375 407.94140625 -3.7421875 407.8203125 -6.140625 c 1
 302.811523438 59.7705078125 l 1
 302.802734375 95.8525390625 l 2
 302.793945312 115.698242188 305.311523438 319.048828125 308.395507812 547.7421875 c 0
 311.479492188 776.436523438 314.692382812 965.569335938 315.54296875 968.03515625 c 0
EndSplineSet
Validated: 524321
EndChar

StartChar: b
Encoding: 98 98 52
Width: 510
GlyphClass: 2
Flags: HMW
VStem: 195.169 94.7485 196.888 89.377 197.342 74.7829
LayerCount: 2
Fore
SplineSet
245.782226562 965.114257812 m 1x00
 300.387695312 998.780273438 l 1
 352.098632812 979.579101562 l 2
 380.537109375 969.026367188 405.387695312 959 407.317382812 957.315429688 c 0
 409.545898438 955.376953125 406.098632812 949.438476562 397.887695312 941.096679688 c 0
 385.44921875 928.456054688 383.352539062 927.701171875 343.501953125 921.692382812 c 0
 320.703125 918.245117188 301.264648438 914.561523438 300.299804688 913.491210938 c 0
 299.334960938 912.4296875 296.677734375 869.456054688 294.387695312 818 c 0
 292.025390625 764.694335938 289.916992188 720.1640625 289.916992188 712.149414062 c 0
 289.916992188 703.359375 293.572265625 701.916015625 348.493164062 681.315429688 c 0
 380.84375 669.174804688 409.211914062 658.123046875 411.51953125 656.75390625 c 0
 414.528320312 654.96484375 413.037109375 650.130859375 406.255859375 639.657226562 c 0
 398.747070312 628.0703125 393.168945312 623.903320312 379.247070312 619.526367188 c 0
 367.896484375 615.956054688 348.396484375 613.991210938 286.264648438 613.912109375 c 1
 284.405273438 577.947265625 l 2
 283.37890625 558.166015625 277.852539062 431.061523438 272.125 295.491210938 c 0
 266.396484375 159.920898438 261.703125 46.630859375 261.703125 43.736328125 c 0
 261.703125 40.841796875 249.072265625 29 233.633789062 17.4208984375 c 0
 218.465820312 6.044921875 208.626953125 0.0595703125 205.184570312 0.0595703125 c 0
 204.509765625 0.0595703125 204.081054688 0.2900390625 203.905273438 0.75390625 c 0
 203.001953125 3.166015625 178.528320312 100.271484375 149.51953125 216.543945312 c 0
 120.51953125 332.815429688 96.791015625 428.736328125 96.791015625 429.701171875 c 0
 96.791015625 430.666015625 98.3701171875 431.456054688 100.299804688 431.456054688 c 0
 102.229492188 431.456054688 124.334960938 414.876953125 149.422851562 394.614257812 c 0
 174.510742188 374.350585938 195.870117188 358.166015625 196.887695312 358.6484375 c 0
 197.196289062 358.79296875 197.341796875 368.619140625 197.341796875 385.852539062 c 0
 197.341796875 425.991210938 196.549804688 506.314453125 195.168945312 598.123046875 c 0
 193.203125 729.350585938 191.501953125 858.03515625 191.177734375 931.456054688 c 1
 245.782226562 965.114257812 l 1x00
EndSplineSet
Validated: 524321
EndChar

StartChar: c
Encoding: 99 99 53
Width: 510
GlyphClass: 2
Flags: HMW
VStem: 106.509 82.8389 111.874 63.3475 353.434 53.5537
LayerCount: 2
Fore
SplineSet
153.267578125 963.935546875 m 1x00
 207.640625 997.358398438 l 1
 258.982421875 978.299804688 l 2
 287.22265625 967.8203125 311.891601562 957.872070312 313.807617188 956.200195312 c 0
 316.020507812 954.275390625 312.59765625 948.377929688 304.444335938 940.09375 c 0
 292.091796875 927.541015625 290.009765625 926.791992188 250.436523438 920.825195312 c 0
 227.797851562 917.40234375 208.494140625 913.735351562 207.536132812 912.680664062 c 0
 206.578125 911.618164062 198.3984375 728.61328125 189.34765625 506 c 0
 181.145507812 304.034179688 175.221679688 134.58203125 175.221679688 103.99609375 c 0
 175.221679688 94.30078125 208.2109375 92.4921875 254.57421875 85.73828125 c 0
 296.734375 79.5888671875 333.973632812 73.900390625 337.327148438 73.0986328125 c 0
 341.944335938 71.9931640625 344.217773438 74.8154296875 346.673828125 84.7021484375 c 0
 348.467773438 91.888671875 351.5 104.040039062 353.43359375 111.705078125 c 0
 356.291015625 123.08984375 360.48046875 128.038085938 376.31640625 138.708984375 c 0
 386.970703125 145.895507812 396.865234375 151.783203125 398.303710938 151.783203125 c 0
 399.741210938 151.783203125 403.65234375 124.739257812 406.987304688 91.6787109375 c 0
 409.4921875 66.92578125 411 45.009765625 411 35.0830078125 c 0
 411 31.751953125 410.831054688 29.7705078125 410.471679688 29.484375 c 0
 409.051757812 28.3427734375 360.0625 22.349609375 301.61328125 16.173828125 c 0
 243.163085938 9.9892578125 189.069335938 4.109375 167.466796875 1.2353515625 c 1
 140.436523438 35.564453125 l 2
 116.447265625 66.025390625 113.233398438 71.853515625 111.874023438 87.3154296875 c 0
 111.029296875 96.896484375 108.616210938 225.46875 106.508789062 373.029296875 c 0
 104.400390625 520.58984375 101.831054688 706.391601562 98.8955078125 930.520507812 c 1
 153.267578125 963.935546875 l 1x00
EndSplineSet
Validated: 524289
EndChar

StartChar: d
Encoding: 100 100 54
Width: 510
GlyphClass: 2
Flags: HMW
VStem: 69.628 106.64 84.586 80.9746 102.612 54.2158 228.041 105.666 232.673 82.9307 238.595 59.6035 354.69 59.2764
LayerCount: 2
Fore
SplineSet
282.5859375 953.62109375 m 2x00
 334.224609375 986.026367188 l 1
 349.828125 980.12109375 l 2
 358.4140625 976.87109375 381.724609375 968.310546875 401.646484375 961.0859375 c 0
 421.560546875 953.87109375 439.146484375 947.069335938 440.724609375 945.982421875 c 0
 442.310546875 944.887695312 436.879882812 937.569335938 428.655273438 929.715820312 c 0
 414.04296875 915.75 412.828125 915.310546875 374.051757812 909.776367188 c 0
 352.241210938 906.6640625 334.0859375 903.776367188 333.70703125 903.37109375 c 0
 333.328125 902.95703125 325.181640625 718.741210938 315.603515625 494 c 0
 306.034179688 269.258789062 298.198242188 83.439453125 298.198242188 81.0693359375 c 0
 298.189453125 78.3447265625 306.776367188 75.62890625 321.465820312 73.689453125 c 0
 334.267578125 72 345.70703125 71.6123046875 346.887695312 72.828125 c 0
 348.069335938 74.04296875 351.578125 85.896484375 354.689453125 99.1728515625 c 0
 360.328125 123.25 360.396484375 123.344726562 382.715820312 137.965820312 c 0
 395.026367188 146.026367188 406.646484375 152.62109375 408.54296875 152.62109375 c 0
 410.483398438 152.62109375 412.853515625 137.215820312 413.965820312 117.276367188 c 0
 414.52734375 107.321289062 414.90234375 95.037109375 414.90234375 79.677734375 c 0
 414.90234375 65.044921875 414.561523438 47.62109375 413.715820312 26.7587890625 c 1
 144.741210938 -12.2587890625 l 1
 108.534179688 20.6982421875 l 2
 85.8701171875 41.3232421875 69.6279296875 51.830078125 69.6279296875 60.7041015625 c 0
 69.6279296875 93.3447265625 75.9228515625 282.274414062 84.5859375 507.79296875 c 0
 94.0947265625 755.29296875 102.20703125 958.25 102.612304688 958.801757812 c 0
 103.026367188 959.362304688 115.387695312 950.439453125 130.0859375 938.974609375 c 0
 144.784179688 927.517578125 156.819335938 917.75 156.828125 917.276367188 c 0
 156.844726562 916.801757812 160.767578125 732.534179688 165.560546875 507.79296875 c 0
 170.344726562 283.051757812 175.1640625 98.396484375 176.267578125 97.4482421875 c 0
 177.37109375 96.5 191.681640625 93.7841796875 208.060546875 91.4228515625 c 0
 224.439453125 89.0517578125 238.181640625 87.5 238.594726562 87.974609375 c 0
 239 88.439453125 236.3359375 275.034179688 232.672851562 502.62109375 c 0
 229.817382812 679.997070312 228.041015625 832.892578125 228.041015625 892.3515625 c 0
 228.041015625 909.182617188 228.18359375 918.526367188 228.483398438 918.819335938 c 0
 229.8359375 920.137695312 254.181640625 935.801757812 282.5859375 953.62109375 c 2x00
EndSplineSet
Validated: 524321
EndChar

StartChar: e
Encoding: 101 101 55
Width: 510
GlyphClass: 2
Flags: HMW
HStem: 913.201 82
VStem: 206.505 108.882 215.563 81.1875 220.897 57.6396
LayerCount: 2
Fore
SplineSet
259.322265625 961.5546875 m 0xc0
 288.349609375 979.876953125 314.5390625 995.201171875 317.51171875 995.201171875 c 0
 320.817382812 995.201171875 345.950195312 986.787109375 373.767578125 976.37890625 c 0
 401.848632812 965.859375 425.24609375 955.920898438 425.756835938 954.30078125 c 0
 426.276367188 952.681640625 420.73046875 945.5859375 413.432617188 938.543945312 c 0
 400.756835938 926.30859375 398.30078125 925.471679688 357.913085938 919.758789062 c 0
 334.673828125 916.466796875 315.537109375 913.517578125 315.38671875 913.201171875 c 0xc0
 315.237304688 912.883789062 306.848632812 716.140625 296.750976562 476 c 0xa0
 286.69921875 237.135742188 278.537109375 40.294921875 278.537109375 36.779296875 c 0
 278.537109375 35.2333984375 266.096679688 24.6552734375 250.518554688 12.9716796875 c 0
 235.568359375 1.7607421875 225.426757812 -4.4033203125 222.060546875 -4.4033203125 c 0
 221.43359375 -4.4033203125 221.041015625 -4.189453125 220.897460938 -3.75390625 c 0x90
 220.10546875 -1.3330078125 217.702148438 136.915039062 215.563476562 303.46484375 c 0xa0
 213.423828125 470.013671875 210.509765625 656.58984375 206.504882812 829.890625 c 1
 174.814453125 829.846679688 l 2
 152.19140625 829.8203125 137.077148438 831.853515625 121.998046875 836.951171875 c 0
 105.6953125 842.4609375 99.0576171875 846.888671875 92.9482421875 856.352539062 c 0
 88.59375 863.08203125 85 869.796875 85 871.247070312 c 0
 85 872.706054688 112.686523438 884.190429688 146.540039062 896.774414062 c 0
 183.11328125 910.366210938 207.321289062 921.161132812 207.321289062 923.85546875 c 0
 207.321289062 926.465820312 229.911132812 942.981445312 259.322265625 961.5546875 c 0xc0
EndSplineSet
Validated: 524321
EndChar

StartChar: f
Encoding: 102 102 56
Width: 510
GlyphClass: 2
Flags: HMW
HStem: 913.317 88.6611
VStem: 116.009 111.462 144.661 57.4199
LayerCount: 2
Fore
SplineSet
156.318359375 965.631835938 m 2xc0
 178.490234375 985.578125 197.826171875 1001.93457031 199.288085938 1001.97851562 c 0
 200.750976562 1002.01464844 258.99609375 993.247070312 328.73046875 982.493164062 c 0
 398.455078125 971.73046875 460.290039062 961.952148438 476.779296875 958.57421875 c 1
 473.916015625 896.092773438 l 2
 472.337890625 861.73046875 469.944335938 832.404296875 468.596679688 830.923828125 c 0
 468.469726562 830.786132812 468.24609375 830.711914062 467.915039062 830.711914062 c 0
 464.708007812 830.711914062 451.362304688 837.583984375 416.49609375 859.612304688 c 1
 410.290039062 886.508789062 l 2
 405.450195312 907.466796875 402.7109375 913.379882812 397.87890625 913.317382812 c 0
 394.465820312 913.2734375 354.970703125 907.6796875 310.104492188 900.888671875 c 0
 265.24609375 894.09765625 228.065429688 888.149414062 227.470703125 887.669921875 c 0xc0
 226.876953125 887.19140625 220.955078125 703.291015625 214.306640625 479 c 0
 207.657226562 254.708984375 202.161132812 65.21484375 202.081054688 57.900390625 c 0
 201.95703125 45.560546875 199.970703125 43.078125 174.465820312 23.3525390625 c 0
 157.911132812 10.546875 151.26171875 5.5888671875 148.049804688 5.5888671875 c 0
 146.181640625 5.5888671875 145.4765625 7.2666015625 144.661132812 10.0546875 c 0xa0
 143.384765625 14.42578125 140.538085938 92.208984375 134.315429688 347.794921875 c 1
 82.568359375 555.241210938 l 2
 54.8505859375 666.337890625 33 760.413085938 33 768.43359375 c 0
 33 769.627929688 33.861328125 770.358398438 34.93359375 770.358398438 c 0
 39.9619140625 770.358398438 57.333984375 757.255859375 125.11328125 702.404296875 c 1
 122.887695312 720.134765625 l 2
 121.655273438 729.88671875 119.616210938 780.950195312 116.008789062 929.354492188 c 1
 156.318359375 965.631835938 l 2xc0
EndSplineSet
Validated: 524321
EndChar

StartChar: g
Encoding: 103 103 57
Width: 510
GlyphClass: 2
Flags: HMW
HStem: 5.34375 95.7441
VStem: 239.562 70.3506<481.895 524> 239.729 57.6572
LayerCount: 2
Fore
SplineSet
239.728515625 742.543945312 m 2xa0
 239.875976562 971.588867188 240.234375 1000.12597656 244.87890625 1000.12597656 c 0
 245.178710938 1000.12597656 245.49609375 1000.00683594 245.833007812 999.815429688 c 0
 249.10546875 997.956054688 262.03515625 986 297.385742188 950.079101562 c 1xa0
 309.912109375 524 l 1
 446.359375 113.473632812 l 1
 396.623046875 62.5966796875 l 2
 369.272460938 34.6142578125 345.228515625 9.6669921875 343.193359375 7.158203125 c 0
 342.244140625 5.9873046875 339.254882812 5.34375 332.469726562 5.34375 c 0
 317.743164062 5.34375 285.134765625 8.376953125 216.684570312 15.6494140625 c 0
 149.140625 22.82421875 92.8251953125 29.6142578125 91.53515625 30.736328125 c 0
 90.24609375 31.8505859375 92.1669921875 59.6142578125 95.7900390625 92.4208984375 c 0
 99.412109375 125.227539062 103.228515625 152.46484375 104.272460938 152.947265625 c 0
 105.307617188 153.4296875 115.149414062 147.903320312 126.131835938 140.666992188 c 0
 145.728515625 127.762695312 146.237304688 127.008789062 152.728515625 101.193359375 c 0
 156.359375 86.71875 159.614257812 74.587890625 159.938476562 74.236328125 c 0
 160.272460938 73.876953125 200.017578125 79.75390625 248.263671875 87.2890625 c 0
 296.508789062 94.82421875 337.17578125 101.03515625 338.623046875 101.087890625 c 0
 339.686523438 101.1328125 345.12109375 105.760742188 345.12109375 110.419921875 c 0
 345.12109375 122.396484375 328.515625 181.84375 239.561523438 481.89453125 c 1xc0
 239.728515625 742.543945312 l 2xa0
65.8076171875 494.17578125 m 0
 66.7724609375 494.17578125 94.5703125 473.25390625 127.587890625 447.684570312 c 0
 178.287109375 408.416015625 186.197265625 401.872070312 186.197265625 393.934570312 c 0
 186.197265625 392.895507812 186.061523438 391.831054688 185.868164062 390.666992188 c 0
 184.903320312 384.876953125 178.81640625 340.262695312 172.333007812 291.517578125 c 0
 165.850585938 242.780273438 159.140625 203.306640625 157.420898438 203.797851562 c 0
 155.702148438 204.297851562 133.973632812 268.649414062 109.123046875 346.806640625 c 0
 84.2978515625 424.9140625 64 490.01171875 64 491.541015625 c 0
 64 492.989257812 64.8603515625 494.17578125 65.8076171875 494.17578125 c 0
EndSplineSet
Validated: 524321
EndChar

StartChar: h
Encoding: 104 104 58
Width: 510
GlyphClass: 2
Flags: HMW
HStem: 913.778 82.0264
VStem: 76 108.803 83.333 82.8604 90.375 57.6842 352.32 69.6836 352.417 82.1396 365.164 43.1338
LayerCount: 2
Fore
SplineSet
128.817382812 962.483398438 m 2xc0
 157.846679688 980.650390625 184.032226562 995.8046875 186.99609375 995.8046875 c 0
 190.260742188 995.8046875 215.416992188 987.375 243.25390625 976.956054688 c 0
 271.334960938 966.436523438 294.741210938 956.498046875 295.251953125 954.877929688 c 0
 295.771484375 953.258789062 290.225585938 946.163085938 282.927734375 939.12109375 c 0
 270.251953125 926.885742188 267.795898438 926.048828125 227.408203125 920.3359375 c 0
 204.168945312 917.043945312 184.99609375 914.094726562 184.802734375 913.778320312 c 0xc0
 184.600585938 913.4609375 176.228515625 719.094726562 166.193359375 481.858398438 c 0xa0
 156.1875 245.512695312 148.059570312 48.439453125 148.059570312 42.65625 c 0
 148.059570312 36.67578125 140.946289062 29.24609375 120.013671875 13.548828125 c 0
 105.0390625 2.3173828125 94.9208984375 -3.83203125 91.5478515625 -3.83203125 c 0
 90.916015625 -3.83203125 90.5205078125 -3.615234375 90.375 -3.1767578125 c 0x90
 89.5654296875 -0.755859375 86.396484375 186.612304688 83.3330078125 413.197265625 c 0xa0
 80.26953125 639.78125 77.373046875 848.627929688 76 929.438476562 c 1
 128.817382812 962.483398438 l 2xc0
202.743164062 711.938476562 m 0
 201.607421875 716.127929688 202.620117188 717.994140625 205.594726562 717.219726562 c 0
 208.129882812 716.559570312 235.806640625 696.20703125 267.100585938 672 c 0
 306.307617188 641.665039062 324.143554688 625.8125 324.143554688 620.854492188 c 0
 324.143554688 616.440429688 318.662109375 572.346679688 311.879882812 522.3515625 c 0
 305.057617188 472 298.702148438 430.010742188 297.76953125 429.041992188 c 0
 296.8359375 428.073242188 294.890625 428.663085938 293.438476562 430.353515625 c 0
 291.986328125 432.043945312 271.37890625 494.631835938 247.646484375 569.438476562 c 0
 223.922851562 644.244140625 203.7109375 708.373046875 202.743164062 711.938476562 c 0
365.1640625 703.689453125 m 0x82
 365.3671875 704.359375 365.744140625 704.76171875 366.4296875 704.76171875 c 0
 369.569335938 704.76171875 379.186523438 696.334960938 408.297851562 666.717773438 c 1x82
 422.00390625 339.252929688 l 2x88
 429.5390625 159.147460938 435.190429688 10.599609375 434.556640625 9.1474609375 c 0
 433.922851562 7.6953125 415.181640625 21.5595703125 352.416992188 73.408203125 c 1x84
 352.3203125 109.5 l 2x88
 352.276367188 129.349609375 354.78515625 269.974609375 357.901367188 422 c 0
 361.017578125 574.024414062 364.291992188 700.78515625 365.1640625 703.689453125 c 0x82
EndSplineSet
Validated: 524321
EndChar

StartChar: i
Encoding: 105 105 59
Width: 510
GlyphClass: 2
Flags: HMW
VStem: 239.762 108.166 242.622 91.8945 246.78 60.7627
LayerCount: 2
Fore
SplineSet
290.6484375 962.684570312 m 2x00
 318.630859375 980.473632812 343.280273438 995.166992188 345.4375 995.325195312 c 0
 348.11328125 995.526367188 348.90234375 987.026367188 347.928710938 968.420898438 c 0
 347.1484375 953.46484375 341.11328125 810.17578125 334.516601562 650 c 0
 327.928710938 489.825195312 321.6484375 346.140625 318.604492188 302.631835938 c 1
 340.586914062 296.114257812 l 2
 352.68359375 292.526367188 374.815429688 285.81640625 389.771484375 281.202148438 c 0
 413.54296875 273.860351562 418.174804688 271.03515625 426.61328125 258.719726562 c 0
 431.919921875 250.973632812 434.919921875 243.473632812 433.280273438 242.052734375 c 0
 431.639648438 240.631835938 404.797851562 230 316.963867188 197.368164062 c 1
 314.384765625 160.526367188 l 2
 312.963867188 140.263671875 310.849609375 103.947265625 307.54296875 35.96484375 c 1
 281.2890625 16.6669921875 l 2
 266.849609375 6.052734375 253.97265625 -2.6318359375 252.666015625 -2.6318359375 c 0
 251.358398438 -2.6318359375 249.499023438 28.2900390625 246.780273438 134.790039062 c 1
 162.569335938 73.74609375 l 2
 117.5859375 41.1318359375 79.6005859375 15.494140625 76.337890625 15.494140625 c 0
 74.4912109375 15.494140625 79.947265625 39.3203125 99.4111328125 106.860351562 c 1
 245.481445312 274.561523438 l 1
 242.622070312 490.3515625 l 2
 241.051757812 609.03515625 239.762695312 756.587890625 239.762695312 930.333984375 c 1
 290.6484375 962.684570312 l 2x00
EndSplineSet
Validated: 524321
EndChar

StartChar: j
Encoding: 106 106 60
Width: 510
GlyphClass: 2
Flags: HMW
HStem: 917.912 82.0693
VStem: 144 111.004 153.542 82.8965 158.648 59.9447
LayerCount: 2
Fore
SplineSet
197.978515625 965.587890625 m 2xc0
 227.661132812 984.393554688 254.354492188 999.981445312 257.303710938 999.981445312 c 0
 260.463867188 999.981445312 285.676757812 991.5 313.5859375 981.0546875 c 0
 341.666992188 970.53515625 365.065429688 960.596679688 365.584960938 958.9765625 c 0
 366.094726562 957.357421875 360.549804688 950.340820312 353.260742188 943.38671875 c 0
 340.672851562 931.388671875 337.8203125 930.4296875 297.741210938 924.627929688 c 0
 274.501953125 921.274414062 255.267578125 918.24609375 255.00390625 917.912109375 c 0xc0
 254.739257812 917.568359375 246.385742188 726.362304688 236.438476562 493 c 0xa0
 226.572265625 261.52734375 218.592773438 65.5654296875 218.592773438 54.8447265625 c 0
 218.592773438 40.9921875 217.958984375 39.873046875 192.265625 20.2880859375 c 0
 177.653320312 9.1533203125 164.10546875 0.0419921875 162.168945312 0.0419921875 c 0
 160.047851562 0.0419921875 158.6484375 15.0068359375 158.6484375 37.89453125 c 0x90
 158.6484375 58.712890625 156.350585938 231.028320312 153.541992188 420.81640625 c 0xa0
 150.734375 610.60546875 147.442382812 803.123046875 144 931.379882812 c 1
 197.978515625 965.587890625 l 2xc0
EndSplineSet
Validated: 524289
EndChar

StartChar: k
Encoding: 107 107 61
Width: 510
GlyphClass: 2
Flags: HMW
HStem: 774.689 20G 920.236 81.9917
VStem: 213.447 110.079 219.935 91.9717
LayerCount: 2
Fore
SplineSet
266.87109375 969.047851562 m 2xe0
 296.225585938 987.116210938 322.6875 1002.22753906 325.659179688 1002.22753906 c 0
 328.965820312 1002.22753906 354.098632812 993.822265625 381.90625 983.4140625 c 0
 409.987304688 972.89453125 433.385742188 962.956054688 433.905273438 961.3359375 c 0
 434.423828125 959.716796875 428.87890625 952.62109375 421.581054688 945.579101562 c 0
 408.905273438 933.34375 406.440429688 932.506835938 366.061523438 926.793945312 c 0
 342.822265625 923.501953125 323.67578125 920.552734375 323.526367188 920.236328125 c 0xe0
 323.368164062 919.918945312 318.138671875 796.063476562 311.90625 645.006835938 c 0
 305.665039062 493.950195312 301.043945312 370.024414062 301.625 369.620117188 c 0
 302.206054688 369.21484375 324.864257812 387.004882812 351.977539062 409.153320312 c 0
 379.08984375 431.309570312 402.4609375 449.4609375 403.9140625 449.504882812 c 0
 405.366210938 449.548828125 406.5546875 448 406.5546875 446.063476562 c 0
 406.5546875 444.126953125 380.331054688 354.998046875 348.2890625 248 c 0
 316.237304688 141.001953125 289.30078125 50.6845703125 288.4296875 47.2958984375 c 0
 287.548828125 43.90625 274.16015625 31.626953125 258.666992188 20.0068359375 c 0
 243.333984375 8.509765625 233.5703125 2.56640625 230.081054688 2.56640625 c 0
 229.383789062 2.56640625 228.936523438 2.8037109375 228.74609375 3.28125 c 0
 227.787109375 5.7021484375 226.598632812 52.048828125 225.216796875 204.866210938 c 1
 174.151367188 206.943359375 l 2
 144.344726562 208.158203125 117.399414062 211.08984375 109.397460938 213.986328125 c 0
 100.638671875 217.1640625 92.14453125 224.030273438 76 247.120117188 c 1
 140.040039062 271.1953125 l 2
 175.26953125 284.434570312 208.482421875 296.318359375 223.614257812 299.936523438 c 1
 223.456054688 368.598632812 l 1
 182.07421875 368.563476562 l 1
 181.564453125 368.563476562 l 2
 150.069335938 368.563476562 135.547851562 370.194335938 118.693359375 375.60546875 c 0
 100.612304688 381.423828125 94.9609375 385.208984375 87.00390625 396.8203125 c 0
 81.677734375 404.59375 78.1123046875 411.635742188 79.0810546875 412.471679688 c 0
 80.048828125 413.298828125 105.401367188 423.396484375 135.418945312 434.91015625 c 0
 165.436523438 446.415039062 196.73046875 457.594726562 219.934570312 463.668945312 c 1xd0
 219.802734375 567.541992188 l 1
 105.489257812 699.197265625 l 1
 92.2236328125 746.045898438 l 2
 85.09765625 771.204101562 79.4619140625 794.689453125 80.7490234375 794.689453125 c 0
 82.9091796875 794.689453125 110.936523438 775.224609375 144.125 750.640625 c 0
 178.12109375 725.46484375 208.684570312 702.956054688 212.056640625 700.614257812 c 0
 212.616210938 700.224609375 213.124023438 699.931640625 213.580078125 699.931640625 c 0
 215.66015625 699.931640625 216.666992188 706.03125 216.666992188 736.908203125 c 0
 216.666992188 769.173828125 215.567382812 828.493164062 213.447265625 936.177734375 c 1
 266.87109375 969.047851562 l 2xe0
EndSplineSet
Validated: 524321
EndChar

StartChar: l
Encoding: 108 108 62
Width: 510
GlyphClass: 2
Flags: MW
VStem: 178.823 111.023 195.759 87.7627 204.398 74.1416
LayerCount: 2
Fore
SplineSet
235.93359375 31.3603515625 m 2x00
 206.28515625 12.96484375 180.854492188 -0.96484375 179.43359375 0.412109375 c 0
 179.049804688 0.78125 178.822265625 4.3837890625 178.822265625 12.4677734375 c 0
 178.822265625 34.33203125 180.487304688 88.982421875 185.232421875 201.149414062 c 1
 146.635742188 201.193359375 l 2
 119.75 201.228515625 102.258789062 203.087890625 88.986328125 207.333984375 c 0
 74.2060546875 212.061523438 67.697265625 216.5703125 59.9423828125 227.46484375 c 0
 54.4423828125 235.184570312 49.9775390625 242.290039062 50.021484375 243.254882812 c 0
 50.0654296875 244.219726562 79.71484375 255.860351562 115.907226562 269.114257812 c 0
 152.109375 282.377929688 183.697265625 293.825195312 186.109375 294.552734375 c 0
 189.14453125 295.473632812 190.495117188 304.552734375 190.495117188 352.026367188 c 1
 147.512695312 352.298828125 l 2
 116.126953125 352.5 99.802734375 354.228515625 86.986328125 358.728515625 c 0
 74.091796875 363.24609375 66.6533203125 368.737304688 58.916015625 379.447265625 c 0
 53.126953125 387.46484375 49.1796875 394.561523438 50.14453125 395.228515625 c 0
 51.109375 395.88671875 77.951171875 406.061523438 109.793945312 417.842773438 c 0
 141.635742188 429.614257812 174.00390625 441.061523438 195.758789062 447.31640625 c 1
 200.6796875 567.219726562 l 2
 202.921875 621.959960938 204.397460938 669.530273438 204.397460938 685.213867188 c 0
 204.397460938 688.421875 204.3359375 690.294921875 204.206054688 690.623046875 c 0
 203.442382812 692.552734375 180.1796875 702.81640625 152.521484375 713.4296875 c 0
 104.688476562 731.78125 101.758789062 733.46484375 92.845703125 747.74609375 c 0
 87.697265625 756.008789062 84.267578125 763.46484375 85.232421875 764.31640625 c 0
 86.197265625 765.158203125 112.25 773.123046875 143.126953125 782.008789062 c 0
 174.00390625 790.89453125 201.86328125 800.026367188 205.030273438 802.290039062 c 0
 209.828125 805.728515625 211.416015625 818.869140625 214.618164062 881.8515625 c 0
 217.951171875 947.491210938 219.25 957.81640625 224.64453125 961.369140625 c 0
 228.056640625 963.60546875 240.328125 972.587890625 272.959960938 997.184570312 c 1
 275.600585938 928.114257812 l 2
 277.056640625 890.123046875 278.635742188 858.623046875 279.109375 858.114257812 c 0
 279.583007812 857.596679688 318.662109375 881.114257812 365.942382812 910.377929688 c 0
 413.223632812 939.631835938 453.880859375 964.131835938 456.293945312 964.81640625 c 0
 458.706054688 965.5 460.6796875 964.482421875 460.6796875 962.552734375 c 0
 460.6796875 960.623046875 453.626953125 939.702148438 429.336914062 873.079101562 c 1
 278.5390625 725.7109375 l 1
 283.521484375 418.693359375 l 2
 286.258789062 249.833984375 288.802734375 101.131835938 289.845703125 64.8076171875 c 1
 235.93359375 31.3603515625 l 2x00
EndSplineSet
Validated: 524321
EndChar

StartChar: m
Encoding: 109 109 63
Width: 510
GlyphClass: 2
Flags: HMW
HStem: 0.805664 80.5889<316.711 337.413> 916.745 81.6338
VStem: 228.082 107.517 233.012 84.1748 242.607 56.9307
LayerCount: 2
Fore
SplineSet
283.642578125 967.973632812 m 0xe0
 321.545898438 991.694335938 333.4453125 998.37890625 340.8046875 998.37890625 c 0
 342.353515625 998.37890625 343.700195312 998.083007812 345.046875 997.587890625 c 0
 349.923828125 995.797851562 372.862304688 987.236328125 396.020507812 978.5703125 c 0
 419.177734375 969.903320312 440.107421875 961.75390625 442.529296875 960.46484375 c 0
 445.555664062 958.859375 442.248046875 953.561523438 432.002929688 943.614257812 c 0
 417.388671875 929.412109375 416.212890625 928.973632812 376.721679688 923.2890625 c 0
 354.529296875 920.087890625 336.020507812 917.140625 335.598632812 916.745117188 c 0xe0
 335.168945312 916.341796875 326.888671875 732.859375 317.186523438 509 c 0xd0
 307.485351562 285.140625 299.546875 96.8505859375 299.538085938 90.5791015625 c 0
 299.529296875 79.39453125 299.774414062 79.2109375 312.686523438 81.1318359375 c 0
 313.880859375 81.3095703125 315.618164062 81.39453125 317.8046875 81.39453125 c 0
 328.875976562 81.39453125 351.45703125 79.21875 373.212890625 75.9296875 c 0
 419.51171875 68.9208984375 420.879882812 68.46484375 433.739257812 55.5439453125 c 0
 440.967773438 48.2802734375 445.704101562 41.2197265625 444.265625 39.8505859375 c 0
 442.818359375 38.4912109375 418.344726562 28.623046875 389.879882812 17.9208984375 c 0
 363.635742188 8.0615234375 340.11328125 0.8056640625 334.711914062 0.8056640625 c 0
 334.254882812 0.8056640625 333.927734375 0.8583984375 333.739257812 0.96484375 c 0
 331.327148438 2.341796875 310.40625 16.7890625 287.248046875 33.0791015625 c 0
 264.08984375 49.3681640625 244.002929688 63.640625 242.607421875 64.7978515625 c 0xc8
 241.212890625 65.947265625 236.897460938 261.10546875 233.01171875 498.473632812 c 0xd0
 229.977539062 684.198242188 228.08203125 844.1953125 228.08203125 905.6875 c 0
 228.08203125 922.786132812 228.228515625 932.268554688 228.538085938 932.5703125 c 0
 229.950195312 933.956054688 254.748046875 949.885742188 283.642578125 967.973632812 c 0xe0
70.248046875 719.903320312 m 0
 72.8359375 718.727539062 99.677734375 698.4296875 129.888671875 674.7890625 c 0
 160.08984375 651.149414062 185.318359375 630.227539062 185.932617188 628.297851562 c 0
 185.965820312 628.1953125 185.982421875 627.974609375 185.982421875 627.637695312 c 0
 185.982421875 621.62109375 180.797851562 578.916992188 173.994140625 529.043945312 c 0
 166.809570312 476.376953125 159.353515625 433.271484375 157.423828125 433.245117188 c 0
 155.494140625 433.219726562 133.791992188 496.833007812 109.1953125 574.60546875 c 0
 84.7763671875 651.825195312 65 716.430664062 65 718.98046875 c 0
 65 720.7421875 67.81640625 720.99609375 70.248046875 719.903320312 c 0
EndSplineSet
Validated: 524321
EndChar

StartChar: n
Encoding: 110 110 64
Width: 510
GlyphClass: 2
Flags: HMW
HStem: 917.673 82.0693
VStem: 224.954 110.484 234.022 82.8516 241.02 57.7988
LayerCount: 2
Fore
SplineSet
278.651367188 966.228515625 m 2x80
 308.17578125 984.55078125 334.737304688 999.7421875 337.686523438 999.7421875 c 0
 340.845703125 999.7421875 366.059570312 991.260742188 393.96875 980.815429688 c 0
 422.049804688 970.295898438 445.447265625 960.357421875 445.966796875 958.737304688 c 0
 446.486328125 957.118164062 440.940429688 950.1015625 433.642578125 943.147460938 c 0
 421.063476562 931.149414062 418.202148438 930.190429688 378.123046875 924.388671875 c 0
 354.883789062 921.03515625 335.67578125 918.006835938 335.438476562 917.672851562 c 0
 335.192382812 917.329101562 326.837890625 725.331054688 316.873046875 491 c 0
 306.926757812 257.299804688 298.818359375 60.06640625 298.818359375 51.8017578125 c 0
 298.818359375 39.2646484375 297.311523438 37.3515625 270.728515625 17.408203125 c 0
 255.6640625 6.1083984375 245.6328125 0.0146484375 242.23046875 0.0146484375 c 0
 241.583007812 0.0146484375 241.17578125 0.2353515625 241.01953125 0.6826171875 c 0
 240.174804688 3.103515625 237.0234375 192.056640625 234.021484375 420.577148438 c 0
 231.010742188 649.098632812 227.736328125 857.857421875 224.954101562 932.901367188 c 1
 278.651367188 966.228515625 l 2x80
63 720.75390625 m 0
 62.9912109375 721.237304688 64.55859375 721.633789062 66.4951171875 721.633789062 c 0
 68.431640625 721.633789062 95.7646484375 701.58984375 127.243164062 677.100585938 c 0
 158.712890625 652.610351562 185.25390625 631.90625 186.221679688 631.096679688 c 0
 187.190429688 630.287109375 182.745117188 590.506835938 176.353515625 542.708007812 c 0
 169.954101562 494.899414062 163.616210938 450.594726562 162.260742188 444.248046875 c 0
 160.9140625 437.901367188 158.475585938 433.147460938 156.85546875 433.684570312 c 0
 155.227539062 434.221679688 133.44921875 498.833984375 108.458007812 577.267578125 c 0
 83.466796875 655.700195312 63.0087890625 720.26953125 63 720.75390625 c 0
EndSplineSet
Validated: 524321
EndChar

StartChar: o
Encoding: 111 111 65
Width: 510
GlyphClass: 2
Flags: HMW
VStem: 134.674 43.7109 253.732 107.093 259.658 87.7959 274.832 58.4756
LayerCount: 2
Fore
SplineSet
274.83203125 948.875 m 2x00
 277.288085938 996.670898438 l 1
 331.399414062 953.352539062 l 1
 333.307617188 908.055664062 l 2
 334.361328125 883.143554688 340.729492188 688.717773438 347.454101562 476 c 0
 354.1875 263.282226562 360.198242188 87.6728515625 360.825195312 85.7568359375 c 0
 361.452148438 83.83984375 380.598632812 79.4326171875 403.368164062 75.95703125 c 0
 442.811523438 69.9462890625 445.407226562 69.03125 457.907226562 56.79296875 c 0
 465.119140625 49.728515625 471.04296875 43.16015625 471.069335938 42.2021484375 c 0
 471.094726562 41.244140625 446.374023438 31.3486328125 361.15625 -0.044921875 c 1
 310.633789062 32.0107421875 l 2
 282.845703125 49.650390625 258.28125 65.8173828125 256.051757812 67.951171875 c 0
 254.505859375 69.423828125 253.732421875 78.958984375 253.732421875 101.775390625 c 0
 253.732421875 124.590820312 254.505859375 160.686523438 256.051757812 215.27734375 c 0
 257.479492188 265.799804688 258.260742188 310.811523438 258.260742188 336.9453125 c 0
 258.260742188 351.625976562 258.014648438 360.349609375 257.497070312 360.748046875 c 0
 256.060546875 361.853515625 247.436523438 360.390625 238.333984375 357.490234375 c 0
 229.345703125 354.633789062 212.41796875 352.305664062 179.499023438 352.305664062 c 0
 179.079101562 352.305664062 178.655273438 352.305664062 178.229492188 352.306640625 c 1
 178.229492188 296.557617188 l 2
 178.229492188 261.71484375 176.922851562 240.80859375 174.745117188 240.80859375 c 0
 172.828125 240.80859375 162.828125 257.6640625 133.803710938 315.721679688 c 1
 87.916015625 552.655273438 l 2
 62.6806640625 682.96875 41.3125 792.333007812 40.44140625 795.686523438 c 0
 39.580078125 799.002929688 40.0107421875 801.90625 41.4765625 801.90625 c 0
 43.0107421875 801.90625 59.0341796875 793.32421875 77.1748046875 782.77734375 c 0
 95.3896484375 772.193359375 112.245117188 763.517578125 114.640625 763.491210938 c 0
 117.036132812 763.474609375 119.701171875 766.984375 120.572265625 771.296875 c 0
 121.434570312 775.608398438 124.962890625 821.331054688 134.674804688 966.670898438 c 1
 145.999023438 971.33984375 l 2
 152.227539062 973.901367188 162.061523438 977.176757812 178.385742188 981.2265625 c 1
 178.028320312 437.672851562 l 1
 218.220703125 421.993164062 l 2
 240.328125 413.370117188 258.969726562 407.09765625 259.658203125 408.055664062 c 0
 260.336914062 409.014648438 263.481445312 520.337890625 266.634765625 655.442382812 c 0
 269.788085938 790.547851562 273.481445312 922.594726562 274.83203125 948.875 c 2x00
EndSplineSet
Validated: 524321
EndChar

StartChar: p
Encoding: 112 112 66
Width: 510
GlyphClass: 2
Flags: HMW
HStem: 1.41113 72.8623
VStem: 51 134.305<384.276 388.458> 142.771 41.4111 250.706 83.5625 259.513 57.1865<931.669 984.091>
LayerCount: 2
Fore
SplineSet
259.512695312 984.090820312 m 2x88
 259.84375 995.571289062 l 1
 315.017578125 953.446289062 l 1
 316.69921875 931.668945312 l 2x88
 317.622070312 919.69140625 325.532226562 724.090820312 334.268554688 497 c 0
 343.014648438 269.909179688 351.272460938 83.158203125 352.622070312 82.0087890625 c 0
 353.981445312 80.8505859375 373.119140625 77.3662109375 395.157226562 74.2734375 c 0
 433.841796875 68.8291015625 435.6796875 68.1845703125 448.29296875 55.466796875 c 0
 455.479492188 48.2197265625 460.18359375 41.189453125 458.74609375 39.8310546875 c 0
 457.30859375 38.48046875 433.005859375 28.681640625 404.739257812 18.0537109375 c 0
 372.086914062 5.78125 358.948242188 1.4111328125 351.603515625 1.4111328125 c 0
 349.068359375 1.4111328125 347.224609375 1.931640625 345.505859375 2.8271484375 c 0
 341.194335938 5.0751953125 316.499023438 20.2314453125 290.627929688 36.5205078125 c 0
 264.756835938 52.810546875 243.284179688 66.259765625 242.91015625 66.4072265625 c 0
 242.53515625 66.564453125 246.045898438 270.51953125 250.706054688 519.6484375 c 0x90
 255.357421875 768.77734375 259.321289062 977.775390625 259.512695312 984.090820312 c 2x88
162.770507812 908.149414062 m 1
 184.35546875 951.704101562 l 1
 185.139648438 578.881835938 l 2
 185.251953125 524.939453125 185.3046875 473.5234375 185.3046875 427.01953125 c 0xc0
 185.3046875 296.74609375 184.887695312 205.0234375 184.181640625 204.317382812 c 0
 183.223632812 203.359375 173.868164062 205.7109375 163.397460938 209.543945312 c 0
 148.372070312 215.040039062 144.016601562 218.350585938 142.770507812 225.22265625 c 0xa0
 141.908203125 230.013671875 138.36328125 275.884765625 134.896484375 327.157226562 c 0
 129.651367188 404.8515625 127.740234375 420.327148438 123.3984375 420.327148438 c 0
 120.51171875 420.327148438 103.645507812 411.657226562 85.923828125 401.146484375 c 0
 70.76171875 392.146484375 54.962890625 384.014648438 51.63671875 384.014648438 c 0
 51.220703125 384.014648438 51 384.141601562 51 384.41015625 c 0xc0
 51 392.506835938 71.7080078125 505.908203125 141.185546875 864.595703125 c 1
 162.770507812 908.149414062 l 1
EndSplineSet
Validated: 524321
EndChar

StartChar: q
Encoding: 113 113 67
Width: 510
GlyphClass: 2
Flags: HMW
HStem: 913.947 82.1133
VStem: 212.149 108.769 213.03 96.0566
LayerCount: 2
Fore
SplineSet
264.965820312 962.65234375 m 2x80
 294.004882812 980.921875 320.169921875 996.060546875 323.120117188 996.060546875 c 0
 326.279296875 996.060546875 351.493164062 987.5703125 379.40234375 977.125 c 0
 407.483398438 966.60546875 430.889648438 956.666992188 431.400390625 955.046875 c 0
 431.919921875 953.427734375 426.374023438 946.33203125 419.077148438 939.290039062 c 0
 406.400390625 927.0546875 403.944335938 926.217773438 363.557617188 920.504882812 c 0
 340.318359375 917.212890625 321.127929688 914.263671875 320.916992188 913.947265625 c 0
 320.705078125 913.629882812 315.379882812 792.151367188 309.0859375 644 c 0
 303.219726562 505.939453125 298.836914062 388.922851562 298.836914062 370.952148438 c 0
 298.836914062 368.692382812 298.655273438 367.462890625 300.3984375 367.462890625 c 0
 304.650390625 367.462890625 318.306640625 377.459960938 349.47265625 402.952148438 c 0
 376.5859375 425.134765625 399.95703125 443.286132812 401.409179688 443.286132812 c 0
 402.842773438 443.294921875 404.094726562 442.107421875 404.094726562 440.653320312 c 0
 404.094726562 439.142578125 376.749023438 346.935546875 282.571289062 33.6650390625 c 1
 255.282226562 13.1279296875 l 2
 240.801757812 2.228515625 231.05859375 -3.685546875 227.716796875 -3.685546875 c 0
 227.06640625 -3.685546875 226.659179688 -3.4619140625 226.505859375 -3.0078125 c 0
 225.678710938 -0.5869140625 224.0859375 75.8662109375 222.958984375 166.88671875 c 0
 221.823242188 257.908203125 219.930664062 383.875976562 216.603515625 561.252929688 c 1
 101.470703125 695.055664062 l 1
 88.8212890625 740.831054688 l 2
 81.9521484375 765.697265625 76.9453125 787.493164062 78.1904296875 787.493164062 c 0
 79.90234375 787.493164062 109.825195312 766.678710938 145.247070312 740.831054688 c 0
 181.075195312 714.686523438 211.180664062 693.294921875 212.1484375 693.294921875 c 0
 212.672851562 693.294921875 213.029296875 708.876953125 213.029296875 752.234375 c 0
 213.029296875 788.93359375 212.7734375 845.53125 212.1484375 929.421875 c 1
 264.965820312 962.65234375 l 2x80
EndSplineSet
Validated: 524321
EndChar

StartChar: r
Encoding: 114 114 68
Width: 510
GlyphClass: 2
Flags: HMW
HStem: 368.294 90.9092<280.996 288.951>
VStem: 200.795 96.6953 203.703 82.4854
LayerCount: 2
Fore
SplineSet
255.2265625 968.119140625 m 2x80
 305.891601562 999.762695312 l 1
 360.750976562 979.439453125 l 2
 390.92578125 968.258789062 415.978515625 958.740234375 416.416015625 958.28515625 c 0
 416.861328125 957.831054688 410.567382812 950.951171875 402.4296875 942.997070312 c 0
 387.9453125 928.827148438 386.817382812 928.416015625 347.4296875 922.743164062 c 0
 325.314453125 919.552734375 306.826171875 916.615234375 306.336914062 916.22265625 c 0
 305.856445312 915.8203125 303.268554688 868.293945312 300.59375 810.6015625 c 0
 298.641601562 768.48828125 297.490234375 731.466796875 297.490234375 714.09765625 c 0
 297.490234375 707.671875 297.647460938 703.935546875 297.98046875 703.625976562 c 0
 299.221679688 702.481445312 324.615234375 692.506835938 354.422851562 681.466796875 c 0
 384.23046875 670.426757812 410.515625 660.348632812 412.83203125 659.072265625 c 0
 415.830078125 657.419921875 414.326171875 652.5859375 407.586914062 642.201171875 c 0
 400.095703125 630.663085938 394.500976562 626.493164062 380.646484375 622.140625 c 0
 369.5625 618.65234375 350.060546875 616.624023438 291.485351562 616.545898438 c 1
 289.684570312 557.979492188 l 2
 288.688476562 525.767578125 287.115234375 490.365234375 286.188476562 479.307617188 c 0
 285.157226562 467.10546875 285.865234375 459.203125 287.989257812 459.203125 c 0
 289.912109375 459.203125 319.4140625 448.862304688 353.548828125 436.22265625 c 0
 387.68359375 423.590820312 416.013671875 412.577148438 416.494140625 411.747070312 c 0
 416.974609375 410.924804688 413.504882812 404.3515625 408.79296875 397.140625 c 0
 401.712890625 386.318359375 396.075195312 382.665039062 376.450195312 376.196289062 c 0
 358.120117188 370.165039062 344.466796875 368.364257812 280.99609375 368.293945312 c 1
 280.9609375 346.440429688 l 2
 280.934570312 334.421875 279.754882812 318.783203125 278.338867188 311.685546875 c 0
 275.8828125 299.421875 276.266601562 298.661132812 286.241210938 296.3359375 c 0
 292.009765625 294.990234375 321.905273438 284.53515625 352.674804688 273.1015625 c 0
 383.443359375 261.66796875 410.515625 251.265625 412.83203125 249.990234375 c 0
 415.838867188 248.329101562 414.334960938 243.495117188 407.586914062 233.110351562 c 0
 400.095703125 221.572265625 394.500976562 217.40234375 380.646484375 213.048828125 c 0
 368.609375 209.264648438 349.283203125 207.533203125 274.002929688 207.455078125 c 1
 272.166992188 152.384765625 l 2
 271.162109375 122.096679688 269.422851562 84.7275390625 266.258789062 41.37109375 c 1
 212.814453125 1.650390625 l 1
 210.62890625 26.755859375 l 2
 209.090820312 44.4736328125 191.100585938 109.75390625 149.440429688 248.713867188 c 0
 116.983398438 356.982421875 91.6171875 446.274414062 93.05859375 447.140625 c 0
 94.5009765625 448.005859375 119.67578125 429.010742188 202.325195312 361.134765625 c 1
 203.522460938 377.831054688 l 2
 203.64453125 379.5234375 203.703125 385.250976562 203.703125 394.391601562 c 0
 203.703125 434.8203125 202.563476562 542.010742188 200.794921875 662 c 0
 199.349609375 760.204101562 198.627929688 827.62109375 198.627929688 870.657226562 c 0
 198.627929688 912.973632812 199.325195312 931.717773438 200.716796875 932.979492188 c 0
 202.83203125 934.90234375 227.368164062 950.71484375 255.2265625 968.119140625 c 2x80
EndSplineSet
Validated: 524321
EndChar

StartChar: s
Encoding: 115 115 69
Width: 509
GlyphClass: 2
Flags: HMW
VStem: 183.463 108.895 192.592 78.7324 196.993 60.4316
LayerCount: 2
Fore
SplineSet
237.010742188 960.25390625 m 2x80
 266.456054688 979.00390625 291.84375 994.452148438 293.427734375 994.584960938 c 0
 294.2734375 994.66015625 294.703125 986.264648438 294.703125 972.901367188 c 0
 294.703125 961.220703125 294.375 945.744140625 293.709960938 928.809570312 c 0
 292.836914062 906.58984375 292.358398438 891.719726562 292.358398438 882.025390625 c 0x80
 292.358398438 869.62109375 293.141601562 865.694335938 294.879882812 865.694335938 c 0
 295.248046875 865.694335938 295.658203125 865.869140625 296.11328125 866.177734375 c 0
 298.868164062 868.043945312 331.21875 891.486328125 368.014648438 918.263671875 c 0
 404.819335938 945.041992188 435.3828125 965.702148438 435.954101562 964.170898438 c 0
 436.517578125 962.638671875 431.139648438 940.782226562 410.998046875 869.831054688 c 1
 352.829101562 802.9296875 l 2
 320.83984375 766.133789062 292.609375 733.651367188 290.091796875 730.74609375 c 0
 286.650390625 726.767578125 282.01953125 644.576171875 271.32421875 398 c 0x40
 263.5078125 217.89453125 257.186523438 62.6123046875 257.424804688 35.32421875 c 1
 230.848632812 15.0771484375 l 2
 216.236328125 3.9423828125 202.697265625 -5.1689453125 200.760742188 -5.1689453125 c 0
 198.560546875 -5.1689453125 197.151367188 17.5859375 196.993164062 55.5703125 c 0x20
 196.861328125 88.9775390625 194.880859375 241.75 192.591796875 395.059570312 c 0x40
 190.311523438 548.37890625 187.64453125 674.504882812 186.676757812 675.350585938 c 0
 185.708007812 676.186523438 164.317382812 683.326171875 139.141601562 691.204101562 c 0
 95.5234375 704.848632812 92.9091796875 706.204101562 74 734.267578125 c 1
 85.4443359375 739.091796875 l 2
 91.73828125 741.75 117.345703125 751.653320312 187.837890625 778.282226562 c 1
 183.462890625 926.168945312 l 1
 237.010742188 960.25390625 l 2x80
EndSplineSet
Validated: 524321
EndChar

StartChar: t
Encoding: 116 116 70
Width: 510
GlyphClass: 2
Flags: HMW
VStem: 213.372 72.9507 227.507 55.8652
LayerCount: 2
Fore
SplineSet
253.73046875 975.96484375 m 2x40
 268.154296875 990.772460938 281.493164062 1002.08300781 283.372070312 1001.10449219 c 0x40
 285.229492188 1000.14257812 286.323242188 933.927734375 286.323242188 660.87109375 c 0
 286.323242188 611.3359375 286.287109375 554.994140625 286.212890625 491 c 1
 233.58203125 312.677734375 l 2
 204.630859375 214.600585938 179.61328125 130.422851562 177.970703125 125.615234375 c 0
 176.08203125 120.055664062 176.440429688 114.741210938 178.966796875 111 c 0
 182.026367188 106.471679688 203.3203125 101.952148438 272.096679688 91.2177734375 c 0
 316.215820312 84.3369140625 353.91796875 79.421875 361.903320312 79.421875 c 0
 362.793945312 79.421875 363.314453125 79.4833984375 363.43359375 79.609375 c 0
 364.630859375 80.876953125 368.564453125 93.5 372.174804688 107.66015625 c 0
 378.696289062 133.237304688 378.887695312 133.5 398.853515625 145.248046875 c 0
 409.911132812 151.759765625 419.579101562 156.690429688 420.338867188 156.208984375 c 0
 421.090820312 155.728515625 424.630859375 128.1328125 428.206054688 94.8896484375 c 0
 431.375 65.3359375 432.989257812 50.2314453125 432.989257812 42.333984375 c 0
 432.989257812 34.1318359375 431.248046875 33.7021484375 427.69921875 32.931640625 c 0
 423.853515625 32.1005859375 367.99609375 25.7900390625 186.431640625 6.4365234375 c 1
 77 116.874023438 l 1
 213.372070312 522.467773438 l 1x80
 227.506835938 949.041015625 l 1
 253.73046875 975.96484375 l 2x40
EndSplineSet
Validated: 524321
EndChar

StartChar: u
Encoding: 117 117 71
Width: 510
GlyphClass: 2
Flags: HMW
VStem: 164.416 96.46 169.94 83.0977 175.491 62.3252
LayerCount: 2
Fore
SplineSet
220.16796875 964.620117188 m 2x00
 270.674804688 996.369140625 l 1
 293.59375 987.836914062 l 2
 306.208007812 983.15234375 330.68359375 974.139648438 347.991210938 967.811523438 c 0
 365.298828125 961.482421875 379.87890625 954.970703125 380.385742188 953.3359375 c 0
 380.90234375 951.701171875 375.39453125 944.690429688 368.1484375 937.758789062 c 0
 355.595703125 925.739257812 353.026367188 924.874023438 313.017578125 919.279296875 c 0
 289.940429688 916.053710938 270.805664062 913.073242188 270.491210938 912.662109375 c 0
 270.176757812 912.243164062 265.849609375 811.595703125 260.875976562 689 c 0
 256.338867188 577.158203125 253.038085938 482.884765625 253.038085938 466.111328125 c 0
 253.038085938 460.83203125 259.549804688 459.450195312 269.739257812 456.657226562 c 0
 278.157226562 454.349609375 310.219726562 442.907226562 340.998046875 431.228515625 c 0
 371.767578125 419.55078125 397.728515625 409.262695312 398.690429688 408.37890625 c 0
 399.65234375 407.487304688 396.111328125 400.442382812 390.823242188 392.723632812 c 0
 382.920898438 381.194335938 377.30078125 377.435546875 359.354492188 371.657226562 c 0
 342.427734375 366.217773438 328.524414062 364.698242188 252.338867188 364.698242188 c 0
 251.022460938 364.698242188 249.686523438 364.698242188 248.33203125 364.69921875 c 2
 246.697265625 346.342773438 l 2
 245.796875 336.24609375 243.418945312 284.716796875 241.426757812 231.83203125 c 0
 239.424804688 178.947265625 237.798828125 126.237304688 237.81640625 93.720703125 c 1
 315.630859375 82.0947265625 l 2
 358.427734375 75.7041015625 396.592773438 69.7080078125 400.438476562 68.7724609375 c 0
 401.267578125 68.5693359375 402.014648438 68.447265625 402.698242188 68.447265625 c 0
 407.107421875 68.447265625 408.947265625 73.4990234375 413.865234375 94.3759765625 c 0
 420.290039062 121.657226562 420.325195312 121.709960938 441.059570312 135.678710938 c 0
 452.475585938 143.370117188 462.509765625 148.877929688 463.358398438 147.916015625 c 0
 464.197265625 146.954101562 467.693359375 118.96484375 471.12890625 85.712890625 c 0
 474.138671875 56.5087890625 475.686523438 41.41015625 475.686523438 33.43359375 c 0
 475.686523438 24.98046875 473.948242188 24.5244140625 470.368164062 23.7548828125 c 0
 466.522460938 22.9248046875 410.666015625 16.666015625 346.243164062 9.8388671875 c 0
 281.810546875 3.0205078125 228.969726562 -2.1455078125 228.803710938 -1.6298828125 c 0
 228.646484375 -1.1044921875 216.583984375 14.2626953125 175.491210938 65.748046875 c 1
 169.940429688 397.916015625 l 2
 166.889648438 580.608398438 164.3984375 752.504882812 164.416015625 829.734375 c 1
 131.19921875 829.734375 l 2
 110.141601562 829.734375 90.0625 831.971679688 76.34765625 835.853515625 c 0
 58.2705078125 840.966796875 53.0693359375 844.279296875 44.7744140625 855.958007812 c 0
 39.310546875 863.650390625 34.9140625 870.73046875 35.001953125 871.692382812 c 0
 35.0888671875 872.654296875 59.9140625 882.6796875 90.1767578125 893.982421875 c 0
 120.4296875 905.276367188 150.692382812 918.650390625 157.422851562 923.694335938 c 0
 164.153320312 928.74609375 192.387695312 947.155273438 220.16796875 964.620117188 c 2x00
EndSplineSet
Validated: 524321
EndChar

StartChar: v
Encoding: 118 118 72
Width: 510
GlyphClass: 2
Flags: MW
VStem: 220.834 111.023 227.158 82.8418 232.141 74.1418
LayerCount: 2
Fore
SplineSet
274.74609375 966.236328125 m 2x80
 304.39453125 984.631835938 329.825195312 998.561523438 331.24609375 997.184570312 c 0
 331.629882812 996.815429688 331.857421875 993.212890625 331.857421875 985.12890625 c 0x80
 331.857421875 963.264648438 330.192382812 908.614257812 325.447265625 796.447265625 c 1
 364.043945312 796.403320312 l 2
 390.9296875 796.368164062 408.420898438 794.508789062 421.693359375 790.262695312 c 0
 436.473632812 785.53515625 442.982421875 781.026367188 450.737304688 770.131835938 c 0
 456.237304688 762.412109375 460.702148438 755.306640625 460.658203125 754.341796875 c 0
 460.614257812 753.376953125 430.96484375 741.736328125 394.772460938 728.482421875 c 0
 358.5703125 715.21875 326.982421875 703.771484375 324.5703125 703.043945312 c 0
 321.53515625 702.123046875 320.184570312 693.043945312 320.184570312 645.5703125 c 1
 363.166992188 645.297851562 l 2
 394.552734375 645.096679688 410.876953125 643.368164062 423.693359375 638.868164062 c 0
 436.587890625 634.350585938 444.026367188 628.859375 451.763671875 618.149414062 c 0
 457.552734375 610.131835938 461.5 603.03515625 460.53515625 602.368164062 c 0
 459.5703125 601.709960938 432.728515625 591.53515625 400.885742188 579.75390625 c 0
 369.043945312 567.982421875 336.67578125 556.53515625 314.920898438 550.280273438 c 1
 310 430.376953125 l 2x40
 307.7578125 375.63671875 306.282226562 328.06640625 306.282226562 312.3828125 c 0
 306.282226562 309.174804688 306.34375 307.301757812 306.473632812 306.973632812 c 0
 307.237304688 305.043945312 330.5 294.780273438 358.158203125 284.166992188 c 0
 405.991210938 265.815429688 408.920898438 264.131835938 417.833984375 249.850585938 c 0
 422.982421875 241.587890625 426.412109375 234.131835938 425.447265625 233.280273438 c 0
 424.482421875 232.438476562 398.4296875 224.473632812 367.552734375 215.587890625 c 0
 336.67578125 206.702148438 308.81640625 197.5703125 305.649414062 195.306640625 c 0
 300.8515625 191.868164062 299.263671875 178.727539062 296.061523438 115.745117188 c 0
 292.728515625 50.10546875 291.4296875 39.7802734375 286.03515625 36.2275390625 c 0
 282.623046875 33.9912109375 270.3515625 25.0087890625 237.719726562 0.412109375 c 1
 235.079101562 69.482421875 l 2
 233.623046875 107.473632812 232.043945312 138.973632812 231.5703125 139.482421875 c 0
 231.096679688 140 192.017578125 116.482421875 144.737304688 87.21875 c 0
 97.4560546875 57.96484375 56.798828125 33.46484375 54.3857421875 32.7802734375 c 0
 51.9736328125 32.0966796875 50 33.1142578125 50 35.0439453125 c 0
 50 36.9736328125 57.052734375 57.89453125 81.3427734375 124.517578125 c 1
 232.140625 271.885742188 l 1x20
 227.158203125 578.903320312 l 2x40
 224.420898438 747.762695312 221.876953125 896.46484375 220.833984375 932.7890625 c 1
 274.74609375 966.236328125 l 2x80
EndSplineSet
Validated: 524321
EndChar

StartChar: w
Encoding: 119 119 73
Width: 510
GlyphClass: 2
Flags: HMW
HStem: 0.210938 71.3906
VStem: 205.983 85.2227<608 608> 212.167 66.0938 328.866 113.974
LayerCount: 2
Fore
SplineSet
219.987304688 995.0546875 m 0xb0
 220.885742188 996.549804688 223.634765625 996.549804688 226.099609375 995.0546875 c 0
 228.5546875 993.560546875 241.27734375 984.334960938 254.364257812 974.547851562 c 0
 277.504882812 957.244140625 278.163085938 956.309570312 278.260742188 940.740234375 c 0xb0
 278.314453125 931.932617188 281.241210938 853.462890625 291.206054688 608 c 1
 430.405273438 273.48046875 l 1
 436.27734375 191.629882812 l 2
 439.528320312 146.309570312 442.83984375 106.490234375 442.83984375 102.00390625 c 0
 442.83984375 96.1396484375 429.166992188 83.78515625 384.782226562 49.3876953125 c 0
 352.487304688 24.361328125 324.461914062 2.4482421875 322.504882812 0.6953125 c 0
 322.140625 0.369140625 320.3828125 0.2109375 317.362304688 0.2109375 c 0
 302.747070312 0.2109375 258.572265625 3.9091796875 199.720703125 10.162109375 c 0
 134.150390625 17.119140625 77.30078125 23.498046875 73.3857421875 24.34375 c 0
 69.7724609375 25.1142578125 68 25.5478515625 68 33.904296875 c 0
 68 41.9453125 69.640625 57.322265625 72.8603515625 87.39453125 c 0
 76.490234375 121.23828125 80.09375 149.325195312 80.8681640625 149.814453125 c 0
 81.650390625 150.3046875 91.490234375 145.286132812 102.745117188 138.658203125 c 0
 123.065429688 126.701171875 123.251953125 126.434570312 129.889648438 100.40234375 c 0
 133.563476562 85.9892578125 137.567382812 73.125 138.786132812 71.81640625 c 0
 138.920898438 71.671875 139.56640625 71.6015625 140.677734375 71.6015625 c 0
 149.602539062 71.6015625 188.555664062 76.1083984375 234.080078125 82.4931640625 c 0
 285.271484375 89.6728515625 327.922851562 96.3447265625 328.866210938 97.32421875 c 0
 329.80078125 98.302734375 333.643554688 139.138671875 344.212890625 277.0390625 c 1
 205.983398438 608 l 1xd0
 212.166992188 800.170898438 l 2
 215.565429688 905.864257812 219.080078125 993.560546875 219.987304688 995.0546875 c 0xb0
EndSplineSet
Validated: 524289
EndChar

StartChar: x
Encoding: 120 120 74
Width: 510
GlyphClass: 2
Flags: HMW
VStem: 52.0127 53.5537 269.652 82.8389 283.778 63.3477
LayerCount: 2
Fore
SplineSet
302.372070312 963.935546875 m 1xc0
 356.745117188 997.358398438 l 1
 408.086914062 978.299804688 l 2
 436.327148438 967.8203125 460.99609375 957.872070312 462.912109375 956.200195312 c 0
 465.125 954.275390625 461.702148438 948.377929688 453.548828125 940.09375 c 0
 441.196289062 927.541015625 439.114257812 926.791992188 399.541015625 920.825195312 c 0
 381.98046875 918.169921875 366.42578125 915.368164062 359.884765625 913.751953125 c 1
 357.041015625 697.108398438 354.546875 516.89453125 352.491210938 373.029296875 c 0xc0
 350.383789062 225.46875 347.970703125 96.896484375 347.125976562 87.3154296875 c 0
 345.766601562 71.853515625 342.552734375 66.025390625 318.563476562 35.564453125 c 2
 291.533203125 1.2353515625 l 1
 269.930664062 4.109375 215.836914062 9.9892578125 157.38671875 16.173828125 c 0
 98.9375 22.349609375 49.9482421875 28.3427734375 48.5283203125 29.484375 c 0
 48.1689453125 29.7705078125 48 31.751953125 48 35.0830078125 c 0
 48 45.009765625 49.5078125 66.92578125 52.0126953125 91.6787109375 c 0
 55.34765625 124.739257812 59.2587890625 151.783203125 60.6962890625 151.783203125 c 0
 62.134765625 151.783203125 72.029296875 145.895507812 82.68359375 138.708984375 c 0
 98.51953125 128.038085938 102.708984375 123.08984375 105.56640625 111.705078125 c 0
 107.5 104.040039062 110.532226562 91.888671875 112.326171875 84.7021484375 c 0
 114.782226562 74.8154296875 117.055664062 71.9931640625 121.672851562 73.0986328125 c 0
 125.026367188 73.900390625 162.265625 79.5888671875 204.42578125 85.73828125 c 0
 250.7890625 92.4921875 283.778320312 94.30078125 283.778320312 103.99609375 c 0xa0
 283.778320312 134.58203125 277.854492188 304.034179688 269.65234375 506 c 0
 260.6015625 728.61328125 249.421875 929.618164062 248.463867188 930.680664062 c 1
 302.372070312 963.935546875 l 1xc0
EndSplineSet
Validated: 524289
EndChar

StartChar: y
Encoding: 121 121 75
Width: 510
GlyphClass: 2
Flags: HMW
HStem: 372.381 89.7655
VStem: 155.025 72.5517 159.81 50.8623 159.896 58.7578
LayerCount: 2
Fore
SplineSet
202.111328125 961.810546875 m 1xc0
 256.223632812 995.741210938 l 1
 307.29296875 976.741210938 l 2
 335.370117188 966.29296875 359.904296875 956.37890625 361.801757812 954.724609375 c 0
 363.991210938 952.819335938 360.602539062 946.982421875 352.54296875 938.784179688 c 0
 340.154296875 926.189453125 338.689453125 925.689453125 294.37890625 918.965820312 c 0
 269.37890625 915.172851562 247.698242188 911.29296875 246.198242188 910.344726562 c 0
 244.698242188 909.396484375 239.448242188 814.741210938 234.516601562 700 c 0
 229.596679688 585.5078125 227.577148438 485.219726562 227.577148438 476.778320312 c 0xc0
 227.577148438 467.266601562 229.107421875 462.146484375 231.919921875 462.146484375 c 0
 234.389648438 462.146484375 261.439453125 451.982421875 294.559570312 439.526367188 c 0
 327.75 427.034179688 355.29296875 416.137695312 355.766601562 415.301757812 c 0
 356.241210938 414.474609375 352.361328125 407.526367188 347.146484375 399.862304688 c 0
 339.456054688 388.577148438 333.741210938 384.646484375 316.973632812 379.146484375 c 0
 301.6171875 374.1015625 286.993164062 372.37890625 259.610351562 372.37890625 c 0
 258.119140625 372.37890625 256.619140625 372.380859375 255.236328125 372.380859375 c 0
 223.770507812 372.380859375 227.030273438 371.838867188 225.646484375 364.655273438 c 0
 224.818359375 360.387695312 221.680664062 291.724609375 218.654296875 212.069335938 c 0x90
 215.637695312 132.4140625 212.04296875 52.103515625 210.671875 33.5947265625 c 0
 209.302734375 15.0966796875 207.01953125 -0.025390625 205.588867188 -0.025390625 c 0
 204.168945312 -0.025390625 189.405273438 5.82421875 159.809570312 25.8623046875 c 1xa0
 159.896484375 81.0341796875 l 2x90
 159.939453125 111.37890625 157.75 278.965820312 155.025390625 453.448242188 c 0
 152.29296875 627.930664062 149.602539062 806.060546875 148 927.87890625 c 1
 202.111328125 961.810546875 l 1xc0
EndSplineSet
Validated: 524321
EndChar

StartChar: z
Encoding: 122 122 76
Width: 510
GlyphClass: 2
Flags: HMW
VStem: 196.148 93.6504 215.796 66.5382 228.787 44.7061
LayerCount: 2
Fore
SplineSet
128.36328125 980.46875 m 0x80
 154.3046875 989.999023438 177.876953125 997.18359375 182.987304688 997.18359375 c 0
 183.313476562 997.18359375 183.563476562 997.154296875 183.735351562 997.094726562 c 0
 186.58984375 996.099609375 212.108398438 981.022460938 291.987304688 931.87890625 c 1
 289.798828125 838.453125 l 2x80
 288.596679688 787.068359375 285.231445312 603.33203125 282.333984375 430.1484375 c 0x40
 279.426757812 256.96484375 276.251953125 95.02734375 273.493164062 25.3037109375 c 1
 249.565429688 12.328125 l 2
 239.150390625 5.19140625 229.798828125 -0.2578125 228.787109375 0.2177734375 c 0x20
 227.766601562 0.693359375 224.798828125 50.130859375 222.186523438 110.079101562 c 0
 219.583007812 170.02734375 217.298828125 219.46484375 217.1171875 219.940429688 c 0
 216.94140625 220.401367188 201.443359375 220.763671875 176.725585938 220.763671875 c 0
 175.897460938 220.763671875 175.059570312 220.763671875 174.2109375 220.762695312 c 2
 173.275390625 220.762695312 l 2
 138.41015625 220.762695312 122.1328125 222.236328125 109.33203125 226.549804688 c 0
 99.81640625 229.75 90.2060546875 234.828125 87.96484375 237.830078125 c 0
 85.724609375 240.840820312 81.4423828125 247.579101562 73 262.328125 c 1
 134.41796875 284.724609375 l 2
 168.198242188 297.04296875 200.327148438 308.33203125 205.811523438 309.810546875 c 0
 211.295898438 311.290039062 214.58984375 314.05859375 215.576171875 315.961914062 c 0
 215.721679688 316.241210938 215.795898438 319.392578125 215.795898438 325.083984375 c 0x40
 215.795898438 358.203125 213.294921875 477.333984375 207.913085938 617 c 0
 201.615234375 780.666992188 196.321289062 914.975585938 196.1484375 915.459960938 c 0
 195.984375 915.944335938 174.038085938 919.568359375 147.39453125 923.513671875 c 0
 102.15234375 930.208984375 98.20703125 931.411132812 87.583984375 941.662109375 c 0
 81.330078125 947.700195312 76.6591796875 954.75 77.2041015625 957.336914062 c 0
 77.7490234375 959.923828125 100.767578125 970.330078125 128.36328125 980.46875 c 0x80
380.966796875 267.172851562 m 0
 408.561523438 290.961914062 432.307617188 310.502929688 433.735351562 310.598632812 c 0
 435.162109375 310.693359375 436.295898438 309.603515625 436.251953125 308.17578125 c 0
 436.208984375 306.749023438 419.072265625 241.740234375 398.1640625 163.711914062 c 0
 377.264648438 85.6845703125 359.392578125 21.0654296875 358.44921875 20.1142578125 c 0
 357.515625 19.162109375 356.018554688 19.162109375 355.119140625 20.1142578125 c 0
 354.228515625 21.0654296875 345.672851562 64.6640625 336.114257812 117 c 0
 325.499023438 175.098632812 321.471679688 197.944335938 321.471679688 208.3359375 c 0
 321.471679688 214.112304688 322.715820312 216.041992188 324.764648438 218.038085938 c 0
 328.077148438 221.2734375 353.372070312 243.383789062 380.966796875 267.172851562 c 0
EndSplineSet
Validated: 524289
EndChar
